<svg xmlns="http://www.w3.org/2000/svg" width="298" height="298" viewBox="0 0 298 298">
    <title>w-chart</title>
    <circle cx="14" cy="284" r="14" style="fill:#add8e6"/>
    <circle cx="44" cy="284" r="14" style="fill:#add8e6"/>
    <circle cx="74" cy="284" r="14" style="fill:#add8e6"/>
    <circle cx="104" cy="284" r="14" style="fill:#add8e6"/>
    <circle cx="134" cy="284" r="14" style="fill:#add8e6"/>
    <circle cx="164" cy="284" r="14" style="fill:#add8e6"/>
    <circle cx="194" cy="284" r="14" style="fill:#add8e6"/>
    <circle cx="224" cy="284" r="14" style="fill:#add8e6"/>
    <circle cx="254" cy="284" r="14" style="fill:#add8e6"/>
    <circle cx="284" cy="284" r="14" style="fill:#add8e6"/>
    <circle cx="14" cy="254" r="14" style="fill:#add8e6"/>
    <circle cx="44" cy="254" r="14" style="fill:#add8e6"/>
    <circle cx="74" cy="254" r="14" style="fill:#add8e6"/>
    <circle cx="104" cy="254" r="14" style="fill:#add8e6"/>
    <circle cx="134" cy="254" r="14" style="fill:#add8e6"/>
    <circle cx="164" cy="254" r="14" style="fill:#add8e6"/>
    <circle cx="194" cy="254" r="14" style="fill:#add8e6"/>
    <circle cx="224" cy="254" r="14" style="fill:#add8e6"/>
    <circle cx="254" cy="254" r="14" style="fill:#add8e6"/>
    <circle cx="284" cy="254" r="14" style="fill:#add8e6"/>
    <circle cx="14" cy="224" r="14" style="fill:#add8e6"/>
    <circle cx="44" cy="224" r="14" style="fill:#add8e6"/>
    <circle cx="74" cy="224" r="14" style="fill:#add8e6"/>
    <circle cx="104" cy="224" r="14" style="fill:#add8e6"/>
    <circle cx="134" cy="224" r="14" style="fill:#add8e6"/>
    <circle cx="164" cy="224" r="14" style="fill:#add8e6"/>
    <circle cx="194" cy="224" r="14" style="fill:#add8e6"/>
    <circle cx="224" cy="224" r="14" style="fill:#add8e6"/>
    <circle cx="254" cy="224" r="14" style="fill:#add8e6"/>
    <circle cx="284" cy="224" r="14" style="fill:#add8e6"/>
    <circle cx="14" cy="194" r="14" style="fill:#add8e6"/>
    <circle cx="44" cy="194" r="14" style="fill:#add8e6"/>
    <circle cx="74" cy="194" r="14" style="fill:#add8e6"/>
    <circle cx="104" cy="194" r="14" style="fill:#add8e6"/>
    <circle cx="134" cy="194" r="14" style="fill:#add8e6"/>
    <circle cx="164" cy="194" r="14" style="fill:#add8e6"/>
    <circle cx="194" cy="194" r="14" style="fill:#add8e6"/>
    <circle cx="224" cy="194" r="14" style="fill:#add8e6"/>
    <circle cx="254" cy="194" r="14" style="fill:#add8e6"/>
    <circle cx="284" cy="194" r="14" style="fill:#add8e6"/>
    <circle cx="14" cy="164" r="14" style="fill:#add8e6"/>
    <circle cx="44" cy="164" r="14" style="fill:#add8e6"/>
    <circle cx="74" cy="164" r="14" style="fill:#add8e6"/>
    <circle cx="104" cy="164" r="14" style="fill:#add8e6"/>
    <circle cx="134" cy="164" r="14" style="fill:#add8e6"/>
    <circle cx="164" cy="164" r="14" style="fill:#add8e6"/>
    <circle cx="194" cy="164" r="14" style="fill:#add8e6"/>
    <circle cx="224" cy="164" r="14" style="fill:#add8e6"/>
    <circle cx="254" cy="164" r="14" style="fill:#add8e6"/>
    <circle cx="284" cy="164" r="14" style="fill:#add8e6"/>
    <circle cx="14" cy="134" r="14" style="fill:#add8e6"/>
    <circle cx="44" cy="134" r="14" style="fill:#add8e6"/>
    <circle cx="74" cy="134" r="14" style="fill:#add8e6"/>
    <circle cx="104" cy="134" r="14" style="fill:#add8e6"/>
    <circle cx="134" cy="134" r="14" style="fill:#add8e6"/>
    <circle cx="164" cy="134" r="14" style="fill:#add8e6"/>
    <circle cx="194" cy="134" r="14" style="fill:#add8e6"/>
    <circle cx="224" cy="134" r="14" style="fill:#add8e6"/>
    <circle cx="254" cy="134" r="14" style="fill:#add8e6"/>
    <circle cx="284" cy="134" r="14" style="fill:#add8e6"/>
    <circle cx="14" cy="104" r="14" style="fill:#add8e6"/>
    <circle cx="44" cy="104" r="14" style="fill:#add8e6"/>
    <circle cx="74" cy="104" r="14" style="fill:#add8e6"/>
    <circle cx="104" cy="104" r="14" style="fill:#add8e6"/>
    <circle cx="134" cy="104" r="14" style="fill:#add8e6"/>
    <circle cx="164" cy="104" r="14" style="fill:#add8e6"/>
    <circle cx="194" cy="104" r="14" style="fill:#add8e6"/>
    <circle cx="224" cy="104" r="14" style="fill:#add8e6"/>
    <circle cx="254" cy="104" r="14" style="fill:#add8e6"/>
    <circle cx="284" cy="104" r="14" style="fill:#add8e6"/>
    <circle cx="14" cy="74" r="14" style="fill:#add8e6"/>
    <circle cx="44" cy="74" r="14" style="fill:#add8e6"/>
    <circle cx="74" cy="74" r="14" style="fill:#add8e6"/>
    <circle cx="104" cy="74" r="14" style="fill:#add8e6"/>
    <circle cx="134" cy="74" r="14" style="fill:#add8e6"/>
    <circle cx="164" cy="74" r="14" style="fill:#add8e6"/>
    <circle cx="194" cy="74" r="14" style="fill:#add8e6"/>
    <circle cx="224" cy="74" r="14" style="fill:#add8e6"/>
    <circle cx="254" cy="74" r="14" style="fill:#add8e6"/>
    <circle cx="284" cy="74" r="14" style="fill:#add8e6"/>
    <circle cx="14" cy="44" r="14" style="fill:#add8e6"/>
    <circle cx="44" cy="44" r="14" style="fill:#add8e6"/>
    <circle cx="74" cy="44" r="14" style="fill:#add8e6"/>
    <circle cx="104" cy="44" r="14" style="fill:#add8e6"/>
    <circle cx="134" cy="44" r="14" style="fill:#add8e6"/>
    <circle cx="164" cy="44" r="14" style="fill:#add8e6"/>
    <circle cx="194" cy="44" r="14" style="fill:#add8e6"/>
    <circle cx="224" cy="44" r="14" style="fill:#add8e6"/>
    <circle cx="254" cy="44" r="14" style="fill:#add8e6"/>
    <circle cx="284" cy="44" r="14" style="fill:#add8e6"/>
    <circle cx="14" cy="14" r="14" style="fill:#add8e6"/>
    <circle cx="44" cy="14" r="14" style="fill:#add8e6"/>
    <circle cx="74" cy="14" r="14" style="fill:#add8e6"/>
    <circle cx="104" cy="14" r="14" style="fill:#add8e6"/>
    <circle cx="134" cy="14" r="14" style="fill:#add8e6"/>
    <circle cx="164" cy="14" r="14" style="fill:#add8e6"/>
    <circle cx="194" cy="14" r="14" style="fill:#add8e6"/>
    <circle cx="224" cy="14" r="14" style="fill:#add8e6"/>
    <circle cx="254" cy="14" r="14" style="fill:#add8e6"/>
    <circle cx="284" cy="14" r="14" style="fill:#add8e6"/>
</svg>
