<svg xmlns="http://www.w3.org/2000/svg" viewBox="0 0 40 40" xmlns:xlink="http://www.w3.org/1999/xlink">
    <defs>
    </defs>
    <title>
        tools_01
    </title>
    <path d="M39.24,6.63A10,10,0,0,1,25.12,19.13l-2.75,3,2,2,1.17-1.17a1.53,1.53,0,0,1,2.17,0l9.53,9.62a1.54,1.54,0,0,1,0,2.17l-4.35,4.35a1.54,1.54,0,0,1-2.17,0l-9.53-9.62a1.54,1.54,0,0,1,0-2.17l1.07-1.07-1.87-1.88L7.18,38.73a3.08,3.08,0,0,1-4.35,0L1.75,37.64a3.08,3.08,0,0,1,0-4.35l15-12.57-10-10H3.64L0,4.87,2.93,1.93l6,3.67L9,8.68,19,18.8,22,16.34A10,10,0,0,1,33.79,1.21L27.33,7.58,32.76,13ZM5.36,34.82a1.54,1.54,0,1,0,0,2.17A1.54,1.54,0,0,0,5.36,34.82Z" />
</svg>
