<svg xmlns="http://www.w3.org/2000/svg" viewBox="0 0 16.871 25" fill="currentColor">
    <path d="M4.942,20.952c-0.114,0-0.253-0.041-0.336,0.01c-0.12,0.073-0.244,0.199-0.284,0.328
	c-0.056,0.177,0.062,0.346,0.199,0.457c0.18,0.146,0.389,0.256,0.577,0.394c0.243,0.178,0.314,0.452,0.198,0.737
	c-0.053,0.13-0.176,0.257-0.168,0.379c0.006,0.102,0.166,0.189,0.238,0.296c0.047,0.07,0.108,0.212,0.081,0.24
	c-0.209,0.212-0.191,0.547-0.43,0.741c-0.201,0.163-0.422,0.192-0.666,0.187c-0.463-0.009-0.91,0.191-1.379,0.111
	c-0.088-0.015-0.184-0.023-0.257-0.066c-0.054-0.032-0.096-0.113-0.104-0.178c-0.003-0.026,0.102-0.098,0.152-0.093
	c0.274,0.029,0.477-0.126,0.711-0.217c0.197-0.076,0.138-0.093,0.043-0.186c-0.19-0.186-0.442-0.346-0.546-0.573
	c-0.094-0.204-0.019-0.484-0.031-0.729c-0.004-0.086-0.024-0.187-0.075-0.251c-0.057-0.073-0.007-0.296-0.175-0.205
	c-0.106,0.058-0.333,0.027-0.313,0.232c0.021,0.22-0.075,0.394-0.185,0.552c-0.112,0.16,0.017,0.354-0.141,0.521
	c-0.102,0.107,0.034,0.365-0.172,0.495c-0.091,0.058-0.115,0.092-0.253,0.037c-0.21-0.084-0.389-0.233-0.635-0.271
	c-0.205-0.032-0.34-0.228-0.338-0.505c0.012-2.377,0.004-4.755,0.012-7.132c0.001-0.194,0.069-0.387,0.11-0.58
	c0.042-0.195,0.109-0.697,0.113-0.752C0.924,14.473,2.612,1.498,2.59,1.15C2.578,0.958,2.448,0.782,2.478,0.569
	C2.494,0.454,2.515,0.397,2.64,0.405c0.114,0.007,0.228,0.002,0.342,0.002c3.291,0,6.582-0.001,9.872,0.003
	c0.177,0,0.362-0.059,0.531,0.099c0.189,0.177,0.23,0.414,0.275,0.629c0.079,0.375,0.057,0.771,0.133,1.147
	c0.107,0.536,0.159,1.077,0.235,1.617c0.07,0.501,0.166,0.999,0.237,1.502c0.038,0.27,0.025,0.558,0.108,0.806
	c0.087,0.257,0.033,0.52,0.109,0.753c0.185,0.571,0.14,1.176,0.317,1.749c0.088,0.286,0.06,0.611,0.112,0.921
	c0.111,0.663,0.376,1.706,0.699,2.397c0.096,0.206,0.153,0.431,0.233,0.645c0.031,0.082,0.072,0.16,0.113,0.238
	c0.074,0.141,0.184,0.272,0.219,0.421c0.038,0.162,0.028,0.343,0.004,0.511c-0.037,0.263,0.533,0.726,0.292,0.939
	c-0.095,0.084-0.194,0.168-0.304,0.229c-0.143,0.079-0.211,0.173-0.217,0.347c-0.012,0.341-0.18,0.649-0.259,0.979
	c-0.098,0.414-0.112,0.781,0.064,1.16c0.085,0.182,0.103,0.678,0.092,0.897c-0.019,0.401-0.103,0.783-0.228,1.162
	c-0.024,0.072,0.023,0.176,0.059,0.256c0.072,0.161,0.169,0.31,0.237,0.472c0.128,0.305,0.04,0.424-0.288,0.559
	c-0.195,0.08-0.381,0.107-0.584,0.107C13.369,20.951,6.635,20.952,4.942,20.952z"/>
</svg>
