<?xml version="1.0" encoding="UTF-8"?>
<svg width="700pt" height="700pt" version="1.1" viewBox="0 0 700 700" xmlns="http://www.w3.org/2000/svg" xmlns:xlink="http://www.w3.org/1999/xlink">
 <defs>
  <symbol id="u" overflow="visible">
   <path d="m8.6875-0.51562c-0.44922 0.23047-0.91797 0.40234-1.4062 0.51562-0.48047 0.125-0.98438 0.1875-1.5156 0.1875-1.5742 0-2.8242-0.4375-3.75-1.3125-0.91797-0.88281-1.375-2.082-1.375-3.5938 0-1.5078 0.45703-2.7031 1.375-3.5781 0.92578-0.88281 2.1758-1.3281 3.75-1.3281 0.53125 0 1.0352 0.0625 1.5156 0.1875 0.48828 0.11719 0.95703 0.28906 1.4062 0.51562v1.9531c-0.44922-0.30078-0.89844-0.52344-1.3438-0.67188-0.4375-0.14453-0.89844-0.21875-1.375-0.21875-0.875 0-1.5625 0.28125-2.0625 0.84375-0.49219 0.55469-0.73438 1.3203-0.73438 2.2969 0 0.98047 0.24219 1.75 0.73438 2.3125 0.5 0.55469 1.1875 0.82812 2.0625 0.82812 0.47656 0 0.9375-0.070313 1.375-0.21875 0.44531-0.14453 0.89453-0.36719 1.3438-0.67188z"/>
  </symbol>
  <symbol id="a" overflow="visible">
   <path d="m6.3594-5.1562c-0.19922-0.09375-0.39844-0.16016-0.59375-0.20312-0.19922-0.050781-0.39844-0.078125-0.59375-0.078125-0.58594 0-1.0312 0.1875-1.3438 0.5625s-0.46875 0.91406-0.46875 1.6094v3.2656h-2.2656v-7.0938h2.2656v1.1719c0.28906-0.46875 0.625-0.80469 1-1.0156 0.375-0.21875 0.82812-0.32812 1.3594-0.32812 0.070312 0 0.14844 0.007813 0.23438 0.015625 0.09375 0 0.22266 0.011719 0.39062 0.03125z"/>
  </symbol>
  <symbol id="c" overflow="visible">
   <path d="m8.1719-3.5625v0.64062h-5.2969c0.050781 0.53125 0.23828 0.93359 0.5625 1.2031 0.33203 0.26172 0.79688 0.39062 1.3906 0.39062 0.47656 0 0.96875-0.066406 1.4688-0.20312 0.5-0.14453 1.0078-0.35938 1.5312-0.64062v1.7344c-0.53125 0.21094-1.0703 0.36719-1.6094 0.46875-0.53125 0.10156-1.0703 0.15625-1.6094 0.15625-1.2812 0-2.2773-0.32031-2.9844-0.96875-0.71094-0.65625-1.0625-1.5781-1.0625-2.7656 0-1.1562 0.34766-2.0625 1.0469-2.7188 0.69531-0.66406 1.6562-1 2.875-1 1.1133 0 2.0039 0.33984 2.6719 1.0156 0.67578 0.66797 1.0156 1.5625 1.0156 2.6875zm-2.3281-0.75c0-0.4375-0.13281-0.78516-0.39062-1.0469-0.25-0.25781-0.57422-0.39062-0.96875-0.39062-0.44922 0-0.80859 0.125-1.0781 0.375-0.27344 0.24219-0.44531 0.59375-0.51562 1.0625z"/>
  </symbol>
  <symbol id="b" overflow="visible">
   <path d="m4.2656-3.1875c-0.46875 0-0.82422 0.085938-1.0625 0.25-0.24219 0.15625-0.35938 0.39062-0.35938 0.70312 0 0.28125 0.09375 0.50781 0.28125 0.67188 0.19531 0.15625 0.46875 0.23438 0.8125 0.23438 0.42578 0 0.78516-0.14844 1.0781-0.45312 0.28906-0.30078 0.4375-0.6875 0.4375-1.1562v-0.25zm3.4688-0.85938v4.0469h-2.2812v-1.0469c-0.3125 0.42969-0.66406 0.74219-1.0469 0.9375-0.375 0.19531-0.83594 0.29688-1.375 0.29688-0.73047 0-1.3242-0.21094-1.7812-0.64062-0.46094-0.4375-0.6875-0.99219-0.6875-1.6719 0-0.83203 0.28125-1.4414 0.84375-1.8281 0.57031-0.39453 1.4727-0.59375 2.7031-0.59375h1.3438v-0.17188c0-0.35156-0.14844-0.61328-0.4375-0.78125-0.28125-0.16406-0.71875-0.25-1.3125-0.25-0.49219 0-0.94531 0.046875-1.3594 0.14062-0.41797 0.09375-0.80859 0.24219-1.1719 0.4375v-1.7344c0.48828-0.11328 0.97656-0.20312 1.4688-0.26562 0.48828-0.0625 0.97656-0.09375 1.4688-0.09375 1.2812 0 2.2031 0.25781 2.7656 0.76562 0.57031 0.5 0.85938 1.3203 0.85938 2.4531z"/>
  </symbol>
  <symbol id="e" overflow="visible">
   <path d="m3.5625-9.1094v2.0156h2.3438v1.625h-2.3438v3c0 0.33594 0.0625 0.55859 0.1875 0.67188 0.13281 0.11719 0.39844 0.17188 0.79688 0.17188h1.1562v1.625h-1.9375c-0.89844 0-1.5312-0.1875-1.9062-0.5625s-0.5625-1.0078-0.5625-1.9062v-3h-1.125v-1.625h1.125v-2.0156z"/>
  </symbol>
  <symbol id="j" overflow="visible">
   <path d="m5.9219-6.0469v-3.8125h2.2656v9.8594h-2.2656v-1.0312c-0.3125 0.41797-0.66406 0.72656-1.0469 0.92188-0.375 0.19531-0.80859 0.29688-1.2969 0.29688-0.875 0-1.5938-0.34766-2.1562-1.0469-0.5625-0.69531-0.84375-1.5938-0.84375-2.6875s0.28125-1.9844 0.84375-2.6719c0.5625-0.69531 1.2812-1.0469 2.1562-1.0469 0.48828 0 0.92188 0.10156 1.2969 0.29688 0.38281 0.19922 0.73438 0.50781 1.0469 0.92188zm-1.5 4.5781c0.47656 0 0.84766-0.17578 1.1094-0.53125 0.25781-0.35156 0.39062-0.86719 0.39062-1.5469 0-0.66406-0.13281-1.1758-0.39062-1.5312-0.26172-0.35156-0.63281-0.53125-1.1094-0.53125-0.48047 0-0.85156 0.17969-1.1094 0.53125-0.25 0.35547-0.375 0.86719-0.375 1.5312 0 0.67969 0.125 1.1953 0.375 1.5469 0.25781 0.35547 0.62891 0.53125 1.1094 0.53125z"/>
  </symbol>
  <symbol id="i" overflow="visible">
   <path d="m4.8594-1.4688c0.48828 0 0.85938-0.17578 1.1094-0.53125 0.25781-0.35156 0.39062-0.86719 0.39062-1.5469 0-0.66406-0.13281-1.1758-0.39062-1.5312-0.25-0.35156-0.62109-0.53125-1.1094-0.53125-0.48047 0-0.85156 0.17969-1.1094 0.53125-0.26172 0.35547-0.39062 0.86719-0.39062 1.5312 0 0.67969 0.12891 1.1953 0.39062 1.5469 0.25781 0.35547 0.62891 0.53125 1.1094 0.53125zm-1.5-4.5781c0.3125-0.41406 0.65625-0.72266 1.0312-0.92188 0.38281-0.19531 0.82031-0.29688 1.3125-0.29688 0.875 0 1.5938 0.35156 2.1562 1.0469 0.5625 0.6875 0.84375 1.5781 0.84375 2.6719s-0.28125 1.9922-0.84375 2.6875c-0.5625 0.69922-1.2812 1.0469-2.1562 1.0469-0.49219 0-0.92969-0.10156-1.3125-0.29688-0.375-0.19531-0.71875-0.50391-1.0312-0.92188v1.0312h-2.2656v-9.8594h2.2656z"/>
  </symbol>
  <symbol id="h" overflow="visible">
   <path d="m0.15625-7.0938h2.2656l1.9062 4.8125 1.625-4.8125h2.2656l-2.9844 7.7656c-0.30469 0.78906-0.65234 1.3438-1.0469 1.6562-0.39844 0.3125-0.92188 0.46875-1.5781 0.46875h-1.3125v-1.4844h0.70312c0.38281 0 0.66406-0.0625 0.84375-0.1875 0.17578-0.125 0.3125-0.34375 0.40625-0.65625l0.0625-0.20312z"/>
  </symbol>
  <symbol id="g" overflow="visible">
   <path d="m1.1875-9.4531h3.1094l2.1562 5.0625 2.1562-5.0625h3.0938v9.4531h-2.2969v-6.9219l-2.1875 5.1094h-1.5312l-2.1875-5.1094v6.9219h-2.3125z"/>
  </symbol>
  <symbol id="t" overflow="visible">
   <path d="m1.0938-7.0938h2.2656v7.0938h-2.2656zm0-2.7656h2.2656v1.8594h-2.2656z"/>
  </symbol>
  <symbol id="s" overflow="visible">
   <path d="m3.625-7.6094v5.7656h0.875c1 0 1.7578-0.24219 2.2812-0.73438 0.53125-0.5 0.79688-1.2188 0.79688-2.1562s-0.26562-1.6484-0.79688-2.1406c-0.52344-0.48828-1.2812-0.73438-2.2812-0.73438zm-2.4375-1.8438h2.5781c1.4375 0 2.5039 0.10547 3.2031 0.3125 0.69531 0.19922 1.3008 0.54297 1.8125 1.0312 0.4375 0.42969 0.76562 0.92188 0.98438 1.4844 0.21875 0.55469 0.32812 1.1836 0.32812 1.8906 0 0.71094-0.10938 1.3438-0.32812 1.9062s-0.54688 1.0586-0.98438 1.4844c-0.51172 0.49219-1.1211 0.83984-1.8281 1.0469-0.71094 0.19922-1.7734 0.29688-3.1875 0.29688h-2.5781z"/>
  </symbol>
  <symbol id="d" overflow="visible">
   <path d="m4.4688-5.6406c-0.51172 0-0.89844 0.18359-1.1562 0.54688-0.26172 0.35547-0.39062 0.87109-0.39062 1.5469 0 0.6875 0.12891 1.2148 0.39062 1.5781 0.25781 0.35547 0.64453 0.53125 1.1562 0.53125 0.48828 0 0.86328-0.17578 1.125-0.53125 0.25781-0.36328 0.39062-0.89062 0.39062-1.5781 0-0.67578-0.13281-1.1914-0.39062-1.5469-0.26172-0.36328-0.63672-0.54688-1.125-0.54688zm0-1.625c1.2188 0 2.1719 0.33594 2.8594 1 0.6875 0.65625 1.0312 1.5625 1.0312 2.7188 0 1.168-0.34375 2.0859-1.0312 2.75-0.6875 0.65625-1.6406 0.98438-2.8594 0.98438-1.2305 0-2.1875-0.32812-2.875-0.98438-0.6875-0.66406-1.0312-1.582-1.0312-2.75 0-1.1562 0.34375-2.0625 1.0312-2.7188 0.6875-0.66406 1.6445-1 2.875-1z"/>
  </symbol>
  <symbol id="f" overflow="visible">
   <path d="m8.2188-4.3125v4.3125h-2.2812v-3.3125c0-0.60156-0.015625-1.0195-0.046875-1.25-0.023437-0.23828-0.070313-0.41016-0.14062-0.51562-0.085938-0.15625-0.20312-0.26953-0.35938-0.34375-0.14844-0.082031-0.32031-0.125-0.51562-0.125-0.46875 0-0.83984 0.18359-1.1094 0.54688-0.27344 0.36719-0.40625 0.87109-0.40625 1.5156v3.4844h-2.2656v-7.0938h2.2656v1.0469c0.34375-0.41406 0.70312-0.72266 1.0781-0.92188 0.38281-0.19531 0.8125-0.29688 1.2812-0.29688 0.82031 0 1.4414 0.25781 1.8594 0.76562 0.42578 0.5 0.64062 1.2305 0.64062 2.1875z"/>
  </symbol>
  <symbol id="r" overflow="visible">
   <path d="m5.75-9.8594v1.5h-1.25c-0.32422 0-0.54688 0.058594-0.67188 0.17188-0.125 0.11719-0.1875 0.3125-0.1875 0.59375v0.5h1.9375v1.625h-1.9375v5.4688h-2.2656v-5.4688h-1.125v-1.625h1.125v-0.5c0-0.76953 0.21094-1.3359 0.64062-1.7031 0.4375-0.375 1.1016-0.5625 2-0.5625z"/>
  </symbol>
  <symbol id="q" overflow="visible">
   <path d="m7.6562-5.9219c0.28906-0.4375 0.63281-0.76953 1.0312-1 0.39453-0.22656 0.82812-0.34375 1.2969-0.34375 0.8125 0 1.4297 0.25781 1.8594 0.76562 0.42578 0.5 0.64062 1.2305 0.64062 2.1875v4.3125h-2.2812v-3.7031c0.007813-0.050781 0.015625-0.10156 0.015625-0.15625v-0.26562c0-0.5-0.074219-0.85938-0.21875-1.0781-0.14844-0.22656-0.38672-0.34375-0.71875-0.34375-0.42969 0-0.76172 0.17969-1 0.53125-0.23047 0.35547-0.35156 0.86719-0.35938 1.5312v3.4844h-2.2812v-3.7031c0-0.78125-0.070313-1.2812-0.20312-1.5-0.13672-0.22656-0.375-0.34375-0.71875-0.34375-0.4375 0-0.77734 0.17969-1.0156 0.53125-0.23047 0.35547-0.34375 0.86719-0.34375 1.5312v3.4844h-2.2812v-7.0938h2.2812v1.0469c0.28125-0.40625 0.59766-0.70703 0.95312-0.90625 0.36328-0.20703 0.76562-0.3125 1.2031-0.3125 0.48828 0 0.92188 0.12109 1.2969 0.35938 0.375 0.24219 0.65625 0.57031 0.84375 0.98438z"/>
  </symbol>
  <symbol id="p" overflow="visible">
   <path d="m8.2188-4.3125v4.3125h-2.2812v-3.2969c0-0.61328-0.015625-1.0352-0.046875-1.2656-0.023437-0.23828-0.070313-0.41016-0.14062-0.51562-0.085938-0.15625-0.20312-0.26953-0.35938-0.34375-0.14844-0.082031-0.32031-0.125-0.51562-0.125-0.46875 0-0.83984 0.18359-1.1094 0.54688-0.27344 0.36719-0.40625 0.87109-0.40625 1.5156v3.4844h-2.2656v-9.8594h2.2656v3.8125c0.34375-0.41406 0.70312-0.72266 1.0781-0.92188 0.38281-0.19531 0.8125-0.29688 1.2812-0.29688 0.82031 0 1.4414 0.25781 1.8594 0.76562 0.42578 0.5 0.64062 1.2305 0.64062 2.1875z"/>
  </symbol>
  <symbol id="o" overflow="visible">
   <path d="m1.1875-9.4531h2.7188l3.4531 6.4844v-6.4844h2.2969v9.4531h-2.7188l-3.4375-6.4844v6.4844h-2.3125z"/>
  </symbol>
  <symbol id="n" overflow="visible">
   <path d="m1.0156-2.7656v-4.3281h2.2812v0.70312c0 0.38672-0.007813 0.87109-0.015625 1.4531v1.1562c0 0.57422 0.015625 0.98438 0.046875 1.2344s0.078125 0.43359 0.14062 0.54688c0.09375 0.15625 0.21094 0.27734 0.35938 0.35938 0.15625 0.074219 0.33203 0.10938 0.53125 0.10938 0.46875 0 0.83594-0.17969 1.1094-0.54688 0.26953-0.36328 0.40625-0.86719 0.40625-1.5156v-3.5h2.2656v7.0938h-2.2656v-1.0312c-0.34375 0.41797-0.71094 0.72656-1.0938 0.92188-0.375 0.19531-0.79297 0.29688-1.25 0.29688-0.82422 0-1.4492-0.25-1.875-0.75-0.42969-0.50781-0.64062-1.2422-0.64062-2.2031z"/>
  </symbol>
  <symbol id="m" overflow="visible">
   <path d="m1.1875-9.4531h4.0469c1.207 0 2.1289 0.26562 2.7656 0.79688 0.64453 0.53125 0.96875 1.293 0.96875 2.2812 0 1-0.32422 1.7656-0.96875 2.2969-0.63672 0.53125-1.5586 0.79688-2.7656 0.79688h-1.6094v3.2812h-2.4375zm2.4375 1.7656v2.6406h1.3594c0.46875 0 0.82812-0.11328 1.0781-0.34375 0.25781-0.22656 0.39062-0.55469 0.39062-0.98438 0-0.41406-0.13281-0.73828-0.39062-0.96875-0.25-0.22656-0.60938-0.34375-1.0781-0.34375z"/>
  </symbol>
  <symbol id="l" overflow="visible">
   <path d="m1.0938-7.0938h2.2656v6.9688c0 0.94531-0.23047 1.6719-0.6875 2.1719-0.46094 0.5-1.1211 0.75-1.9844 0.75h-1.125v-1.4844h0.40625c0.42578 0 0.71875-0.10156 0.875-0.29688 0.16406-0.1875 0.25-0.57031 0.25-1.1406zm0-2.7656h2.2656v1.8594h-2.2656z"/>
  </symbol>
  <symbol id="k" overflow="visible">
   <path d="m6.8125-6.875v1.8594c-0.30469-0.21875-0.60938-0.375-0.92188-0.46875-0.3125-0.10156-0.63672-0.15625-0.96875-0.15625-0.625 0-1.1172 0.1875-1.4688 0.5625-0.35547 0.36719-0.53125 0.875-0.53125 1.5312 0 0.66797 0.17578 1.1875 0.53125 1.5625 0.35156 0.36719 0.84375 0.54688 1.4688 0.54688 0.35156 0 0.69141-0.050781 1.0156-0.15625 0.32031-0.10156 0.61328-0.25781 0.875-0.46875v1.8594c-0.35547 0.125-0.71484 0.21875-1.0781 0.28125-0.36719 0.070313-0.73047 0.10938-1.0938 0.10938-1.2812 0-2.2812-0.32812-3-0.98438s-1.0781-1.5703-1.0781-2.75c0-1.1641 0.35938-2.0781 1.0781-2.7344s1.7188-0.98438 3-0.98438c0.375 0 0.73828 0.039063 1.0938 0.10938 0.36328 0.0625 0.72266 0.15625 1.0781 0.28125z"/>
  </symbol>
 </defs>
 <g>
  <path d="m251.79 538.41c-0.003906 0-0.003906 0 0 0-8.3945 0-15.504-6.0039-16.902-14.277l-3.8906-23.016c-0.35156-2.0938-2.6758-4.9453-4.6914-5.8789l-2.0469 19.02c-0.87891 8.1562-7.3516 14.074-15.395 14.074-1.4648 0-2.9453-0.20312-4.3984-0.60156l-5.3438-1.4688c-8.3984-2.3086-14.715-10.621-14.684-19.332l0.51953-156.95c0.019531-5.3789 0.50391-14.09 1.082-19.426l28.91-266.15c0.38672-3.5664-0.8125-9.9414-2.4727-13.125l-5.9648-11.449c-2.4141-4.6328-2.4336-9.5352-0.058594-13.449 2.3711-3.9102 6.7188-6.1523 11.93-6.1523l212.46 1.0703c8.8555 0.042969 17.027 6.9023 18.613 15.613l38.086 209.75c0.78516 4.3203 3.1797 11.562 5.125 15.492l17.98 36.359c3.2422 6.5586 3.6094 16.613 0.84375 23.391l-12.207 29.969c-1.1914 2.9258-1.2461 8.6836-0.11719 11.629l4.9688 12.91c2.375 6.1719 3.1719 15.715 1.8594 22.199l-3.8672 19.047c-0.70703 3.4805-0.050781 9.8516 1.3477 13.117l3.1484 7.3477c2 4.6797 1.7188 9.5625-0.77734 13.395-2.4961 3.8359-6.8477 6.0742-11.934 6.1367l-218.79 2.6875c-1.3555 0.015625-3.0039 1.3594-3.207 2.6172-0.33594 2.0859 1.1953 5.6484 2.9805 6.9336l6.6797 4.793c5.8867 4.2305 11.031 12.824 11.977 20.004l2.5625 19.48c1.207 9.2148-5.2617 17.949-14.422 19.477l-27.094 4.5234c-0.92578 0.15625-1.8711 0.23438-2.8047 0.23438zm-26.086-58.934c1.7109 0 3.4297 0.28125 5.1133 0.84375 7.5117 2.5078 14.184 10.328 15.516 18.203l3.8906 23.016c0.14062 0.82031 0.90625 1.3125 1.5664 1.3125 0.082032 0 0.16406-0.007812 0.25-0.019531l27.098-4.5156c0.92188-0.15625 1.6758-1.1758 1.5547-2.1055l-2.5625-19.48c-0.39062-2.9844-3.1797-7.6367-5.625-9.3945l-6.6797-4.793c-6.5508-4.707-10.535-14.184-9.2695-22.043 1.4023-8.6914 9.4727-15.586 18.375-15.699l216.47-2.6602-2.2305-5.2266c-2.6406-6.1641-3.625-15.766-2.293-22.336l3.8672-19.047c0.72266-3.5586 0.17188-10.133-1.1289-13.52l-4.9688-12.91c-2.5391-6.6055-2.4414-16.527 0.22656-23.082l12.207-29.969c1.0898-2.6758 0.89844-8.0391-0.38281-10.629l-17.98-36.359c-2.5859-5.2344-5.4375-13.844-6.4844-19.605l-38.086-209.75c-0.25-1.375-1.9922-2.8359-3.3867-2.8398l-208.8-1.0508 4.3047 8.293c3.0781 5.9102 4.8594 15.363 4.1367 21.992l-28.898 266.14c-0.51953 4.8086-0.97656 12.957-0.99219 17.797l-0.51953 156.95c-0.003906 1.6133 1.6953 3.8516 3.25 4.2812l5.3438 1.4688c0.074218 0.019532 0.13281 0.03125 0.17969 0.039063 0.003907-0.042969 0.015625-0.10156 0.023438-0.17578l2.0859-19.363c0.85156-7.9727 7.0898-13.754 14.824-13.754z"/>
  <use x="70" y="598.890625" xlink:href="#u"/>
  <use x="79.511719" y="598.890625" xlink:href="#a"/>
  <use x="85.90625" y="598.890625" xlink:href="#c"/>
  <use x="94.699219" y="598.890625" xlink:href="#b"/>
  <use x="103.445312" y="598.890625" xlink:href="#e"/>
  <use x="109.640625" y="598.890625" xlink:href="#c"/>
  <use x="118.433594" y="598.890625" xlink:href="#j"/>
  <use x="132.226562" y="598.890625" xlink:href="#i"/>
  <use x="141.503906" y="598.890625" xlink:href="#h"/>
  <use x="154.46875" y="598.890625" xlink:href="#g"/>
  <use x="167.367188" y="598.890625" xlink:href="#b"/>
  <use x="176.117188" y="598.890625" xlink:href="#a"/>
  <use x="182.507813" y="598.890625" xlink:href="#t"/>
  <use x="186.953125" y="598.890625" xlink:href="#b"/>
  <use x="200.210938" y="598.890625" xlink:href="#s"/>
  <use x="210.972656" y="598.890625" xlink:href="#b"/>
  <use x="219.71875" y="598.890625" xlink:href="#a"/>
  <use x="226.113281" y="598.890625" xlink:href="#a"/>
  <use x="232.503906" y="598.890625" xlink:href="#d"/>
  <use x="241.410156" y="598.890625" xlink:href="#f"/>
  <use x="70" y="611.851562" xlink:href="#r"/>
  <use x="75.640625" y="611.851562" xlink:href="#a"/>
  <use x="82.03125" y="611.851562" xlink:href="#d"/>
  <use x="90.9375" y="611.851562" xlink:href="#q"/>
  <use x="108.957031" y="611.851562" xlink:href="#e"/>
  <use x="115.15625" y="611.851562" xlink:href="#p"/>
  <use x="124.382813" y="611.851562" xlink:href="#c"/>
  <use x="137.6875" y="611.851562" xlink:href="#o"/>
  <use x="148.539062" y="611.851562" xlink:href="#d"/>
  <use x="157.441406" y="611.851562" xlink:href="#n"/>
  <use x="166.671875" y="611.851562" xlink:href="#f"/>
  <use x="180.414062" y="611.851562" xlink:href="#m"/>
  <use x="189.914062" y="611.851562" xlink:href="#a"/>
  <use x="196.304688" y="611.851562" xlink:href="#d"/>
  <use x="205.210938" y="611.851562" xlink:href="#l"/>
  <use x="209.65625" y="611.851562" xlink:href="#c"/>
  <use x="218.449219" y="611.851562" xlink:href="#k"/>
  <use x="226.132812" y="611.851562" xlink:href="#e"/>
 </g>
</svg>
