<?xml version="1.0" encoding="utf-8"?>
<!-- Generator: Adobe Illustrator 26.0.1, SVG Export Plug-In . SVG Version: 6.00 Build 0)  -->
<!DOCTYPE svg PUBLIC "-//W3C//DTD SVG 1.1//EN" "http://www.w3.org/Graphics/SVG/1.1/DTD/svg11.dtd" [
	<!ENTITY ns_extend "http://ns.adobe.com/Extensibility/1.0/">
	<!ENTITY ns_ai "http://ns.adobe.com/AdobeIllustrator/10.0/">
	<!ENTITY ns_graphs "http://ns.adobe.com/Graphs/1.0/">
	<!ENTITY ns_vars "http://ns.adobe.com/Variables/1.0/">
	<!ENTITY ns_imrep "http://ns.adobe.com/ImageReplacement/1.0/">
	<!ENTITY ns_sfw "http://ns.adobe.com/SaveForWeb/1.0/">
	<!ENTITY ns_custom "http://ns.adobe.com/GenericCustomNamespace/1.0/">
	<!ENTITY ns_adobe_xpath "http://ns.adobe.com/XPath/1.0/">
]>
<svg version="1.1" id="Layer_1" xmlns:x="&ns_extend;" xmlns:i="&ns_ai;" xmlns:graph="&ns_graphs;"
	 xmlns="http://www.w3.org/2000/svg" xmlns:xlink="http://www.w3.org/1999/xlink" x="0px" y="0px" viewBox="0 0 16.871 25"
	 style="enable-background:new 0 0 16.871 25;" xml:space="preserve">
<style type="text/css">
	.st0{fill:#4C4C4C;}
	.st1{fill:#FFFFFF;}
	.st2{fill:#03539D;}
</style>
<metadata>
	<sfw  xmlns="&ns_sfw;">
		<slices></slices>
		<sliceSourceBounds  bottomLeftOrigin="true" height="353.828" width="437.208" x="-275.738" y="-234.795"></sliceSourceBounds>
		<optimizationSettings>
			<targetSettings  fileFormat="PNG24Format" targetSettingsID="0">
				<PNG24Format  filtered="false" interlaced="false" matteColor="#FFFFFF" noMatteColor="false" transparency="true">
					</PNG24Format>
			</targetSettings>
		</optimizationSettings>
	</sfw>
</metadata>
<path class="st0" d="M16.641,14.289c-0.138-0.138-0.347-0.237-0.31-0.5c0.024-0.168,0.034-0.349-0.004-0.511
	c-0.035-0.149-0.145-0.281-0.219-0.421c-0.041-0.078-0.083-0.156-0.114-0.238c-0.08-0.214-0.136-0.439-0.233-0.645
	c-0.323-0.69-0.587-1.734-0.699-2.397c-0.052-0.31-0.024-0.635-0.112-0.921c-0.177-0.573-0.132-1.178-0.317-1.749
	c-0.075-0.233-0.022-0.497-0.109-0.753c-0.084-0.248-0.07-0.537-0.108-0.806c-0.072-0.502-0.167-1-0.237-1.502
	c-0.075-0.539-0.127-1.08-0.235-1.617c-0.075-0.376-0.054-0.772-0.133-1.147c-0.045-0.215-0.086-0.452-0.275-0.629
	c-0.097-0.091-0.199-0.11-0.302-0.11c-0.076,0-0.153,0.011-0.228,0.011c0,0-0.001,0-0.001,0c-2.15-0.003-4.299-0.004-6.449-0.004
	c-1.141,0-2.282,0-3.423,0c-0.07,0-0.14,0.002-0.21,0.002c-0.044,0-0.089-0.001-0.133-0.004c-0.008,0-0.015-0.001-0.022-0.001
	c-0.105,0-0.125,0.057-0.14,0.164c-0.03,0.213,0.1,0.389,0.112,0.582c0.022,0.347,0.003,0.69-0.088,1.041
	C2.588,2.39,2.587,2.671,2.533,2.941C2.497,3.126,2.502,3.316,2.483,3.506C2.412,3.787,2.346,4.067,2.311,4.344
	c-0.093,0.733-0.184,1.467-0.275,2.2c-0.076,0.609-0.15,1.219-0.224,1.828C1.786,8.587,1.761,8.801,1.736,9.016
	C1.721,9.073,1.714,9.131,1.715,9.19C1.683,9.458,1.651,9.725,1.619,9.993c-0.002,0.014-0.007,0.028-0.008,0.042
	c-0.001,0.008,0.001,0.017,0,0.025c-0.023,0.196-0.047,0.391-0.07,0.587c-0.052,0.121-0.048,0.237-0.042,0.352
	c-0.013,0.111-0.026,0.222-0.039,0.333c-0.02,0.107-0.034,0.216-0.065,0.324c-0.082,0.294-0.012,0.607-0.105,0.926
	c-0.082,0.283-0.083,0.609-0.13,0.917c-0.062,0.407-0.081,0.82-0.112,1.232c-0.013,0.104-0.025,0.207-0.038,0.311
	c-0.172,0.177-0.044,0.394-0.085,0.586c-0.041,0.193-0.109,0.387-0.11,0.58c-0.008,2.377,0,4.755-0.012,7.132
	c-0.001,0.276,0.133,0.473,0.338,0.505c0.246,0.038,0.425,0.187,0.635,0.271c0.049,0.019,0.083,0.028,0.112,0.028
	c0.052,0,0.083-0.027,0.141-0.065c0.206-0.131,0.07-0.388,0.172-0.495c0.158-0.167,0.029-0.361,0.141-0.521
	c0.11-0.158,0.207-0.332,0.185-0.552c-0.02-0.205,0.207-0.174,0.313-0.232c0.028-0.015,0.05-0.022,0.067-0.022
	c0.087,0,0.06,0.166,0.108,0.227c0.05,0.064,0.07,0.165,0.075,0.251c0.012,0.246-0.063,0.525,0.031,0.729
	c0.029,0.063,0.086,0.113,0.134,0.167c0.036,0.116,0.114,0.202,0.227,0.266c0.035,0.02,0.069,0.045,0.096,0.073
	c0.057,0.059,0.11,0.121,0.166,0.181c-0.011,0.02-0.041,0.041-0.12,0.072c-0.215,0.083-0.403,0.221-0.644,0.221
	c-0.022,0-0.044-0.001-0.067-0.004c-0.002,0-0.004,0-0.005,0c-0.052,0-0.15,0.068-0.147,0.093c0.008,0.064,0.051,0.146,0.104,0.178
	c0.073,0.043,0.169,0.051,0.257,0.066c0.079,0.013,0.157,0.019,0.234,0.019c0.375,0,0.74-0.13,1.115-0.13c0.01,0,0.02,0,0.03,0
	c0.015,0,0.031,0,0.046,0c0.226,0,0.433-0.035,0.62-0.188c0.239-0.195,0.221-0.53,0.43-0.742c0.028-0.028-0.033-0.17-0.081-0.24
	c-0.072-0.107-0.232-0.194-0.238-0.296c-0.007-0.122,0.115-0.249,0.168-0.379c0.117-0.284,0.045-0.559-0.198-0.737
	c-0.188-0.137-0.397-0.247-0.577-0.394c-0.136-0.111-0.254-0.28-0.199-0.457c0.041-0.129,0.165-0.255,0.284-0.328
	c0.032-0.019,0.072-0.025,0.115-0.025c0.07,0,0.151,0.016,0.221,0.016c1.693,0,3.386,0,5.079,0c0.776,0,1.553,0,2.329,0
	c0.897,0,1.795,0,2.692,0.001c0.001,0,0.002,0,0.002,0c0.202,0,0.387-0.027,0.581-0.107c0.328-0.135,0.416-0.253,0.288-0.559
	C16,20.069,15.902,19.92,15.83,19.759c-0.036-0.08-0.082-0.184-0.059-0.256c0.125-0.379,0.209-0.761,0.228-1.162
	c0.01-0.219-0.008-0.715-0.092-0.897c-0.176-0.38-0.162-0.747-0.064-1.16c0.078-0.329,0.247-0.638,0.259-0.979
	c0.006-0.174,0.074-0.268,0.217-0.347c0.11-0.061,0.209-0.145,0.304-0.229C16.865,14.516,16.842,14.49,16.641,14.289z
	 M12.503,19.896l-1.165,0l-0.412,0c0.005-0.028,0.012-0.052,0.02-0.053c0.07-0.009,0.142,0.003,0.214,0.007
	c0.031,0.002,0.062,0.005,0.093,0.002c0.028-0.003,0.054-0.022,0.081-0.023c0.489-0.009,0.978-0.015,1.467-0.024
	c0.353-0.007,0.705-0.014,1.058-0.029c0.097-0.004,0.135,0.024,0.134,0.117c0,0.001,0,0.002,0,0.002L12.503,19.896z M10.174,19.896
	L8.67,19.895c-0.001-0.209,0-0.419-0.002-0.628c-0.002-0.118,0.007-0.219,0.112-0.3c0.066-0.051,0.059-0.324,0.004-0.384
	c-0.002-0.002-0.004-0.005-0.007-0.006c-0.163-0.016-0.103-0.14-0.105-0.224c-0.004-0.219-0.022-0.183,0.187-0.186
	c0.335-0.005,0.67-0.008,1.005-0.016c0.072-0.002,0.094,0.022,0.09,0.089c-0.004,0.067,0,0.134,0.004,0.201
	c0.002,0.027,0.014,0.054,0.022,0.08c0.025-0.013,0.052-0.023,0.073-0.041c0.122-0.102,0.242-0.206,0.363-0.309
	c0.014-0.012,0.034-0.019,0.051-0.028c0.007,0.021,0.018,0.042,0.02,0.063c0.003,0.058,0.002,0.116,0.003,0.175
	c0.002,0.145,0.062,0.201,0.21,0.194c0.146-0.007,0.148-0.007,0.148,0.14c0.001,0.323,0,0.646,0,0.969c0.011,0,0.022,0,0.033,0
	c0,0.071,0,0.142,0,0.213L10.174,19.896z M5.088,19.894c-0.073-0.008-0.146-0.013-0.214-0.013c-0.084,0-0.162,0.016-0.24,0.031
	c0-0.088,0.002-0.175,0.001-0.263c0-0.085,0.04-0.091,0.097-0.057c0.099,0.059,0.177,0.047,0.275-0.019
	c0.08-0.054,0.191-0.086,0.289-0.087c0.641-0.007,1.282-0.003,1.923-0.003c0.317,0,0.634,0,0.952,0c0.128,0,0.181,0.072,0.162,0.2
	c-0.008,0.057,0.003,0.117,0.01,0.175c0.001,0.009,0.042,0.021,0.043,0.02c0.037-0.071,0.079-0.024,0.123-0.011
	c0.033,0.01,0.072,0.002,0.121,0.002c0,0.009,0,0.018,0,0.027L5.088,19.894z M4.067,22.487c0.099,0.079,0.204,0.15,0.31,0.219
	C4.319,22.849,4.27,23.03,4.279,23.24c-0.045-0.041-0.091-0.08-0.137-0.12c-0.021-0.018-0.042-0.035-0.063-0.053
	c0-0.002,0-0.004,0-0.006c0.009-0.127,0.015-0.254,0.009-0.375C4.086,22.627,4.08,22.559,4.067,22.487z M4.237,20.053
	c-0.164,0.1-0.562,0.386-0.717,0.882c-0.05,0.158-0.068,0.319-0.057,0.479c-0.136-0.083-0.281-0.121-0.422-0.138
	c0.031-0.035,0.052-0.078,0.083-0.113c0.017-0.02,0.044-0.033,0.069-0.044c0.073-0.032,0.08-0.067,0.021-0.122
	c-0.039-0.036-0.097-0.068-0.11-0.112c-0.016-0.055-0.003-0.123,0.012-0.182c0.017-0.071,0.055-0.138,0.071-0.21
	c0.012-0.051-0.005-0.094-0.075-0.105c-0.074-0.011-0.083-0.061-0.04-0.122c0.043-0.06,0.081-0.126,0.111-0.194
	c0.024-0.056,0.026-0.111-0.069-0.08c-0.015,0.005-0.036-0.007-0.054-0.028c0.02-0.004,0.041-0.012,0.061-0.011
	c0.058,0.002,0.086-0.011,0.059-0.076c-0.006-0.013,0.031-0.058,0.032-0.057c0.056,0.027,0.087-0.002,0.132-0.034
	c0.049-0.033,0.119-0.037,0.18-0.052c0.023-0.006,0.047-0.006,0.071-0.009c-0.007-0.023-0.014-0.046-0.023-0.067
	c-0.008-0.019-0.019-0.037-0.031-0.072c0.096,0.076,0.119,0.062,0.108-0.045c-0.005-0.051,0.033-0.107,0.044-0.138
	c0.074-0.01,0.131-0.017,0.189-0.024c-0.012-0.031-0.023-0.063-0.035-0.095c0.076-0.008,0.153-0.014,0.228-0.024
	c0.108-0.015,0.146,0.075,0.211,0.127c0.074,0.059,0.148,0.122,0.232,0.16c0.056,0.026,0.075,0.047,0.074,0.105
	c-0.001,0.089,0,0.177-0.001,0.266C4.466,19.945,4.346,19.986,4.237,20.053z M6.558,1.351c0.574,0,1.149,0.001,1.724,0.001
	c0,0.148,0,0.296,0,0.444c-0.008,0-0.016,0-0.024,0c0,0.308,0.001,0.617,0,0.925c0,0.155-0.033,0.182-0.18,0.126
	c-0.271-0.103-0.524-0.24-0.754-0.418C7.278,2.394,7.206,2.391,7.162,2.354c-0.11-0.093-0.21-0.197-0.314-0.297
	C6.826,2.035,6.81,2.004,6.784,1.988C6.637,1.9,6.503,1.781,6.31,1.807C6.292,1.809,6.27,1.78,6.25,1.766
	c0.016-0.014,0.03-0.031,0.049-0.041c0.135-0.072,0.225-0.157,0.213-0.333c-0.001-0.014,0.001-0.028,0-0.042H6.558z M12.69,18.716
	c-0.001,0-0.002,0-0.003,0c0-0.314,0.001-0.629-0.001-0.943c-0.001-0.068,0.023-0.091,0.093-0.092
	c0.457-0.004,0.914-0.009,1.371-0.019c0.091-0.002,0.116,0.027,0.116,0.114c0.001,0.468,0.006,0.936,0.015,1.404
	c0.002,0.09-0.027,0.125-0.116,0.111c-0.02-0.003-0.041-0.003-0.062-0.007c-0.084-0.016-0.136,0.006-0.125,0.101
	c0.008,0.076-0.011,0.105-0.098,0.083c-0.165-0.042-0.331-0.08-0.499-0.107c-0.134-0.021-0.183,0.019-0.23,0.142
	c-0.026,0.068-0.056,0.137-0.098,0.196c-0.021,0.03-0.074,0.059-0.11,0.057c-0.286-0.024-0.25,0.061-0.252-0.245
	C12.689,19.246,12.69,18.981,12.69,18.716z M10.846,18.472c-0.001,0.019-0.029,0.05-0.048,0.053
	c-0.178,0.028-0.282-0.069-0.266-0.246c0.005-0.059-0.007-0.153-0.046-0.177c-0.081-0.049-0.123,0.051-0.179,0.092
	c-0.096,0.069-0.188,0.144-0.307,0.235c0-0.083-0.003-0.149,0.001-0.215c0.005-0.081-0.02-0.118-0.11-0.11
	c-0.082,0.008-0.167,0.007-0.249-0.001c-0.027-0.003-0.07-0.04-0.071-0.062c-0.006-0.159-0.006-0.319,0.001-0.478
	c0.001-0.02,0.059-0.055,0.088-0.052c0.105,0.009,0.13-0.033,0.129-0.131c-0.003-0.232,0.01-0.463,0.01-0.695
	c0-0.209-0.006-0.419-0.015-0.628c-0.003-0.078,0.019-0.117,0.104-0.105c0.069,0.01,0.09-0.029,0.087-0.088
	c-0.003-0.067-0.009-0.134-0.009-0.2c0-0.101,0.049-0.147,0.15-0.148c0.247-0.003,0.247-0.003,0.247,0.244
	c0,0.195,0,0.195,0.202,0.188c0.053-0.002,0.107-0.003,0.16-0.003c0.161-0.001,0.165-0.001,0.186,0.152
	c0.028,0.196-0.007,0.387-0.069,0.571c-0.042,0.125-0.027,0.159,0.108,0.155c0.076-0.002,0.108,0.021,0.104,0.099
	c-0.005,0.11-0.01,0.222,0.002,0.331c0.013,0.119-0.043,0.21-0.1,0.301c-0.065,0.102-0.063,0.112,0.054,0.146
	c0.018,0.005,0.042,0.028,0.044,0.044c0.009,0.084,0.025,0.17,0.011,0.251c-0.006,0.035-0.075,0.083-0.116,0.084
	c-0.086,0.003-0.108,0.037-0.105,0.112C10.848,18.286,10.85,18.379,10.846,18.472z M9.506,18.06
	c-0.001,0.021-0.035,0.059-0.054,0.059c-0.439,0.001-0.878,0.001-1.318-0.007c-0.099-0.002-0.17-0.06-0.202-0.163
	c-0.03-0.096-0.08-0.187-0.115-0.282c-0.022-0.061-0.045-0.126-0.046-0.19c-0.005-0.23-0.002-0.46-0.002-0.69
	c-0.001,0-0.002,0-0.003,0c0-0.239,0.002-0.477-0.001-0.716c-0.001-0.076,0.019-0.108,0.105-0.108
	c0.579-0.001,1.158-0.005,1.736-0.014c0.1-0.002,0.13,0.033,0.129,0.124c-0.001,0.2,0.006,0.4,0.006,0.6
	c0,0.229-0.006,0.459-0.003,0.688c0.001,0.075-0.02,0.112-0.1,0.099c-0.111-0.018-0.137,0.034-0.133,0.133
	C9.513,17.747,9.511,17.904,9.506,18.06z M8.684,18.995C8.63,19.026,8.63,19.06,8.63,19.107c0.002,0.201,0.002,0.402,0.002,0.602
	c0,0.084-0.05,0.117-0.131,0.088c-0.041-0.014-0.111-0.024-0.116-0.046c-0.017-0.078-0.008-0.161-0.015-0.242
	c-0.002-0.021-0.023-0.055-0.039-0.057c-0.061-0.009-0.124-0.01-0.186-0.01c-0.828,0-1.655,0-2.483,0c-0.058,0-0.116,0-0.174,0
	c-0.006-0.012-0.011-0.023-0.017-0.035c0.078-0.065,0.157-0.131,0.236-0.196c0.02-0.016,0.047-0.027,0.061-0.047
	c0.085-0.12,0.147-0.263,0.255-0.357c0.126-0.11,0.226-0.253,0.393-0.322c0.052-0.022,0.073-0.113,0.114-0.168
	c0.077-0.104,0.1-0.223,0.12-0.345c0.006-0.039,0.028-0.076,0.041-0.114c0.021-0.06,0.063-0.122,0.055-0.179
	c-0.016-0.121,0.064-0.131,0.144-0.164c0.072-0.03,0.139-0.077,0.201-0.126c0.015-0.012,0.001-0.058,0-0.089
	c-0.003-0.07,0.003-0.112,0.103-0.102c0.078,0.008,0.164-0.026,0.242-0.054c0.073-0.026,0.139-0.071,0.211-0.104
	c0.054-0.024,0.089-0.016,0.086,0.056c-0.006,0.11,0.003,0.222-0.009,0.331c-0.017,0.148,0.051,0.27,0.106,0.397
	c0.023,0.053,0.05,0.104,0.07,0.158c0.038,0.104,0.113,0.166,0.219,0.17c0.145,0.005,0.29,0.011,0.435,0.012
	c0.058,0,0.08,0.02,0.078,0.076c-0.003,0.099-0.003,0.198,0.002,0.297c0.001,0.023,0.026,0.058,0.047,0.064
	c0.081,0.024,0.129,0.118,0.091,0.193c-0.009,0.017-0.027,0.042-0.021,0.051C8.8,18.927,8.73,18.969,8.684,18.995z M3.883,19.256
	c-0.028-0.036-0.037-0.05-0.048-0.061c-0.02-0.019-0.041-0.036-0.062-0.053c-0.004,0.031-0.019,0.066-0.009,0.091
	c0.017,0.044,0.05,0.082,0.077,0.124c-0.014,0.008-0.024,0.018-0.028,0.016c-0.075-0.036-0.15-0.077-0.174,0.052
	c-0.001,0.005-0.015,0.009-0.023,0.009c-0.134,0.002-0.036,0.052-0.047,0.074c-0.021,0.047-0.042,0.093-0.063,0.14
	c-0.068,0.037-0.134,0.079-0.205,0.109c-0.034,0.014-0.078,0.006-0.117,0.008c0.006-0.028,0.006-0.06,0.02-0.085
	c0.04-0.072,0.017-0.157-0.054-0.193c-0.035-0.017-0.067-0.04-0.105-0.064c0.042-0.013,0.087-0.014,0.097-0.032
	c0.046-0.089,0.037-0.136-0.024-0.195c0.007-0.004,0.014-0.012,0.019-0.012c0.039,0.005,0.095,0.03,0.114,0.014
	c0.058-0.048,0.115-0.107,0.146-0.173c0.032-0.067,0.034-0.148,0.045-0.224c0.002-0.016-0.014-0.034-0.022-0.051
	c-0.013,0.014-0.025,0.028-0.038,0.042c-0.025-0.039-0.063-0.075-0.07-0.116c-0.01-0.057-0.002-0.119,0.007-0.177
	c0.01-0.069,0.03-0.138,0.045-0.206c0.001-0.006,0.003-0.014,0-0.017c-0.07-0.069-0.133-0.149-0.214-0.202
	c-0.094-0.062-0.205-0.099-0.308-0.149c-0.013-0.006-0.019-0.027-0.028-0.042L2.812,17.88l0.002,0.002
	c0.023-0.011,0.045-0.021,0.068-0.032c-0.024-0.021-0.045-0.05-0.074-0.061c-0.037-0.014-0.089-0.002-0.117-0.023
	c-0.029-0.022-0.04-0.069-0.056-0.106c-0.01-0.023-0.021-0.047-0.023-0.072c-0.004-0.054,0-0.109-0.004-0.163
	c-0.004-0.061-0.012-0.122-0.022-0.183c-0.017-0.099-0.034-0.199-0.058-0.297c-0.016-0.065-0.07-0.083-0.124-0.046
	c-0.091,0.062-0.113-0.005-0.139-0.064c-0.023-0.053-0.043-0.107-0.059-0.163c-0.006-0.022-0.004-0.051,0.006-0.071
	c0.063-0.124,0.129-0.246,0.195-0.369c0.006-0.012,0.013-0.03,0.024-0.033c0.085-0.027,0.171-0.05,0.255-0.079
	c0.021-0.007,0.037-0.032,0.055-0.049c-0.023-0.02-0.065-0.059-0.066-0.057C2.595,16.09,2.55,16.02,2.499,15.979
	c-0.004-0.003-0.012,0-0.017-0.002c-0.005-0.002-0.008-0.006-0.017-0.014c0.043-0.027,0.073-0.086,0.133-0.021
	c0.008,0.009,0.043,0.009,0.052,0c0.014-0.014,0.024-0.041,0.021-0.059c-0.015-0.077,0.02-0.106,0.094-0.105
	c0.519,0.005,1.039,0.01,1.558,0.012c0.059,0,0.077,0.021,0.076,0.077c-0.003,0.143,0,0.285-0.003,0.428
	c-0.001,0.055,0.019,0.084,0.078,0.075c0.106-0.016,0.143,0.037,0.129,0.13c-0.014,0.099,0.029,0.124,0.124,0.118
	c0.126-0.008,0.253-0.002,0.364-0.002c-0.014,0.053-0.036,0.101-0.038,0.15c-0.005,0.128-0.004,0.256,0.001,0.384
	c0.003,0.066-0.022,0.092-0.087,0.083c-0.109-0.016-0.146,0.028-0.139,0.136c0.009,0.151-0.009,0.304,0.005,0.454
	c0.014,0.147-0.074,0.217-0.178,0.282c-0.083,0.052-0.089,0.074-0.013,0.139c0.022,0.019,0.048,0.034,0.074,0.048
	c0.144,0.08,0.149,0.187,0.033,0.313c-0.074,0.081-0.13,0.112-0.212,0.016c-0.015-0.018-0.054-0.024-0.081-0.022
	c-0.171,0.016-0.329,0.2-0.328,0.366c0,0.031-0.035,0.063-0.054,0.094c-0.011-0.027-0.019-0.055-0.033-0.08
	c-0.014-0.026-0.034-0.048-0.051-0.072c-0.018,0.019-0.039,0.036-0.052,0.058c-0.012,0.019-0.011,0.045-0.024,0.063
	C3.846,19.119,3.844,19.125,3.883,19.256z M3.789,19.196l-0.006-0.001l0.004-0.006L3.789,19.196z M3.285,19.068l0.002-0.006
	l0.005,0.004L3.285,19.068z M2.81,17.831c-0.001-0.001,0.001-0.006,0.002-0.009c0.004,0.003,0.009,0.006,0.013,0.009
	c0,0.003-0.001,0.006-0.001,0.008C2.819,17.836,2.814,17.835,2.81,17.831z M2.526,15.7c-0.011-0.088-0.028-0.175-0.026-0.263
	c0-0.016,0.077-0.036,0.12-0.046c0.024-0.006,0.067,0.017,0.076,0.007c0.04-0.048,0.094-0.102,0.099-0.157
	c0.007-0.097-0.007-0.191,0.1-0.248c0.02-0.011,0.039-0.041,0.04-0.064c0.01-0.13,0.018-0.26,0.019-0.39
	c0.001-0.07-0.019-0.141-0.018-0.211c0.001-0.053,0.132-0.113,0.186-0.099c0.031,0.008,0.067,0.001,0.096,0.001
	c0.002,0.02,0,0.049,0.009,0.074c0.002,0.006,0.048,0.01,0.055,0.001c0.018-0.022,0.033-0.051,0.034-0.079
	c0.004-0.086-0.138-0.245-0.223-0.267c-0.034-0.009-0.065-0.035-0.096-0.055c-0.045-0.029-0.09-0.059-0.134-0.09
	c-0.014-0.009-0.032-0.019-0.037-0.032c-0.029-0.077,0.034-0.236,0.108-0.274c0.059-0.03,0.125-0.049,0.181-0.083
	c0.044-0.027,0.081-0.066,0.115-0.105c0.054-0.06,0.101-0.127,0.157-0.185c0.018-0.018,0.059-0.024,0.088-0.022
	c0.05,0.004,0.098,0.024,0.148,0.026c0.062,0.003,0.107-0.018,0.078-0.095C3.696,13.033,3.706,13.015,3.709,13
	c0.014,0.012,0.042,0.026,0.041,0.036c-0.009,0.094,0.026,0.095,0.109,0.074c0.078-0.02,0.166-0.011,0.248,0
	c0.021,0.003,0.053,0.059,0.05,0.087c-0.011,0.109,0.031,0.141,0.14,0.136c0.19-0.009,0.38-0.003,0.57-0.002
	c0.185,0.001,0.175-0.026,0.174,0.166c-0.001,0.198,0.001,0.396-0.006,0.594c-0.003,0.091,0.026,0.129,0.121,0.116
	c0.064-0.009,0.118-0.004,0.112,0.087c-0.004,0.057-0.02,0.074-0.08,0.071c-0.109-0.006-0.148,0.038-0.148,0.147
	c0,0.151-0.001,0.303,0.001,0.454c0.001,0.059-0.021,0.085-0.084,0.081c-0.092-0.006-0.184-0.006-0.276-0.011
	c-0.064-0.003-0.092,0.023-0.091,0.087c0.002,0.157-0.001,0.314,0.001,0.472c0.001,0.057-0.022,0.075-0.076,0.095
	c-0.206,0.078-0.42,0.059-0.632,0.057c-0.368-0.002-0.736-0.006-1.104-0.011c-0.064-0.001-0.127,0.007-0.174-0.06
	C2.571,15.622,2.545,15.667,2.526,15.7z M2.528,15.703l-0.002,0c0,0,0,0,0,0L2.528,15.703z M3.145,14.191
	c0.006-0.008,0.011-0.018,0.019-0.023c0.004-0.003,0.014,0.004,0.044,0.013C3.173,14.187,3.159,14.189,3.145,14.191z M3.263,14.27
	c0-0.002,0.001-0.005,0.002-0.007c0.002,0.001,0.004,0.001,0.006,0.002c-0.001,0.002-0.001,0.005-0.002,0.007
	C3.266,14.271,3.263,14.27,3.263,14.27z M3.546,12.67c0.006-0.002,0.019,0.021,0.03,0.033c0.018,0.019,0.047,0.058,0.053,0.055
	c0.03-0.016,0.061-0.039,0.076-0.067c0.008-0.015-0.016-0.047-0.029-0.07c-0.007-0.012-0.022-0.031-0.03-0.03
	c-0.152,0.024-0.288-0.107-0.448-0.036c-0.119,0.053-0.245,0.091-0.371,0.127c-0.097,0.028-0.112-0.07-0.143-0.121
	c-0.033-0.054,0.028-0.055,0.067-0.067c0.019-0.006,0.039-0.037,0.043-0.059c0.012-0.063-0.024-0.138,0.052-0.186
	c0.003-0.002-0.009-0.043-0.022-0.047c-0.021-0.008-0.052-0.009-0.07,0.001c-0.068,0.04-0.133,0.058-0.212,0.001
	c0.026-0.011,0.044-0.018,0.061-0.026c0.082-0.038,0.093-0.097,0.037-0.167c-0.028-0.035-0.056-0.075-0.067-0.116
	c-0.015-0.054-0.017-0.112,0.078-0.076c0.021,0.008,0.072-0.024,0.085-0.05c0.014-0.026,0.006-0.069-0.005-0.1
	c-0.005-0.014-0.052-0.03-0.064-0.023c-0.09,0.057-0.122-0.017-0.155-0.068c-0.02-0.03-0.036-0.062-0.058-0.077
	c0.017-0.096,0.035-0.193,0.042-0.301c0.006-0.081,0.005-0.162,0.001-0.243c0.072-0.164,0.098-0.32,0.109-0.46
	c0.034-0.003,0.067-0.007,0.101-0.009c0.025-0.002,0.058-0.009,0.073,0.003c0.058,0.047,0.12,0.022,0.128-0.025
	c0.024-0.13,0.137-0.118,0.219-0.158c0.035-0.017,0.089-0.029,0.1-0.057c0.05-0.127,0.173-0.149,0.275-0.2
	c0.066-0.033,0.138-0.055,0.24-0.095c0,0.207,0.002,0.39-0.001,0.573c-0.001,0.066,0.018,0.096,0.09,0.093
	c0.095-0.004,0.191,0.006,0.285-0.003c0.091-0.008,0.146,0.014,0.154,0.112c-0.045,0.014-0.092,0.029-0.138,0.044
	c-0.008,0.003-0.018,0.004-0.024,0.01c-0.022,0.02,0.011,0.159,0.041,0.18c0,0,0,0-0.001,0.001c-0.044,0.022-0.09,0.04-0.13,0.067
	c-0.017,0.011-0.034,0.05-0.027,0.06c0.053,0.079-0.019,0.083-0.06,0.091c-0.176,0.033-0.246,0.19-0.151,0.345
	c0.054,0.088-0.03,0.245-0.144,0.28c-0.027,0.009-0.046,0.045-0.068,0.068c0.031,0.013,0.06,0.03,0.092,0.039
	c0.053,0.016,0.12-0.061,0.162,0.019c0.009,0.017-0.004,0.067-0.016,0.07c-0.077,0.022-0.095,0.077-0.065,0.133
	c0.015,0.027,0.08,0.027,0.15,0.047c0,0.041-0.01,0.119,0.004,0.194c0.006,0.035,0.057,0.062,0.088,0.092
	c-0.022,0.007-0.044,0.014-0.066,0.021c-0.042,0.012-0.123-0.033-0.106,0.064c0.018,0.097,0.094,0.146,0.176,0.124
	c0.029-0.008,0.068-0.024,0.087-0.012c0.017,0.011,0.028,0.063,0.016,0.081c-0.013,0.02-0.062,0.039-0.082,0.029
	c-0.062-0.028-0.084-0.024-0.102,0.049c-0.019,0.075-0.064,0.144-0.097,0.216c-0.017-0.029-0.031-0.078-0.051-0.081
	c-0.047-0.005-0.096,0.013-0.165,0.026c0.003,0.005-0.019-0.018-0.017-0.037c0.01-0.082-0.014-0.148-0.076-0.204
	c-0.01-0.009-0.019-0.036-0.014-0.041C3.503,12.689,3.525,12.677,3.546,12.67z M3.506,12.623c0.048,0.009,0.095,0.018,0.143,0.029
	c0.003,0.001,0.001,0.022,0.001,0.033c-0.009-0.001-0.019,0-0.027-0.004C3.584,12.662,3.545,12.642,3.506,12.623z M4.695,4.224
	C4.694,4.156,4.719,4.134,4.789,4.136c0.673,0.018,1.346,0.034,2.02,0.048C6.87,4.185,6.891,4.205,6.89,4.266
	C6.884,4.714,6.88,5.162,6.875,5.61c-0.001,0.078-0.069,0.107-0.15,0.058C6.647,5.621,6.581,5.6,6.52,5.687
	c-0.006,0.008-0.025,0.01-0.038,0.009C6.308,5.688,6.134,5.675,5.96,5.669C5.557,5.655,5.154,5.643,4.751,5.634
	C4.678,5.632,4.678,5.592,4.678,5.543c0-0.221,0-0.442,0-0.663c0.006,0,0.012,0,0.018,0C4.696,4.661,4.697,4.443,4.695,4.224z
	 M5.379,2.423c0.126,0.028,0.179-0.044,0.142-0.184C5.515,2.214,5.537,2.181,5.547,2.151C5.56,2.112,5.575,2.074,5.586,2.034
	c0.017-0.057,0.036-0.114,0.046-0.172C5.638,1.833,5.633,1.797,5.62,1.77C5.593,1.713,5.59,1.679,5.665,1.658
	c0.155-0.043,0.26,0.016,0.352,0.136c0.108,0.141,0.111,0.131,0.285,0.081c0.06-0.017,0.134,0.004,0.2,0.018
	c0.048,0.01,0.096,0.031,0.138,0.057c0.165,0.105,0.276,0.237,0.27,0.449C6.895,2.946,6.891,3.493,6.886,4.04
	C6.886,4.113,6.859,4.137,6.787,4.136c-0.501-0.01-1.002-0.019-1.503-0.027C5.185,4.108,5.146,4.073,5.149,3.968
	C5.16,3.619,5.16,3.27,5.166,2.921c0.001-0.031,0.022-0.062,0.032-0.093c0.017-0.05,0.03-0.102,0.05-0.151
	c0.02-0.05,0.045-0.097,0.07-0.145C5.337,2.494,5.358,2.459,5.379,2.423z M10.328,2.813c0.018-0.038,0.03-0.071,0.049-0.1
	c0.011-0.016,0.033-0.036,0.051-0.036c0.16,0.001,0.32,0.003,0.48,0.012c0.021,0.001,0.056,0.037,0.058,0.059
	c0.006,0.075,0.003,0.151-0.003,0.225c-0.005,0.063,0.034,0.102,0.095,0.082c0.059-0.019,0.096-0.004,0.112,0.058
	c0.011,0.042,0.03,0.082,0.046,0.122c0.031,0.079,0.046,0.145-0.027,0.225c-0.061,0.067-0.105,0.166-0.056,0.269
	c0.008,0.018,0.009,0.04,0.01,0.06c0.007,0.273,0.012,0.547,0.021,0.82c0.002,0.072-0.022,0.103-0.097,0.095
	c-0.166-0.018-0.299,0.037-0.412,0.159c-0.073,0.079-0.162,0.146-0.24,0.221c-0.037,0.035-0.064,0.044-0.1-0.001
	c-0.169-0.21-0.341-0.417-0.508-0.629c-0.033-0.042-0.046-0.099-0.064-0.15C9.701,4.185,9.626,4.13,9.5,4.126
	c-0.074-0.002-0.15,0-0.222-0.013c-0.031-0.006-0.081-0.05-0.079-0.074c0.022-0.324,0.052-0.647,0.08-0.97
	c0.011,0,0.022,0.001,0.033,0.001C9.385,3.247,9.523,3.302,9.72,3.278c0.087-0.011,0.162-0.025,0.228-0.076
	c0.033-0.025,0.051-0.076,0.086-0.09c0.038-0.016,0.088-0.004,0.132-0.002c0.022,0.001,0.047,0.015,0.065,0.008
	c0.048-0.02,0.135-0.24,0.116-0.286C10.342,2.819,10.326,2.811,10.328,2.813z M13.441,11.115c0,0.276,0,0.553,0,0.829
	c0,0.092-0.075,0.168-0.168,0.17c-0.039,0.001-0.077,0.001-0.116,0.003c-0.086,0.005-0.167,0.088-0.167,0.174
	c0,0.093,0.003,0.186,0.005,0.279c0.005,0.163-0.042,0.211-0.21,0.212c-0.235,0.001-0.235,0.001-0.231,0.234
	c0.004,0.214,0.004,0.214-0.219,0.216c-0.148,0.001-0.153-0.014-0.136-0.162c0.011-0.099-0.008-0.201-0.012-0.302
	c-0.002-0.066-0.006-0.133,0.003-0.198c0.009-0.066,0.011-0.117-0.044-0.173c-0.058-0.059-0.067-0.132,0.001-0.21
	c0.045-0.052,0.062-0.13,0.081-0.199c0.011-0.041-0.005-0.078-0.066-0.074c-0.062,0.005-0.125,0.004-0.187,0
	c-0.024-0.002-0.054-0.015-0.07-0.033c-0.043-0.047-0.076-0.047-0.118,0.002c-0.017,0.02-0.051,0.025-0.078,0.036
	c-0.01-0.021-0.027-0.042-0.027-0.063c-0.007-0.503-0.011-1.005-0.017-1.508c-0.001-0.051,0.009-0.082,0.073-0.082
	c0.025,0,0.049-0.034,0.076-0.048c0.026-0.013,0.054-0.03,0.082-0.03c0.303-0.003,0.605-0.001,0.908-0.004
	c0.175-0.002,0.35-0.008,0.525-0.017c0.067-0.003,0.089,0.021,0.088,0.084c-0.002,0.288-0.001,0.576-0.001,0.864
	C13.425,11.115,13.433,11.115,13.441,11.115z M14.855,13.364c0.129-0.003,0.257-0.007,0.386-0.011
	c0.031,0.057,0.064,0.113,0.099,0.168c0.004,0.007,0.009,0.014,0.013,0.02c-0.001,0.024-0.004,0.059-0.011,0.109
	c-0.042,0.296,0.011,0.542,0.102,0.741c-0.187,0.211-0.288,0.477-0.319,0.772c-0.053-0.068-0.1-0.139-0.16-0.2
	c-0.015-0.015-0.048-0.019-0.072-0.019c-0.19,0.004-0.38,0.007-0.569,0.017c-0.071,0.004-0.096-0.023-0.098-0.087
	c-0.012-0.378-0.026-0.756-0.034-1.134c0-0.022,0.04-0.061,0.065-0.063c0.103-0.011,0.207-0.014,0.311-0.015
	c0.054-0.001,0.071-0.019,0.069-0.073C14.629,13.368,14.63,13.369,14.855,13.364z M14.193,15.555
	c0.005,0.086-0.045,0.082-0.102,0.06c-0.055-0.021-0.23,0.019-0.269,0.062c-0.016,0.017-0.042,0.029-0.065,0.035
	c-0.025,0.006-0.053,0.002-0.08,0.003c-0.189,0.003-0.187,0.004-0.252,0.181c-0.019,0.05-0.059,0.092-0.087,0.139
	c-0.04,0.067-0.081,0.133-0.116,0.202c-0.024,0.048-0.048,0.078-0.112,0.076c-0.121-0.005-0.243-0.003-0.365,0.001
	c-0.068,0.003-0.098-0.017-0.094-0.088c0.005-0.087-0.003-0.175,0.002-0.262c0.004-0.067-0.025-0.088-0.088-0.086
	c-0.068,0.002-0.136,0-0.205,0c-0.107,0-0.146-0.034-0.155-0.141c-0.005-0.055-0.004-0.111-0.002-0.166
	c0.002-0.051-0.01-0.083-0.068-0.104c-0.107-0.039-0.212-0.066-0.322-0.018c-0.06,0.026-0.071,0.003-0.071-0.051
	c-0.002-0.273-0.007-0.547-0.008-0.82c-0.001-0.131,0.068-0.196,0.2-0.2c0.033-0.001,0.065-0.002,0.098-0.001
	c0.076,0.002,0.154,0.007,0.142-0.115c0.011,0.002,0.021,0.005,0.032,0.007c0.005,0.036,0.02,0.074,0.015,0.109
	c-0.019,0.128,0.048,0.21,0.181,0.208c0.558-0.008,1.115-0.017,1.673-0.029c0.061-0.001,0.087,0.013,0.088,0.074
	c0.007,0.244,0.016,0.487,0.023,0.731C14.19,15.427,14.189,15.491,14.193,15.555z M11.704,15.758c0.003,0.1-0.026,0.13-0.129,0.129
	c-0.362-0.002-0.723,0.008-1.085,0.008c-0.021,0-0.059-0.041-0.061-0.066c-0.008-0.092-0.006-0.186-0.006-0.279
	c0-0.061-0.025-0.089-0.091-0.086c-0.092,0.005-0.184-0.002-0.276,0.003c-0.072,0.004-0.092-0.025-0.092-0.092
	c0.001-0.241-0.003-0.483-0.004-0.724c-0.001-0.137-0.099-0.26-0.24-0.301c-0.099-0.028-0.126-0.075-0.082-0.169
	c0.031-0.067,0.03-0.119-0.018-0.176c-0.01-0.012,0.003-0.051,0.015-0.072c0.024-0.044,0.053-0.086,0.084-0.126
	c0.015-0.02,0.037-0.043,0.06-0.048c0.093-0.019,0.179-0.04,0.242-0.122c0.043-0.056,0.197-0.034,0.275,0.026
	c0.018,0.014,0.044,0.017,0.067,0.026c0.008-0.028,0.027-0.06,0.021-0.085c-0.041-0.162-0.021-0.201,0.142-0.272
	c0.03-0.013,0.057-0.034,0.097-0.059c0.072,0.093,0.144,0.187,0.217,0.281c0.009,0.011,0.023,0.031,0.031,0.029
	c0.15-0.037,0.259,0.109,0.408,0.084c0.038-0.006,0.082,0.031,0.125,0.034c0.053,0.004,0.107-0.008,0.189-0.015
	c0.032,0.089,0.061,0.222,0.126,0.333c0.065,0.111,0.168,0.2,0.265,0.311c-0.039,0.002-0.062,0.003-0.084,0.005
	c-0.156,0.012-0.217,0.074-0.215,0.229C11.688,14.961,11.692,15.359,11.704,15.758z M7.898,15.486
	c-0.106,0.019-0.135-0.023-0.131-0.126c0.008-0.212,0.002-0.425-0.001-0.637c-0.001-0.063,0.018-0.09,0.085-0.086
	c0.092,0.005,0.184,0.004,0.276-0.001c0.023-0.001,0.045-0.03,0.068-0.046c-0.021-0.015-0.045-0.028-0.064-0.045
	c-0.052-0.047-0.108-0.092-0.149-0.148c-0.01-0.014,0.03-0.068,0.053-0.099c0.025-0.034,0.056-0.064,0.085-0.095
	c0.116,0.031,0.244-0.086,0.226-0.208c-0.007-0.049-0.018-0.097-0.025-0.146c-0.002-0.017,0.003-0.034,0.004-0.054
	c0.043,0.003,0.085,0.014,0.122,0.007c0.035-0.007,0.065-0.033,0.102-0.053c0,0.022,0,0.041,0,0.061
	c0.002,0.115,0.052,0.185,0.161,0.167c0.061-0.01,0.11-0.1,0.162-0.156c0.02-0.022,0.029-0.062,0.052-0.071
	c0.055-0.022,0.089-0.014,0.085,0.064c-0.002,0.039,0.045,0.084,0.079,0.118c0.007,0.007,0.055-0.035,0.08-0.031
	c0.054,0.01,0.143,0.026,0.151,0.056c0.023,0.09,0.059,0.111,0.149,0.095c0.065-0.012,0.123,0.009,0.096,0.103
	c-0.014,0.048-0.01,0.103-0.002,0.153c0.01,0.059,0.033,0.106,0.118,0.095c0.083-0.011,0.223,0.134,0.224,0.216
	c0.005,0.396,0.009,0.792,0.017,1.187c0.002,0.078-0.018,0.104-0.103,0.104c-0.579,0.001-1.158,0.007-1.736,0.015
	c-0.076,0.001-0.108-0.016-0.101-0.096c0.007-0.084-0.004-0.169,0.002-0.253C7.99,15.506,7.971,15.473,7.898,15.486z M7.729,16.5
	c0.004,0.077-0.034,0.085-0.096,0.085c-0.386-0.001-0.772,0.002-1.158,0.002c-0.572,0-1.144-0.004-1.716-0.001
	c-0.089,0-0.128-0.024-0.115-0.113c0.013-0.095-0.028-0.145-0.128-0.139c-0.057,0.003-0.078-0.02-0.077-0.077
	c0.004-0.143,0.007-0.285,0.001-0.428c-0.003-0.078,0.033-0.108,0.103-0.103c0.084,0.006,0.097-0.035,0.095-0.106
	c-0.004-0.154,0.001-0.309-0.002-0.463c-0.001-0.062,0.02-0.083,0.083-0.079c0.089,0.006,0.178,0.004,0.267,0.009
	c0.074,0.005,0.108-0.018,0.105-0.097c-0.006-0.157-0.001-0.314-0.003-0.471c-0.001-0.097,0.026-0.122,0.127-0.111
	c0.054,0.006,0.11,0.005,0.164,0.007c0.009,0,0.023-0.001,0.025,0.004c0.07,0.133,0.26,0.142,0.312,0.293
	c0.007,0.021,0.037,0.051,0.054,0.049c0.179-0.02,0.209,0.149,0.309,0.229c0.019,0.015,0.039,0.029,0.061,0.037
	c0.038,0.013,0.091,0.01,0.056,0.075c-0.004,0.008-0.003,0.028,0.003,0.032c0.077,0.058,0.16,0.109,0.232,0.172
	c0.047,0.041,0.1,0.095,0.111,0.151c0.014,0.07,0.051,0.067,0.098,0.067c0.205,0.001,0.41,0,0.614,0c0,0.001,0,0.002,0,0.002
	c0.199,0,0.398,0.003,0.597-0.002c0.072-0.002,0.094,0.022,0.089,0.09c-0.005,0.072-0.003,0.146,0.001,0.218
	c0.004,0.065-0.014,0.103-0.088,0.089c-0.112-0.02-0.143,0.027-0.135,0.133C7.73,16.202,7.721,16.351,7.729,16.5z M5.05,13.181
	c0.001,0.076-0.018,0.109-0.105,0.107c-0.219-0.006-0.439-0.004-0.659-0.001c-0.06,0.001-0.086-0.015-0.084-0.078
	c0.004-0.143,0.03-0.146-0.158-0.147c-0.05,0-0.1,0-0.166,0c0.031-0.088,0.058-0.163,0.087-0.247c0.03,0.062,0.062,0.11,0.105,0.016
	c0.005-0.01,0.013-0.023,0.022-0.026c0.116-0.035,0.048-0.106,0.021-0.153C4.104,12.63,4.037,12.629,4,12.637
	c-0.088,0.021-0.119,0.003-0.143-0.116c0.066,0.008,0.128,0.019,0.19,0.019c0.025,0,0.062-0.017,0.073-0.037
	c0.014-0.026,0.008-0.063,0.01-0.096c-0.028,0.002-0.055,0.006-0.083,0.006c-0.03,0-0.063,0.004-0.09-0.006
	c-0.011-0.004-0.007-0.043-0.01-0.066c-0.01-0.075-0.018-0.15-0.033-0.224c-0.001-0.005-0.054,0-0.082,0.001
	c-0.019,0.001-0.038,0.002-0.057,0.003c0.005-0.021,0.007-0.058,0.017-0.06c0.059-0.014,0.115-0.047,0.086-0.103
	c-0.029-0.055-0.097-0.091-0.148-0.135c-0.001-0.001-0.004-0.001-0.006-0.001c0.015-0.021,0.025-0.049,0.045-0.063
	c0.107-0.076,0.085-0.17,0.043-0.268c-0.039-0.091,0.046-0.232,0.142-0.262c0.049-0.015,0.17,0.002,0.101-0.121
	c-0.003-0.006,0.018-0.033,0.033-0.041c0.122-0.065,0.124-0.076,0.086-0.198c-0.006-0.021,0.04-0.061,0.068-0.087
	c0.031-0.029,0.068-0.052,0.101-0.077c0.359,0,0.735,0.001,1.111,0c0.061,0,0.064,0.036,0.063,0.081
	c-0.003,0.221-0.006,0.442-0.006,0.663c0,0.067-0.022,0.1-0.093,0.088c-0.106-0.018-0.137,0.026-0.135,0.129
	c0.005,0.218-0.006,0.436-0.005,0.654c0,0.072-0.026,0.103-0.099,0.092c-0.101-0.016-0.133,0.022-0.129,0.123
	C5.057,12.75,5.048,12.965,5.05,13.181z M3.987,12.471c0.035-0.008,0.07-0.016,0.112-0.025C4.078,12.542,4.026,12.478,3.987,12.471z
	 M5.097,12.525c0-0.072,0.045-0.075,0.094-0.068c0.11,0.016,0.137-0.034,0.135-0.133c-0.004-0.218,0.004-0.437,0.002-0.655
	C5.329,11.6,5.354,11.571,5.422,11.58c0.105,0.015,0.149-0.029,0.135-0.132c-0.01-0.074,0.026-0.099,0.098-0.093
	c0.041,0.004,0.083,0.001,0.125,0.001c0.151,0,0.147,0.001,0.168,0.148c0.004,0.028,0.052,0.07,0.081,0.071
	c0.118,0.004,0.237-0.008,0.355-0.011c0.261-0.006,0.522-0.009,0.783-0.016c0.058-0.001,0.08,0.021,0.079,0.077
	c-0.001,0.134,0.004,0.268,0.001,0.402c-0.001,0.045-0.023,0.089-0.031,0.134C7.205,12.225,7.2,12.29,7.188,12.354
	c-0.007,0.039-0.02,0.077-0.029,0.116c-0.013,0.053-0.048,0.115-0.032,0.158c0.041,0.104-0.037,0.135-0.088,0.191
	c-0.029,0.032-0.044,0.078-0.061,0.12c-0.044,0.103-0.085,0.207-0.132,0.308c-0.006,0.013-0.042,0.019-0.063,0.019
	c-0.284,0.001-0.569,0.001-0.853,0.001c0,0.006,0,0.012,0,0.018c-0.119,0-0.238,0.003-0.356-0.001
	c-0.071-0.003-0.094,0.026-0.093,0.092c0.002,0.227-0.003,0.454,0.002,0.681c0.002,0.086-0.029,0.114-0.113,0.107
	c-0.068-0.005-0.137-0.003-0.205-0.001c-0.062,0.003-0.083-0.024-0.083-0.083C5.089,13.561,5.094,13.043,5.097,12.525z M6.253,8.12
	C6.27,8.122,6.298,8.129,6.3,8.124c0.052-0.113,0.185-0.109,0.263-0.182c0.011-0.01,0.008-0.052-0.004-0.066
	C6.495,7.798,6.502,7.757,6.59,7.702C6.659,7.66,6.725,7.612,6.794,7.57C6.81,7.56,6.835,7.564,6.855,7.565
	c0.076,0.003,0.154,0.011,0.144-0.104C6.998,7.45,7.021,7.426,7.03,7.427C7.129,7.44,7.12,7.369,7.156,7.309
	c0.081-0.137,0.077-0.293,0.14-0.429c0.022-0.047,0.086-0.116,0.12-0.11c0.097,0.016,0.117-0.067,0.171-0.101
	C7.717,6.587,7.827,6.47,8,6.485c0.038,0.003,0.078,0.014,0.115,0.009c0.332-0.048,0.532,0.17,0.751,0.353
	C8.882,6.86,8.905,6.87,8.926,6.871C9.03,6.876,9.134,6.879,9.237,6.879c0.051,0,0.076,0.012,0.076,0.068
	c0,0.031,0.018,0.064,0.032,0.094c0.087,0.184,0.019,0.352-0.042,0.528C9.271,7.666,9.279,7.778,9.283,7.883
	c0.001,0.022,0.064,0.04,0.095,0.063C9.395,7.96,9.415,7.98,9.417,7.999C9.419,8.013,9.397,8.041,9.38,8.045
	c-0.125,0.03-0.206,0.107-0.269,0.214C9.079,8.315,9.026,8.355,8.95,8.341C8.809,8.314,8.719,8.382,8.637,8.486
	c-0.039,0.049-0.082,0.12-0.171,0.105C8.452,8.589,8.431,8.599,8.421,8.61C8.382,8.655,8.319,8.701,8.314,8.751
	C8.301,8.867,8.201,8.833,8.145,8.872c-0.027,0.019-0.059,0.051-0.063,0.08C8.075,9.005,8.058,9.026,8.005,9.02
	C7.819,8.999,7.746,9.137,7.659,9.256c-0.005,0.007-0.005,0.022-0.01,0.023c-0.132,0.03-0.203,0.183-0.357,0.168
	C7.247,9.443,7.202,9.448,7.158,9.443c-0.02-0.002-0.054-0.018-0.055-0.03c-0.007-0.141-0.12-0.147-0.216-0.201
	C6.789,9.156,6.633,9.15,6.599,8.987c-0.011-0.055-0.111-0.093-0.17-0.139C6.414,8.837,6.388,8.826,6.386,8.813
	C6.375,8.684,6.285,8.618,6.194,8.537c-0.072-0.063-0.16-0.095-0.227-0.158c-0.02-0.019-0.01-0.066-0.014-0.1
	C5.985,8.275,6.021,8.26,6.046,8.271c0.109,0.045,0.109,0.047,0.109-0.067C6.23,8.223,6.283,8.214,6.253,8.12z M6.205,8.076
	c0.003-0.003,0.007-0.007,0.01-0.01c0.005,0.01,0.011,0.02,0.016,0.03C6.222,8.09,6.214,8.083,6.205,8.076z M7.727,6.201
	c-0.015-0.054,0.003-0.06,0.048-0.075c0.044-0.014,0.078-0.055,0.119-0.078c0.06-0.033,0.122-0.086,0.183-0.085
	C8.171,5.963,8.245,5.94,8.304,5.877c0.094-0.101,0.181-0.209,0.272-0.314c0.005-0.006,0.01-0.013,0.017-0.018
	C8.676,5.495,8.676,5.495,8.65,5.419c0.03-0.003,0.06-0.007,0.091-0.01C8.721,5.365,8.703,5.321,8.684,5.28
	c0.074,0.003,0.141-0.009,0.19-0.085c0.031-0.047,0.061-0.125,0.154-0.083c0.015,0.007,0.055-0.019,0.07-0.039
	c0.073-0.097,0.14-0.198,0.21-0.298c0.003-0.005,0.013-0.01,0.012-0.012C9.275,4.638,9.409,4.578,9.433,4.477
	c0.005-0.019,0.043-0.036,0.068-0.045c0.052-0.019,0.106-0.037,0.16-0.045c0.021-0.003,0.052,0.018,0.067,0.037
	c0.183,0.229,0.361,0.46,0.547,0.687c0.038,0.046,0.045,0.075,0.017,0.128c-0.035,0.066-0.066,0.138-0.077,0.211
	c-0.015,0.094,0.008,0.196-0.017,0.286c-0.023,0.085-0.087,0.16-0.14,0.252c0.064,0.004,0.118,0.008,0.208,0.014
	c-0.109,0.065-0.149,0.13-0.101,0.223c0.003,0.006-0.012,0.025-0.022,0.035C10.064,6.334,9.984,6.41,9.901,6.483
	c-0.044,0.04-0.088,0.063-0.16,0.061C9.657,6.542,9.572,6.589,9.485,6.608C9.404,6.626,9.319,6.632,9.238,6.652
	C9.21,6.659,9.179,6.686,9.165,6.712C9.145,6.75,9.139,6.83,9.127,6.83C9.053,6.831,8.966,6.835,8.907,6.8
	c-0.15-0.088-0.285-0.198-0.431-0.293C8.432,6.478,8.375,6.462,8.322,6.457C8.195,6.447,8.066,6.436,7.94,6.448
	c-0.077,0.008-0.152,0.053-0.223,0.09C7.61,6.595,7.625,6.593,7.586,6.487c-0.035-0.095,0.01-0.11,0.078-0.129
	C7.752,6.333,7.744,6.262,7.727,6.201z M13.19,3.985c0.037,0.266,0.081,0.531,0.125,0.797c0.039,0.235,0.078,0.471,0.112,0.707
	c0.01,0.071,0.015,0.145,0.02,0.218c0.003,0.039,0.009,0.086,0.013,0.127c-0.182-0.011-0.365-0.021-0.548-0.031
	c-0.067-0.004-0.099-0.024-0.122-0.102c-0.042-0.144-0.125-0.275-0.18-0.416c-0.028-0.072-0.028-0.154-0.05-0.229
	c-0.008-0.025-0.05-0.061-0.069-0.057c-0.044,0.009-0.083,0.039-0.148,0.074c0-0.191,0-0.37,0-0.55c0-0.013,0.007-0.026,0.011-0.04
	c0.118,0.051,0.135-0.12,0.241-0.105c0.023,0.003,0.057-0.028,0.078-0.051c0.133-0.144,0.264-0.29,0.397-0.434
	c0.012-0.013,0.025-0.03,0.04-0.032c0.027-0.004,0.04-0.021,0.06-0.033C13.176,3.88,13.183,3.932,13.19,3.985z M13.311,6.449
	c0.031-0.003,0.093,0.022,0.093,0.031c-0.003,0.051-0.007,0.113-0.037,0.15c-0.085,0.103-0.208,0.178-0.176,0.344
	c0.018,0.096,0.004,0.197,0.004,0.296c0,0.159-0.036,0.193-0.183,0.25c-0.091,0.035-0.173,0.098-0.25,0.159
	c-0.02,0.016-0.013,0.072-0.011,0.109c0.004,0.062-0.016,0.092-0.084,0.088c-0.055-0.004-0.112,0.007-0.102-0.077
	c0.008-0.064-0.034-0.068-0.084-0.068c-0.217,0.001-0.433,0.002-0.65,0.002c-0.155,0-0.238-0.073-0.258-0.223
	c-0.018-0.129-0.107-0.215-0.237-0.224c-0.065-0.005-0.132,0.001-0.195-0.012c-0.03-0.006-0.064-0.039-0.076-0.068
	c-0.017-0.044,0.005-0.073,0.06-0.061c0.008,0.002,0.019-0.001,0.025-0.006c0.068-0.065,0.134-0.131,0.202-0.195
	c0.021-0.02,0.044-0.048,0.069-0.051c0.096-0.013,0.078-0.065,0.043-0.115c-0.047-0.069-0.093-0.131-0.013-0.207
	c0.008-0.008-0.005-0.034-0.001-0.049c0.008-0.028,0.014-0.067,0.034-0.078c0.057-0.032,0.121-0.052,0.181-0.078
	c0.012-0.005,0.023-0.016,0.03-0.027c0.041-0.067,0.077-0.138,0.125-0.199c0.009-0.011,0.053-0.085,0.106-0.01
	c0.02,0.028,0.096,0.022,0.146,0.019c0.011-0.001,0.032-0.052,0.028-0.077c-0.013-0.076,0.038-0.112,0.093-0.122
	c0.078-0.014,0.161-0.012,0.241-0.004c0.088,0.009,0.175,0.031,0.261,0.05c0.063,0.014,0.098-0.001,0.092-0.071
	c-0.006-0.07,0.023-0.085,0.096-0.078c0.194,0.019,0.389,0.029,0.583,0.04c0.009,0.099,0.026,0.201,0.047,0.31
	c-0.013,0-0.021,0-0.037,0c-0.054,0.002-0.122-0.026-0.147,0.057c-0.003,0.009-0.038,0.013-0.057,0.011
	c-0.057-0.005-0.075,0.015-0.08,0.073C13.183,6.428,13.219,6.457,13.311,6.449z M12.138,8.166c-0.059-0.012-0.085,0.021-0.085,0.081
	c0,0.059,0.015,0.117-0.057,0.167c-0.031,0.021-0.013,0.115-0.015,0.175c-0.003,0.086-0.073,0.166-0.16,0.169
	c-0.057,0.002-0.069,0.027-0.07,0.076c-0.002,0.093-0.011,0.186-0.011,0.279c0,0.063-0.023,0.089-0.089,0.087
	c-0.139-0.004-0.279,0-0.418-0.005c-0.064-0.002-0.09,0.018-0.089,0.084c0.001,0.11-0.01,0.221-0.008,0.331
	c0.001,0.072-0.025,0.104-0.099,0.093c-0.096-0.015-0.134,0.02-0.126,0.118c0.007,0.084-0.008,0.169-0.007,0.253
	c0.001,0.064-0.024,0.086-0.089,0.086c-0.296-0.001-0.593,0.002-0.889,0.003c-0.102,0-0.204,0-0.305,0
	c0.121-0.066,0.119-0.072,0.029-0.176c-0.044-0.051-0.076-0.114-0.1-0.176c-0.006-0.015,0.05-0.076,0.068-0.073
	c0.088,0.018,0.103-0.025,0.089-0.09C9.689,9.572,9.68,9.525,9.788,9.511C9.871,9.5,9.879,9.417,9.853,9.342
	c0.075,0.02,0.249-0.037,0.288-0.103c0.013-0.022,0.002-0.06-0.002-0.089c-0.009-0.069-0.061-0.148,0.057-0.181
	c0.012-0.003,0.024-0.046,0.018-0.065c-0.01-0.032-0.027-0.072-0.054-0.088c-0.124-0.071-0.081-0.112,0.021-0.152
	c0.017-0.007,0.031-0.027,0.042-0.044c0.076-0.118,0.153-0.236,0.225-0.356c0.018-0.03,0.019-0.069,0.029-0.109
	c0.031,0.041,0.05,0.086,0.084,0.104c0.022,0.012,0.067-0.01,0.098-0.024c0.016-0.007,0.035-0.03,0.035-0.045
	c0-0.091,0.062-0.132,0.131-0.171c0.055-0.031,0.065-0.07,0.019-0.121c-0.037-0.041-0.068-0.087-0.095-0.122
	c0.026-0.068,0.236,0.045,0.122-0.111c0.039-0.045,0.103-0.087,0.099-0.123c-0.007-0.075-0.048-0.147-0.08-0.218
	c-0.007-0.015-0.037-0.019-0.051-0.033c-0.011-0.011-0.02-0.032-0.017-0.044c0.003-0.012,0.025-0.027,0.038-0.027
	c0.013,0,0.034,0.016,0.037,0.029c0.022,0.097,0.072,0.078,0.16,0.076c0.144-0.004,0.325-0.072,0.43,0.095
	c0.038,0.061,0.046,0.141,0.067,0.212c0.005,0.016-0.001,0.045,0.008,0.049c0.066,0.034,0.133,0.087,0.202,0.091
	c0.21,0.012,0.421,0.002,0.632,0.005c0.04,0,0.114,0.015,0.115,0.029c0.007,0.057,0.013,0.135-0.02,0.173
	C12.4,8.079,12.31,8.199,12.138,8.166z M12.208,8.317l-0.001,0.003l-0.007-0.003L12.208,8.317z M12.092,12.381
	c0.071,0.088,0.066,0.171,0.046,0.265c-0.003,0.014-0.002,0.029-0.001,0.044c0.007,0.161,0.011,0.323,0.024,0.484
	c0.003,0.039,0.04,0.074,0.046,0.113c0.007,0.045,0.004,0.095-0.008,0.139c-0.004,0.014-0.05,0.027-0.075,0.025
	c-0.066-0.005-0.133-0.034-0.19,0.028c-0.008,0.008-0.031,0.006-0.046,0.003c-0.051-0.01-0.101-0.031-0.151-0.03
	c-0.015,0-0.028,0.061-0.045,0.099c-0.062,0.032-0.138,0.072-0.214,0.111c-0.005,0.003-0.012,0.006-0.016,0.005
	c-0.094-0.031-0.187-0.062-0.28-0.095c-0.009-0.003-0.02-0.025-0.021-0.024c-0.09,0.059-0.154-0.063-0.239-0.031
	c-0.008-0.025-0.013-0.069-0.023-0.07c-0.093-0.008-0.099-0.101-0.154-0.144c-0.045-0.035-0.095-0.065-0.145-0.092
	c-0.013-0.007-0.042-0.002-0.054,0.008c-0.037,0.034-0.068,0.074-0.108,0.118c-0.019-0.023-0.028-0.041-0.043-0.051
	c-0.015-0.01-0.035-0.013-0.052-0.019c-0.006,0.017-0.013,0.034-0.017,0.052c-0.012,0.055-0.023,0.109-0.032,0.165
	c-0.003,0.021-0.003,0.044,0.003,0.065c0.007,0.026,0.022,0.05,0.033,0.075l0.004,0.002l-0.003-0.001
	c-0.087-0.081-0.188-0.083-0.295-0.05c-0.07,0.022-0.106,0-0.106-0.077c-0.001-0.48-0.003-0.961-0.005-1.441
	c0-0.052,0.017-0.072,0.072-0.072c0.068,0,0.136-0.006,0.202-0.018c0.028-0.005,0.052-0.033,0.068-0.043
	c0.028,0.015,0.057,0.044,0.087,0.044c0.466-0.002,0.932-0.007,1.398-0.015c0.035-0.001,0.07-0.025,0.099-0.036
	c0.036,0.011,0.075,0.029,0.115,0.034c0.05,0.006,0.101-0.001,0.151,0.003c0.024,0.002,0.052,0.01,0.067,0.026
	c0.007,0.007-0.017,0.038-0.018,0.059C12.155,12.156,11.986,12.251,12.092,12.381z M9.95,13.642l-0.007,0l0.004-0.007L9.95,13.642z
	 M8.995,13.691c-0.068,0.003-0.163-0.004-0.17,0.12c-0.002,0.045-0.072,0.117-0.117,0.123c-0.076,0.009-0.126-0.047-0.117-0.136
	c0.003-0.033-0.012-0.068-0.019-0.103c-0.029,0.015-0.057,0.036-0.088,0.044c-0.037,0.01-0.079,0.019-0.114,0.01
	c-0.064-0.016-0.092,0.002-0.09,0.065c0.001,0.037,0.002,0.076,0.014,0.111c0.025,0.076,0.014,0.144-0.041,0.201
	c-0.02,0.021-0.055,0.028-0.083,0.042c-0.004-0.036-0.025-0.086-0.009-0.104c0.088-0.095,0.035-0.161-0.033-0.231
	c-0.028-0.029-0.056-0.064-0.067-0.101c-0.007-0.024,0.008-0.073,0.027-0.082c0.057-0.026,0.056-0.063,0.008-0.076
	c-0.135-0.037-0.142-0.162-0.197-0.253c-0.031-0.051-0.048-0.112-0.06-0.171c-0.016-0.076-0.02-0.155-0.031-0.232
	c-0.017-0.12-0.036-0.24-0.055-0.361c-0.006-0.042-0.014-0.083-0.02-0.121c0.264,0,0.519-0.003,0.773,0.002
	c0.088,0.002,0.132-0.022,0.115-0.113c-0.018-0.095,0.026-0.117,0.117-0.116c0.338,0.002,0.677-0.002,1.015-0.009
	c0.096-0.002,0.131,0.021,0.131,0.126c-0.002,0.419,0.007,0.838,0.013,1.257c0.001,0.107-0.04,0.141-0.148,0.113
	c-0.045-0.012-0.065-0.011-0.069,0.042c-0.005,0.069-0.01,0.143-0.109,0.152c-0.011,0.001-0.029,0.027-0.027,0.039
	c0.012,0.095-0.07,0.072-0.115,0.08c-0.016,0.003-0.05-0.047-0.062-0.078c-0.029-0.071-0.159-0.114-0.222-0.07
	c-0.016,0.011-0.048,0.025-0.054,0.019c-0.019-0.018-0.038-0.044-0.04-0.068C9.045,13.763,9.072,13.688,8.995,13.691z M9.881,12.049
	c0.002,0.08-0.009,0.114-0.11,0.112c-0.362-0.006-0.724,0.005-1.086,0.004c-0.098,0-0.131,0.037-0.113,0.124
	c0.017,0.084-0.016,0.106-0.098,0.104c-0.365-0.008-0.729-0.013-1.094-0.016c-0.06-0.001-0.077-0.026-0.077-0.079
	c0-0.221,0-0.442-0.003-0.663c-0.001-0.063,0.022-0.09,0.089-0.087c0.139,0.006,0.279,0.005,0.418,0.012
	c0.077,0.004,0.113-0.012,0.112-0.098c-0.005-0.317-0.001-0.634-0.002-0.951c-0.001-0.142-0.004-0.138,0.145-0.135
	c0.219,0.005,0.438,0.004,0.657,0.002c0.132-0.001,0.265-0.017,0.36,0.106c0.031,0.04,0.078,0.073,0.124,0.098
	c0.041,0.022,0.09,0.041,0.136,0.041c0.045,0,0.051,0.003,0.072,0.05c0.051,0.119-0.016,0.24,0.026,0.351
	c0.053,0.141,0.102,0.288,0.248,0.373c0.016,0.009,0.031,0.048,0.024,0.061c-0.087,0.161-0.009,0.191,0.098,0.298
	c0.052,0.052,0.105,0.103,0.157,0.155c-0.014,0.004-0.028,0.009-0.042,0.013C9.906,11.966,9.88,12.008,9.881,12.049z M9.388,6.994
	c-0.011-0.029-0.014-0.063-0.03-0.088C9.339,6.879,9.309,6.858,9.284,6.835C9.26,6.812,9.237,6.79,9.214,6.768
	C9.239,6.746,9.261,6.714,9.29,6.705C9.396,6.675,9.504,6.65,9.613,6.627c0.056-0.012,0.116-0.009,0.17-0.026
	c0.051-0.016,0.101-0.043,0.142-0.077c0.09-0.075,0.174-0.156,0.259-0.237c0.018-0.018,0.042-0.045,0.04-0.065
	c-0.017-0.161,0.086-0.27,0.166-0.389c0.032-0.048,0.065-0.066,0.111-0.013c0.045,0.052,0.088,0.047,0.142,0.001
	c0.034-0.029,0.111-0.062,0.13-0.047c0.056,0.044,0.132,0.113,0.13,0.17c-0.003,0.123,0.118,0.16,0.142,0.256
	c0.121-0.013,0.121,0.087,0.162,0.156c0.014,0.023,0.076,0.025,0.116,0.026c0.047,0.002,0.083,0.001,0.043,0.06
	c-0.006,0.009-0.018,0.027-0.015,0.029c0.09,0.094-0.065,0.238,0.068,0.324c0.006,0.004,0.003,0.037-0.005,0.043
	c-0.116,0.084-0.237,0.161-0.348,0.25c-0.031,0.025-0.036,0.083-0.052,0.127c-0.008,0.022-0.016,0.045-0.024,0.067
	c-0.013-0.016-0.024-0.036-0.041-0.048c-0.032-0.024-0.066-0.061-0.1-0.061c-0.031,0-0.084,0.04-0.086,0.065
	c-0.002,0.033,0.035,0.07,0.057,0.104c0.033,0.051,0.077,0.099,0.099,0.154c0.008,0.02-0.027,0.076-0.054,0.086
	c-0.046,0.017-0.097,0.015-0.082,0.085c0.001,0.006-0.005,0.02-0.009,0.021c-0.07,0.008-0.096,0.044-0.067,0.108
	c0.019,0.043,0.05,0.082,0.07,0.125c0.009,0.019,0.013,0.058,0.003,0.064c-0.071,0.044-0.126,0.094-0.138,0.182
	c-0.002,0.016-0.038,0.028-0.057,0.042c-0.008-0.013-0.015-0.027-0.023-0.04c-0.014-0.025-0.035-0.071-0.042-0.07
	c-0.034,0.009-0.074,0.025-0.095,0.051c-0.024,0.03-0.026,0.077-0.046,0.111c-0.062,0.107-0.125,0.214-0.193,0.317
	c-0.018,0.027-0.059,0.039-0.09,0.058c-0.008-0.028-0.021-0.055-0.024-0.084c-0.004-0.049-0.001-0.099-0.001-0.148
	c-0.006-0.281,0.049-0.251-0.262-0.253c-0.027,0-0.054-0.002-0.08,0C9.654,8.159,9.616,8.132,9.625,8.053
	C9.634,7.979,9.615,7.94,9.522,7.932C9.338,7.916,9.258,7.768,9.346,7.608c0.086-0.155,0.086-0.321,0.092-0.487
	C9.44,7.079,9.404,7.037,9.388,6.994z M9.532,7.986c0.014-0.001,0.041,0.035,0.043,0.056C9.591,8.2,9.59,8.2,9.749,8.2
	c0.274,0,0.274,0,0.274,0.269c0,0.047,0.002,0.093,0,0.14c-0.004,0.094-0.014,0.186,0.101,0.233c0.024,0.01,0.035,0.05,0.053,0.077
	c-0.109,0.05-0.129,0.105-0.093,0.22c0.009,0.028,0.009,0.084,0,0.087c-0.072,0.02-0.113,0.126-0.211,0.076
	C9.851,9.289,9.823,9.286,9.797,9.279c0.004,0.029,0.015,0.059,0.01,0.086C9.8,9.403,9.787,9.464,9.764,9.47
	c-0.098,0.024-0.132,0.063-0.11,0.159c0.004,0.019,0.008,0.038,0.015,0.07c-0.116-0.06-0.144,0.016-0.172,0.089
	C9.491,9.801,9.487,9.821,9.494,9.83c0.046,0.069,0.098,0.134,0.143,0.204c0.011,0.016,0.014,0.054,0.003,0.064
	c-0.053,0.051-0.112,0.096-0.169,0.144c-0.004,0.004-0.01,0.009-0.01,0.014c-0.013,0.075-0.026,0.149-0.037,0.224
	c-0.005,0.03,0,0.085-0.008,0.086c-0.052,0.01-0.116,0.027-0.156,0.005c-0.07-0.037-0.155-0.09-0.181-0.156
	c-0.049-0.124-0.141-0.073-0.214-0.074c-0.201-0.004-0.403,0.006-0.605,0.005c-0.097,0-0.195-0.007-0.292-0.017
	c-0.076-0.007-0.13,0.005-0.119,0.1c-0.122-0.036-0.19-0.115-0.269-0.205c-0.077-0.087-0.055-0.165-0.062-0.248
	c-0.006-0.066-0.023-0.1-0.099-0.102C7.277,9.87,7.276,9.861,7.289,9.726c0.005-0.053-0.011-0.108-0.018-0.162
	C7.265,9.51,7.281,9.477,7.343,9.487c0.064,0.01,0.114-0.011,0.152-0.064c0.012-0.017,0.034-0.031,0.054-0.04
	c0.071-0.028,0.145-0.039,0.162-0.139C7.723,9.169,7.937,9.052,8.023,9.06C8.09,9.066,8.122,9.051,8.12,8.977
	c-0.002-0.1,0.097-0.067,0.148-0.099c0.026-0.017,0.049-0.038,0.071-0.06c0.013-0.013,0.02-0.031,0.032-0.045
	C8.397,8.741,8.424,8.711,8.45,8.679c0.012-0.015,0.022-0.045,0.031-0.045C8.597,8.641,8.64,8.551,8.706,8.485
	c0.06-0.06,0.124-0.127,0.232-0.105c0.108,0.022,0.17-0.032,0.232-0.126C9.218,8.181,9.322,8.143,9.4,8.088
	c0.024-0.017,0.041-0.042,0.064-0.06C9.485,8.011,9.508,7.988,9.532,7.986z M11.538,11.92c-0.368-0.001-0.736,0.003-1.104,0.001
	c-0.035,0-0.069-0.032-0.106-0.041c-0.035-0.009-0.086-0.024-0.109-0.008c-0.104,0.073-0.183,0.066-0.261-0.031
	C9.9,11.767,9.83,11.703,9.775,11.628c-0.023-0.032-0.037-0.089-0.024-0.123c0.033-0.086,0.023-0.123-0.063-0.161
	c-0.026-0.011-0.048-0.037-0.065-0.061c-0.039-0.056-0.087-0.11-0.105-0.173c-0.024-0.083-0.023-0.173-0.031-0.261
	C9.486,10.83,9.501,10.81,9.499,10.79c-0.007-0.102-0.024-0.204-0.023-0.306c0-0.07,0.011-0.146,0.042-0.208
	c0.016-0.032,0.084-0.052,0.13-0.054c0.199-0.006,0.398-0.002,0.596-0.002c0-0.005,0-0.01,0-0.016c0.418,0,0.837,0.002,1.255-0.002
	c0.085-0.001,0.113,0.024,0.114,0.108c0.001,0.367,0.008,0.733,0.013,1.1c0.002,0.138,0,0.277,0.004,0.415
	C11.631,11.892,11.61,11.92,11.538,11.92z M12.411,5.094c0.03-0.016,0.056-0.037,0.074-0.049c0.019,0.075,0.027,0.14,0.052,0.198
	c0.059,0.136,0.137,0.266,0.186,0.405c0.029,0.081,0.018,0.176,0.018,0.265c0,0.011-0.045,0.034-0.066,0.031
	c-0.088-0.013-0.18-0.021-0.259-0.055c-0.095-0.041-0.176,0.007-0.261,0.017c-0.066,0.007-0.109,0.058-0.096,0.137
	c0.003,0.022-0.02,0.048-0.031,0.072c-0.024-0.014-0.047-0.029-0.072-0.042c-0.024-0.012-0.055-0.036-0.072-0.028
	c-0.042,0.018-0.077,0.051-0.115,0.077c-0.078,0.055-0.066,0.19-0.191,0.206c-0.011,0.001-0.019,0.023-0.03,0.026
	c-0.038,0.009-0.079,0.021-0.117,0.017c-0.043-0.004-0.083-0.029-0.126-0.035c-0.083-0.01-0.08-0.076-0.099-0.13
	c-0.009-0.025-0.034-0.06-0.055-0.062c-0.095-0.011-0.186-0.103-0.189-0.203c-0.004-0.119-0.119-0.237-0.222-0.223
	c-0.028,0.004-0.061,0.011-0.082,0.029c-0.064,0.054-0.117,0.08-0.165-0.018c-0.002-0.005-0.083,0.013-0.112,0.038
	C10.338,5.804,10.311,5.86,10.269,5.9c-0.031,0.029-0.074,0.044-0.124,0.053c0.102-0.125,0.113-0.263,0.105-0.408
	c-0.009-0.174,0.061-0.315,0.195-0.43c0.101-0.086,0.2-0.173,0.294-0.266c0.077-0.076,0.17-0.096,0.273-0.102
	c0.077-0.005,0.173,0.048,0.224-0.061c0.004-0.009,0.039-0.005,0.059-0.005c0.3-0.001,0.599,0,0.899-0.004
	c0.071-0.001,0.103,0.019,0.101,0.092c-0.002,0.093,0.003,0.186,0.009,0.279c0.002,0.026,0.018,0.051,0.028,0.076
	C12.359,5.114,12.387,5.107,12.411,5.094z M7.173,9.488C7.191,9.49,7.22,9.502,7.222,9.513c0.01,0.071,0.027,0.145,0.017,0.214
	C7.217,9.877,7.221,9.899,7.371,9.91c0.091,0.007,0.112,0.044,0.103,0.12c-0.003,0.026,0.003,0.053-0.001,0.078
	c-0.017,0.106,0.059,0.168,0.123,0.223c0.073,0.063,0.168,0.101,0.25,0.154c0.015,0.01,0.024,0.039,0.024,0.059
	c0.002,0.303,0,0.605,0.002,0.908c0,0.057-0.027,0.065-0.077,0.065c-0.46-0.001-0.919-0.001-1.379,0.002
	c-0.115,0.001-0.231,0.009-0.346,0.017c-0.064,0.005-0.082-0.022-0.081-0.081c0.003-0.147,0.025-0.145-0.149-0.145
	c-0.065,0-0.131-0.003-0.196,0.001c-0.063,0.004-0.093-0.014-0.087-0.083c0.006-0.072,0.001-0.145,0.001-0.218c0,0-0.001,0-0.001,0
	c0-0.079,0.002-0.157-0.001-0.236c-0.002-0.053,0.02-0.072,0.073-0.072c0.098-0.001,0.196-0.011,0.293-0.011
	c0.057,0,0.079-0.022,0.081-0.077c0.004-0.096,0.012-0.192,0.021-0.287c0.004-0.04,0.011-0.081,0.026-0.118
	c0.047-0.113,0.122-0.166,0.259-0.153c0.209,0.02,0.21,0.009,0.211-0.199c0-0.133,0.099-0.272,0.221-0.306
	C6.765,9.547,6.805,9.548,6.812,9.56c0.055,0.092,0.114,0.056,0.158,0C7.025,9.489,7.093,9.476,7.173,9.488z M7.245,12.298
	c-0.006,0-0.013,0-0.019-0.001c0.004-0.011,0.009-0.023,0.013-0.034C7.241,12.275,7.243,12.287,7.245,12.298z M5.366,14.223
	c0.047-0.023,0.138-0.006,0.153-0.035c0.029-0.054,0.02-0.129,0.021-0.195c0.002-0.186,0.003-0.372-0.001-0.559
	c-0.001-0.072,0.019-0.103,0.1-0.104c0.382-0.002,0.765-0.012,1.147-0.014c0.075,0,0.126-0.027,0.141-0.092
	c0.026-0.111,0.138-0.19,0.113-0.323c-0.005-0.029,0.066-0.075,0.106-0.108c0.046-0.038,0.066-0.076,0.043-0.136
	c-0.012-0.031-0.01-0.07-0.003-0.103c0.015-0.076,0.035-0.141,0.145-0.123c0.084,0.014,0.172,0.004,0.258,0.002
	c0.054-0.001,0.086,0.013,0.096,0.075c0.018,0.114,0.082,0.233,0.064,0.339c-0.03,0.168,0.039,0.304,0.082,0.451
	c0.024,0.084,0.033,0.218,0.086,0.239c0.116,0.046,0.069,0.122,0.09,0.189c0.019,0.058,0.066,0.109,0.106,0.158
	c0.063,0.077,0.06,0.111-0.032,0.148c-0.093,0.037-0.154,0.081-0.08,0.185c0.005,0.007-0.003,0.025-0.009,0.037
	c-0.023,0.05-0.08,0.113-0.065,0.146c0.034,0.077,0.102,0.139,0.144,0.192c-0.055,0-0.144,0.007-0.232-0.002
	c-0.109-0.011-0.131,0.039-0.128,0.132c0.007,0.218,0.004,0.436,0.013,0.654c0.003,0.085-0.026,0.11-0.112,0.108
	c-0.294-0.007-0.587-0.012-0.881-0.007c-0.11,0.002-0.143-0.068-0.188-0.138c-0.015-0.023-0.03-0.058-0.051-0.063
	c-0.1-0.024-0.153-0.098-0.208-0.171c-0.01-0.013-0.01-0.033-0.016-0.049c-0.007-0.02-0.012-0.054-0.026-0.058
	c-0.137-0.038-0.201-0.152-0.28-0.251c-0.013-0.016-0.039-0.032-0.059-0.032c-0.113,0.004-0.169-0.069-0.22-0.151
	C5.682,14.56,5.68,14.551,5.677,14.55c-0.135-0.016-0.179-0.186-0.326-0.184c-0.012,0-0.036-0.031-0.033-0.042
	C5.328,14.288,5.339,14.236,5.366,14.223z M8.12,14.199c-0.018-0.008-0.038-0.013-0.053-0.024c-0.018-0.013-0.031-0.032-0.046-0.049
	c0.017-0.013,0.033-0.034,0.052-0.036c0.011-0.001,0.03,0.025,0.037,0.043C8.118,14.153,8.117,14.177,8.12,14.199z M14.092,14.511
	c-0.035,0.013-0.076,0.01-0.114,0.011c-0.516,0.007-1.033,0.013-1.549,0.019c-0.128,0.001-0.166-0.044-0.147-0.169
	c0.014-0.089-0.048-0.137-0.111-0.182c-0.004-0.003-0.038,0.019-0.042,0.033c-0.009,0.031-0.007,0.066-0.01,0.11
	c-0.096-0.054-0.194-0.08-0.203-0.2c-0.002-0.025-0.025-0.057-0.048-0.07c-0.162-0.089-0.167-0.254-0.21-0.401
	c-0.002-0.006-0.006-0.015-0.004-0.016c0.069-0.041,0.137-0.083,0.208-0.119c0.023-0.011,0.055-0.002,0.082-0.005
	c0.067-0.007,0.134-0.022,0.201-0.022c0.055,0,0.1,0.008,0.108-0.066c0.002-0.024,0.027-0.048,0.046-0.067
	c0.016-0.016,0.04-0.024,0.061-0.035c-0.021-0.016-0.042-0.032-0.084-0.063c0.096,0,0.174,0,0.253,0
	c0.055,0,0.078-0.025,0.075-0.081c-0.005-0.096-0.001-0.192-0.005-0.288c-0.002-0.057,0.022-0.078,0.079-0.076
	c0.071,0.003,0.143,0.004,0.214-0.002c0.033-0.003,0.064-0.022,0.104-0.037c0.001,0.001,0.009,0.023,0.021,0.026
	c0.16,0.032,0.272,0.156,0.423,0.211c0.152,0.055,0.294,0.136,0.443,0.202c0.036,0.016,0.082,0.022,0.121,0.017
	c0.096-0.012,0.121,0.028,0.122,0.117c0.005,0.364,0.016,0.727,0.021,1.091C14.147,14.47,14.116,14.503,14.092,14.511z
	 M13.163,8.899c-0.002,0.224,0.001,0.448,0,0.672c-0.001,0.156-0.008,0.313-0.006,0.469c0.001,0.073-0.029,0.098-0.1,0.098
	c-0.202-0.002-0.404-0.001-0.605-0.001c0,0.002,0,0.004,0,0.006c-0.19,0-0.38-0.003-0.57,0.003c-0.04,0.001-0.077,0.042-0.119,0.056
	c-0.027,0.009-0.061,0.006-0.089-0.001c-0.035-0.01-0.067-0.042-0.101-0.043c-0.175-0.004-0.35-0.004-0.525,0
	c-0.071,0.002-0.096-0.023-0.092-0.091c0.005-0.076,0.007-0.152,0.003-0.227c-0.005-0.075,0.027-0.104,0.099-0.091
	c0.106,0.019,0.136-0.029,0.131-0.125c-0.005-0.093,0.007-0.187,0.001-0.279c-0.005-0.088,0.031-0.109,0.115-0.104
	c0.13,0.007,0.261-0.001,0.392,0.005c0.071,0.003,0.095-0.026,0.096-0.09c0.001-0.093,0.002-0.186,0.009-0.279
	c0.002-0.024,0.019-0.06,0.037-0.066c0.175-0.06,0.189-0.076,0.192-0.251c0.001-0.054-0.007-0.104,0.056-0.144
	c0.025-0.015,0.009-0.087,0.019-0.131c0.006-0.026,0.024-0.051,0.044-0.07c0.006-0.006,0.034,0.01,0.052,0.016
	c-0.008,0.013-0.017,0.027-0.025,0.04c-0.013,0.02-0.025,0.039-0.038,0.059c0.023,0.01,0.045,0.028,0.068,0.028
	c0.119,0.001,0.239,0.006,0.355-0.01c0.051-0.007,0.094-0.063,0.143-0.094c0.026-0.017,0.056-0.04,0.085-0.042
	c0.101-0.004,0.202,0.002,0.303-0.001c0.065-0.002,0.09,0.02,0.088,0.086C13.169,8.498,13.165,8.699,13.163,8.899z M12.825,8.16
	c-0.1-0.002-0.172,0.026-0.237,0.095c-0.039,0.042-0.251,0.074-0.298,0.045c-0.009-0.005-0.012-0.037-0.005-0.044
	c0.074-0.074,0.156-0.14,0.223-0.219c0.061-0.072,0.117-0.13,0.224-0.117c0.018,0.002,0.059-0.056,0.062-0.09
	c0.012-0.118,0.055-0.163,0.171-0.198c0.071-0.021,0.145-0.057,0.198-0.107c0.062-0.057,0.093-0.135,0.082-0.228
	c-0.01-0.083,0.011-0.171-0.005-0.253c-0.034-0.173,0.085-0.26,0.176-0.374c0.042-0.052,0.035-0.149,0.033-0.225
	c0-0.016-0.075-0.029-0.114-0.046c-0.031-0.013-0.06-0.029-0.091-0.044c0.029-0.016,0.057-0.033,0.087-0.048
	c0.013-0.006,0.037-0.005,0.04-0.014c0.031-0.076,0.096-0.057,0.152-0.056c0.016,0.075,0.026,0.148,0.052,0.224
	c0.011,0.049,0.009,0.098,0.012,0.146c0.009,0.157,0.02,0.371,0.097,0.607c0.063,0.196,0.091,0.439,0.121,0.696
	c0.009,0.08,0.023,0.169,0.034,0.253C13.501,8.164,13.163,8.165,12.825,8.16z M12.965,2.426c0.068,0.342,0.113,0.693,0.16,1.064
	c0.012,0.093,0.024,0.187,0.037,0.28c-0.065,0.06-0.166,0.092-0.208,0.18c-0.058,0.122-0.19,0.212-0.292,0.313
	c-0.028,0.028-0.063,0.056-0.1,0.066c-0.057,0.015-0.128-0.004-0.142,0.082c-0.001,0.006-0.028,0.015-0.039,0.012
	c-0.104-0.034-0.102,0.032-0.094,0.097c0.013,0.094-0.026,0.118-0.119,0.116c-0.279-0.005-0.558-0.005-0.836,0.001
	c-0.09,0.002-0.12-0.029-0.122-0.114c-0.003-0.253-0.011-0.506-0.017-0.759c-0.001-0.045,0.002-0.09-0.003-0.134
	c-0.018-0.155,0.108-0.227,0.198-0.309c0.046-0.042,0.139-0.03,0.206-0.056c0.078-0.03,0.16-0.063,0.224-0.114
	c0.16-0.128,0.298-0.286,0.467-0.398c0.273-0.181,0.425-0.447,0.592-0.707c0.009-0.014,0.026-0.025,0.04-0.036
	C12.929,2.147,12.935,2.277,12.965,2.426z M9.14,4.048C9.137,4.073,9.09,4.112,9.064,4.112C8.592,4.107,8.121,4.097,7.649,4.089
	C7.438,4.085,7.228,4.08,7.017,4.079c-0.057,0-0.087-0.01-0.086-0.076c0.01-0.547,0.017-1.094,0.026-1.641
	c0-0.02,0.006-0.039,0.013-0.082c0.21,0.128,0.402,0.252,0.602,0.364c0.161,0.09,0.327,0.175,0.499,0.241
	c0.09,0.034,0.2,0.039,0.297,0.025C8.43,2.901,8.49,2.84,8.542,2.792c0.11-0.099,0.16-0.087,0.21,0.05
	c0.012,0.034,0.057,0.07,0.093,0.078c0.03,0.007,0.071-0.023,0.105-0.039c0.009-0.004,0.012-0.02,0.02-0.028
	c0.054-0.062,0.115-0.12,0.204-0.081C9.26,2.81,9.277,2.881,9.265,2.975C9.219,3.332,9.184,3.691,9.14,4.048z M7.043,4.119
	C7.76,4.135,8.479,4.146,9.196,4.159C9.3,4.161,9.404,4.168,9.508,4.172c0.081,0.004,0.153,0.074,0.164,0.161
	C9.599,4.348,9.526,4.361,9.453,4.377C9.44,4.38,9.423,4.389,9.417,4.4C9.364,4.512,9.314,4.626,9.258,4.737
	C9.24,4.775,9.207,4.805,9.183,4.84C9.152,4.885,9.117,4.929,9.095,4.978C9.054,5.073,8.937,5.036,8.883,5.105
	C8.87,5.123,8.839,5.133,8.836,5.15C8.823,5.225,8.784,5.22,8.722,5.208C8.696,5.204,8.66,5.252,8.628,5.277
	C8.68,5.326,8.63,5.361,8.613,5.403C8.602,5.428,8.611,5.461,8.611,5.47C8.559,5.523,8.518,5.569,8.473,5.612
	C8.392,5.688,8.359,5.805,8.25,5.855c-0.003,0.002,0,0.016,0,0.025L8.25,5.882L8.248,5.879C8.2,5.892,8.151,5.904,8.103,5.917
	L8.105,5.92L8.103,5.918C8.071,5.926,8.039,5.932,8.007,5.942C7.971,5.953,7.936,5.967,7.901,5.979
	C7.885,5.985,7.855,5.991,7.855,5.997c0.004,0.098-0.071,0.078-0.129,0.097C7.7,6.102,7.679,6.167,7.682,6.205
	c0.005,0.073,0.019,0.134-0.092,0.106C7.57,6.307,7.543,6.319,7.523,6.33C7.444,6.375,7.379,6.356,7.365,6.272
	C7.356,6.213,7.326,6.209,7.281,6.209c-0.091,0.001-0.182,0-0.293,0C7.066,6.122,7.03,6.063,6.974,6.003
	c-0.021-0.022-0.03-0.055-0.049-0.08C6.901,5.891,6.871,5.862,6.845,5.83C6.827,5.807,6.811,5.782,6.794,5.758
	c0.021-0.01,0.041-0.028,0.062-0.029c0.072-0.001,0.06-0.051,0.06-0.093C6.922,5.168,6.929,4.699,6.93,4.231
	C6.931,4.145,6.949,4.116,7.043,4.119z M4.802,5.675C5.256,5.691,5.71,5.699,6.163,5.716c0.11,0.004,0.219,0.029,0.329,0.041
	c0.017,0.002,0.04-0.006,0.052-0.017c0.079-0.082,0.158-0.075,0.197,0.026c0.021,0.053,0.05,0.084,0.097,0.12
	c0.065,0.049,0.099,0.138,0.144,0.211c0.005,0.009-0.007,0.03-0.014,0.043C6.957,6.16,6.943,6.178,6.931,6.197
	C6.96,6.215,6.987,6.246,7.018,6.249c0.076,0.008,0.154,0,0.231,0.007c0.024,0.002,0.046,0.03,0.067,0.047
	C7.355,6.337,7.392,6.4,7.43,6.4c0.088-0.001,0.098,0.063,0.11,0.11C7.553,6.558,7.566,6.615,7.5,6.664
	C7.458,6.695,7.417,6.707,7.374,6.727C7.322,6.751,7.27,6.808,7.25,6.862C7.212,6.971,7.211,7.095,7.163,7.198
	C7.139,7.251,7.106,7.347,7.09,7.35C6.993,7.372,6.938,7.418,6.916,7.512C6.915,7.519,6.871,7.513,6.849,7.52
	C6.804,7.536,6.76,7.556,6.716,7.574C6.7,7.581,6.683,7.587,6.667,7.589C6.522,7.608,6.449,7.736,6.491,7.876
	C6.498,7.9,6.447,7.969,6.427,7.967C6.341,7.959,6.312,8.004,6.293,8.091c-0.05-0.074-0.087-0.113-0.138-0.024
	C6.143,8.086,6.092,8.093,6.062,8.088C6.046,8.086,6.028,8.046,6.026,8.022C6.021,7.95,6.022,7.876,6.025,7.804
	c0.002-0.06-0.024-0.084-0.083-0.085C5.879,7.718,5.811,7.734,5.772,7.657C5.765,7.643,5.716,7.642,5.688,7.645
	c-0.094,0.011-0.121-0.03-0.112-0.116C5.582,7.46,5.574,7.389,5.58,7.32c0.007-0.085-0.022-0.123-0.114-0.118
	C5.383,7.206,5.3,7.191,5.217,7.191c-0.064,0-0.091-0.025-0.092-0.087C5.124,6.883,5.12,6.661,5.118,6.44
	c-0.001-0.141,0-0.14-0.148-0.145c-0.077-0.002-0.155-0.004-0.23-0.018C4.714,6.273,4.676,6.235,4.676,6.21
	c-0.005-0.14,0.003-0.279,0.001-0.419C4.675,5.703,4.708,5.671,4.802,5.675z M5.668,7.699C5.683,7.7,5.706,7.694,5.711,7.701
	C5.764,7.779,5.845,7.775,5.926,7.78C5.94,7.781,5.961,7.818,5.963,7.84c0.006,0.049,0.003,0.099,0.003,0.148
	c0,0.152,0,0.152,0.154,0.155C6.112,8.179,6.105,8.214,6.103,8.225c-0.058,0-0.142-0.025-0.177,0.005
	C5.848,8.297,5.868,8.38,5.951,8.438c0.087,0.06,0.181,0.113,0.255,0.186c0.056,0.054,0.086,0.135,0.129,0.203
	C6.351,8.85,6.37,8.873,6.39,8.895c0.058,0.063,0.118,0.124,0.177,0.186C6.589,9.103,6.609,9.13,6.636,9.144
	C6.723,9.19,6.814,9.227,6.9,9.275c0.053,0.03,0.098,0.075,0.147,0.114c-0.049,0.055-0.097,0.11-0.147,0.164
	C6.896,9.556,6.876,9.549,6.87,9.541C6.797,9.449,6.727,9.493,6.657,9.543C6.643,9.554,6.633,9.57,6.618,9.579
	C6.493,9.656,6.452,9.767,6.475,9.906c0.015,0.088-0.023,0.125-0.114,0.11c-0.02-0.003-0.041-0.002-0.062-0.002
	c-0.19-0.003-0.308,0.106-0.321,0.296c-0.006,0.087-0.007,0.175-0.023,0.26c-0.005,0.028-0.047,0.071-0.072,0.071
	c-0.504-0.001-1.007-0.008-1.511-0.013c-0.162-0.099-0.342-0.035-0.512-0.059C3.836,10.566,3.8,10.519,3.799,10.49
	C3.79,10.094,3.783,9.698,3.78,9.301C3.778,8.926,3.785,8.551,3.781,8.175C3.78,8.085,3.813,8.069,3.896,8.074
	c0.18,0.012,0.361,0.013,0.541,0.019c0.07,0.002,0.096-0.031,0.092-0.096c-0.002-0.038,0.003-0.076,0-0.113
	C4.526,7.824,4.544,7.793,4.613,7.79c0.025-0.001,0.064-0.04,0.068-0.066C4.691,7.66,4.724,7.652,4.78,7.655
	C5.076,7.671,5.372,7.685,5.668,7.699z M3.717,11.824c-0.025,0.022-0.051,0.045-0.076,0.067c-0.007-0.01-0.014-0.02-0.022-0.03
	C3.652,11.849,3.685,11.837,3.717,11.824z M3.94,19.045c0.01,0.008,0.02,0.016,0.03,0.023c0.044,0.01,0.101,0.043,0.127,0.026
	c0.039-0.024,0.076-0.08,0.08-0.126c0.012-0.142,0.132-0.295,0.272-0.318c0.028-0.004,0.065,0.018,0.091,0.038
	c0.086,0.066,0.145,0.066,0.21-0.022c0.05-0.068,0.092-0.145,0.127-0.222c0.031-0.068,0.003-0.125-0.068-0.157
	c-0.022-0.01-0.043-0.02-0.064-0.031c-0.107-0.057-0.11-0.07-0.014-0.141c0.111-0.082,0.173-0.176,0.156-0.323
	c-0.016-0.135,0-0.273-0.004-0.41c-0.002-0.073,0.02-0.113,0.1-0.102c0.097,0.014,0.125-0.031,0.12-0.12
	c-0.006-0.107-0.002-0.215-0.002-0.323c-0.001-0.158,0.053-0.21,0.214-0.211c0.303-0.003,0.605-0.01,0.908-0.009
	c0.469,0.001,0.937,0.009,1.406,0.011c0.074,0,0.105,0.025,0.096,0.097c0,0.003,0,0.006,0,0.009c0.02,0.142,0.004,0.258-0.166,0.308
	c-0.137,0.041-0.249,0.15-0.417,0.106c-0.077-0.02-0.093,0.07-0.1,0.134c-0.003,0.031,0.012,0.075-0.004,0.09
	c-0.043,0.04-0.093,0.084-0.148,0.099c-0.172,0.045-0.164,0.042-0.192,0.216c-0.02,0.118-0.09,0.229-0.104,0.347
	c-0.017,0.144-0.113,0.245-0.164,0.369c-0.006,0.015-0.018,0.032-0.032,0.041c-0.211,0.13-0.398,0.285-0.531,0.495
	c-0.117,0.184-0.303,0.306-0.439,0.472c-0.01,0.012-0.032,0.021-0.047,0.019c-0.122-0.013-0.234,0.016-0.341,0.069
	c-0.01,0.005-0.025,0.002-0.034,0.008c-0.225,0.146-0.413-0.012-0.609-0.079c-0.056-0.019-0.101-0.088-0.136-0.143
	c-0.054-0.086-0.127-0.073-0.209-0.067c-0.044,0.003-0.112-0.009-0.128-0.037C3.903,19.148,3.931,19.091,3.94,19.045z M10.9,18.195
	c0.001-0.022,0.041-0.058,0.065-0.061c0.131-0.013,0.158-0.039,0.152-0.168c-0.013-0.284-0.013-0.284,0.272-0.286
	c0.383-0.002,0.766,0,1.149-0.005c0.074-0.001,0.1,0.024,0.099,0.094c-0.002,0.32-0.001,0.64-0.001,0.961c0.002,0,0.004,0,0.006,0
	c0,0.314-0.002,0.629,0.001,0.943c0.001,0.065-0.023,0.086-0.087,0.087c-0.516,0.008-1.032,0.016-1.548,0.029
	c-0.082,0.002-0.105-0.022-0.105-0.102c0-0.311-0.01-0.623-0.012-0.934C10.89,18.567,10.893,18.38,10.9,18.195z M11.238,17.639
	c-0.082,0-0.163,0.008-0.258,0.013c0.029-0.057,0.044-0.104,0.074-0.141c0.07-0.086,0.049-0.185,0.05-0.281
	c0.001-0.119-0.002-0.239,0-0.358c0.001-0.069-0.022-0.105-0.098-0.095c-0.02,0.003-0.042,0-0.062,0.001
	c-0.062,0.002-0.071-0.012-0.051-0.077c0.068-0.222,0.122-0.448,0.058-0.681c-0.017-0.061,0-0.085,0.067-0.085
	c0.211,0.001,0.422-0.005,0.632-0.002c0.084,0.001,0.12-0.026,0.112-0.111c-0.006-0.069,0.002-0.14-0.005-0.209
	c-0.008-0.074,0.031-0.12,0.094-0.121c0.091-0.002,0.184,0.014,0.274,0.032c0.016,0.003,0.028,0.05,0.033,0.078
	c0.015,0.088,0.021,0.177,0.04,0.263c0.005,0.022,0.046,0.05,0.072,0.052c0.086,0.007,0.172,0.005,0.258,0.002
	c0.057-0.002,0.081,0.019,0.08,0.076c-0.003,0.087,0.003,0.175-0.001,0.262c-0.004,0.074,0.021,0.104,0.101,0.101
	c0.144-0.006,0.289-0.002,0.412-0.002c0.01,0.151,0.011,0.286,0.029,0.418c0.011,0.076,0.01,0.129-0.06,0.181
	c-0.044,0.033-0.074,0.094-0.093,0.149c-0.038,0.108-0.06,0.217-0.057,0.335c0.003,0.128-0.085,0.196-0.214,0.196
	C12.229,17.635,11.733,17.636,11.238,17.639z M14.268,17.545c-0.002,0.025-0.039,0.068-0.06,0.069
	c-0.427,0.004-0.854,0.003-1.271,0.003c0.034-0.171,0.068-0.355,0.109-0.537c0.008-0.035,0.041-0.069,0.072-0.093
	c0.092-0.072,0.099-0.131,0.078-0.238c-0.026-0.127-0.05-0.258,0.024-0.388c0.106-0.184,0.198-0.376,0.3-0.563
	c0.01-0.019,0.042-0.036,0.066-0.039c0.07-0.009,0.141-0.006,0.21-0.016c0.026-0.004,0.047-0.031,0.071-0.046
	c0.016-0.01,0.032-0.025,0.05-0.026c0.05-0.004,0.1-0.005,0.151-0.004c0.168,0.004,0.175-0.008,0.165-0.169
	c-0.008-0.136-0.008-0.274,0.008-0.409c0.004-0.036,0.079-0.086,0.125-0.09c0.168-0.014,0.338-0.011,0.507-0.012
	c0.019,0,0.043,0.015,0.056,0.031c0.06,0.072,0.12,0.144,0.18,0.216c-0.001,0.013-0.007,0.023-0.007,0.036
	c-0.002,0.065-0.051,0.205-0.094,0.328c-0.052,0.149-0.102,0.299-0.139,0.453c-0.069,0.29-0.127,0.685-0.065,1.125
	c-0.144-0.001-0.288-0.001-0.432-0.005c-0.079-0.002-0.114,0.021-0.108,0.104C14.273,17.365,14.274,17.455,14.268,17.545z
	 M14.75,13.319c-0.021,0-0.042,0.001-0.062,0.001c-0.089-0.002-0.136,0.028-0.111,0.126c0.008,0.033,0.013,0.072,0.004,0.104
	c-0.008,0.026-0.036,0.06-0.059,0.064c-0.076,0.013-0.154,0.01-0.23,0.018c-0.076,0.008-0.107-0.018-0.105-0.097
	c0.002-0.093-0.006-0.186-0.018-0.278c-0.003-0.022-0.038-0.061-0.053-0.059c-0.233,0.03-0.401-0.126-0.598-0.196
	c-0.083-0.03-0.162-0.073-0.239-0.116c-0.031-0.017-0.054-0.049-0.082-0.072c-0.018-0.015-0.041-0.037-0.06-0.036
	c-0.075,0.004-0.09-0.034-0.089-0.096c0.002-0.102-0.002-0.204-0.002-0.306c-0.001-0.148,0.06-0.21,0.211-0.214
	c0.067-0.001,0.131,0.005,0.184-0.06c0.022-0.027,0.089-0.024,0.135-0.025c0.139-0.004,0.279,0.002,0.418-0.007
	c0.069-0.004,0.136-0.03,0.204-0.046c0.01-0.002,0.024-0.003,0.033,0.002c0.16,0.08,0.342,0.073,0.489,0.026
	c0.047,0.117,0.091,0.241,0.14,0.347c0.044,0.094,0.074,0.194,0.106,0.294c0.03,0.093,0.061,0.185,0.095,0.276
	c0.042,0.114,0.098,0.224,0.159,0.34C15.061,13.311,14.905,13.315,14.75,13.319z M14.698,12.006c-0.004,0-0.007,0.002-0.011,0.002
	c-0.089,0.002-0.179,0.008-0.267,0.001c-0.055-0.005-0.108-0.035-0.163-0.045c-0.037-0.007-0.098-0.011-0.112,0.008
	c-0.052,0.074-0.112,0.056-0.179,0.036C13.939,12,13.909,12,13.881,12.001c-0.095,0.004-0.19,0.012-0.286,0.014
	c-0.032,0.001-0.064-0.013-0.124-0.027c0-0.435,0-0.877,0-1.319c0-0.137,0-0.274-0.005-0.411c-0.002-0.068,0.023-0.091,0.093-0.091
	c0.2-0.002,0.401-0.005,0.601-0.008C14.283,10.747,14.47,11.421,14.698,12.006z M14.081,10.129c-0.267,0-0.534-0.001-0.801,0.001
	c-0.055,0-0.083-0.015-0.081-0.074c0.006-0.15,0.013-0.301,0.015-0.451c0.001-0.098-0.011-0.197-0.009-0.295
	c0.001-0.055,0.021-0.11,0.031-0.165c0.003-0.017,0.009-0.037,0.003-0.052c-0.075-0.21-0.006-0.424-0.016-0.636
	c-0.011-0.246-0.003-0.247,0.245-0.247c0.126,0,0.251,0.001,0.377,0.001c0.032,0.235,0.072,0.481,0.151,0.739
	c0.017,0.056,0.025,0.188,0.032,0.306c0.01,0.162,0.022,0.326,0.049,0.486c0.019,0.11,0.047,0.24,0.072,0.363
	c-0.023,0-0.046,0-0.069,0C14.081,10.114,14.081,10.121,14.081,10.129z M12.879,1.957c-0.094,0.145-0.181,0.294-0.281,0.434
	c-0.059,0.082-0.133,0.154-0.21,0.221c-0.2,0.176-0.399,0.354-0.612,0.515c-0.085,0.065-0.204,0.089-0.309,0.125
	c-0.054,0.018-0.112,0.023-0.187,0.038c-0.01-0.067-0.015-0.146-0.038-0.22c-0.01-0.032-0.054-0.071-0.088-0.077
	c-0.12-0.022-0.149-0.091-0.131-0.196c0.003-0.02,0-0.041,0.003-0.061c0.012-0.081-0.024-0.107-0.105-0.105
	c-0.19,0.004-0.38,0-0.57,0c-0.075,0-0.223-0.137-0.223-0.212c0-0.131,0.004-0.262,0.01-0.392C10.138,2,10.16,1.976,10.171,1.951
	c0.015-0.034,0.04-0.068,0.04-0.103c0.001-0.076-0.012-0.152-0.018-0.228c-0.001-0.016,0.001-0.039,0.011-0.048
	c0.083-0.07,0.033-0.138-0.003-0.204c-0.002-0.004,0-0.011-0.002-0.016c0.883,0,1.764,0,2.648,0.001
	c0.018,0.112,0.028,0.245,0.038,0.384c0.004,0.057,0.017,0.129,0.022,0.19C12.898,1.939,12.886,1.946,12.879,1.957z M10.153,1.353
	c0.004,0.011-0.001,0.024,0.005,0.035c0.027,0.05,0.062,0.108,0.002,0.166c-0.015,0.014-0.016,0.05-0.012,0.074
	c0.02,0.118,0.038,0.227-0.042,0.342c-0.041,0.059-0.016,0.164-0.019,0.248c-0.002,0.061-0.01,0.124,0.001,0.183
	c0.01,0.052,0.035,0.105,0.067,0.148c0.041,0.054,0.097,0.096,0.142,0.147c0.006,0.007-0.011,0.047-0.026,0.053
	c-0.07,0.03-0.104,0.055-0.01,0.101c0.013,0.006,0.024,0.03,0.026,0.047c0.007,0.086-0.065,0.143-0.152,0.132
	c-0.048-0.006-0.099,0.003-0.148,0.009C9.976,3.039,9.955,3.054,9.956,3.061c0.011,0.105-0.091,0.154-0.144,0.159
	c-0.13,0.012-0.284,0.071-0.388-0.06c-0.05-0.063-0.085-0.147-0.101-0.226c-0.02-0.097-0.055-0.175-0.153-0.204
	c-0.099-0.03-0.168,0.026-0.23,0.095C8.914,2.85,8.877,2.866,8.846,2.886c-0.02-0.031-0.049-0.06-0.059-0.095
	C8.76,2.697,8.643,2.659,8.559,2.726C8.513,2.763,8.477,2.812,8.43,2.846C8.402,2.867,8.36,2.87,8.324,2.881
	C8.317,2.853,8.302,2.824,8.302,2.795c0.008-0.481,0.019-0.962,0.028-1.443C8.938,1.352,9.546,1.352,10.153,1.353z M6.462,1.351
	C6.46,1.403,6.46,1.456,6.458,1.508C6.453,1.616,6.349,1.647,6.271,1.686c-0.08,0.04-0.113,0.075-0.028,0.149
	C6.235,1.845,6.227,1.856,6.22,1.867C6.177,1.849,6.129,1.84,6.095,1.813c-0.041-0.032-0.07-0.078-0.104-0.119
	c-0.069-0.082-0.156-0.11-0.262-0.093c-0.182,0.03-0.337-0.047-0.495-0.118C5.185,1.461,5.119,1.455,5.067,1.466
	C4.984,1.483,4.906,1.5,4.837,1.576C4.773,1.644,4.653,1.666,4.555,1.701C4.458,1.734,4.367,1.757,4.297,1.852
	C4.204,1.979,3.914,1.97,3.803,1.858C3.778,1.832,3.752,1.807,3.725,1.783c0.014-0.141,0.026-0.284,0.026-0.432l1.095,0L6.462,1.351
	z M3.577,2.691c0.011-0.103,0.019-0.206,0.044-0.303c0.047-0.18,0.078-0.364,0.1-0.552c0.017,0.017,0.035,0.032,0.052,0.049
	C3.867,1.981,4.06,2.019,4.187,1.953c0.07-0.036,0.128-0.093,0.193-0.139c0.021-0.015,0.044-0.033,0.068-0.037
	c0.116-0.019,0.213-0.105,0.345-0.083C4.825,1.7,4.872,1.622,4.911,1.581c0.078-0.084,0.224-0.099,0.323-0.049
	c0.08,0.04,0.171,0.061,0.258,0.088c0.052,0.016,0.075,0.042,0.052,0.097C5.536,1.733,5.534,1.77,5.539,1.772
	c0.08,0.031,0.03,0.076,0.02,0.121C5.546,1.952,5.546,2.014,5.538,2.074C5.536,2.089,5.525,2.11,5.512,2.115
	C5.429,2.148,5.441,2.208,5.458,2.275c0.015,0.06,0.016,0.116-0.079,0.094C5.365,2.366,5.333,2.374,5.332,2.381
	C5.316,2.501,5.152,2.558,5.187,2.705c0.005,0.019-0.051,0.062-0.086,0.077C5.068,2.795,5.025,2.784,4.987,2.784
	c0,0,0-0.001,0-0.002C4.456,2.762,4.039,2.729,3.576,2.701C3.576,2.698,3.577,2.695,3.577,2.691z M3.498,3.339
	c0.003-0.068,0.003-0.136,0.016-0.202C3.539,3.012,3.553,2.886,3.568,2.76c0.087,0.008,0.181,0.015,0.295,0.02
	c0.388,0.017,0.776,0.034,1.164,0.048C5.09,2.829,5.109,2.853,5.108,2.912c-0.002,0.183-0.001,0.367-0.001,0.55
	c-0.004,0-0.009,0-0.013,0c0,0.18-0.002,0.361,0.001,0.541c0.001,0.073-0.027,0.096-0.1,0.093C4.494,4.077,3.993,4.063,3.493,4.043
	C3.459,4.042,3.426,4.04,3.392,4.038C3.471,3.769,3.489,3.522,3.498,3.339z M3.239,5.196C3.242,5.135,3.241,5.074,3.242,5.05
	c0.135-0.338,0.135-0.643,0.135-0.844c0-0.034-0.002-0.068,0-0.101c0.004-0.012,0.004-0.021,0.007-0.033
	c0.394,0.017,0.789,0.034,1.183,0.049c0.076,0.003,0.086,0.04,0.086,0.1c-0.001,0.294,0,0.588,0,0.881c-0.008,0-0.016,0-0.023,0
	c0,0.291-0.002,0.582,0.001,0.873C4.632,6.043,4.612,6.07,4.541,6.067C4.161,6.054,3.782,6.042,3.402,6.032
	C3.337,6.03,3.316,6.002,3.319,5.939c0.007-0.113,0.005-0.227,0.011-0.34c0.003-0.06-0.012-0.097-0.083-0.09
	C3.226,5.512,3.23,5.488,3.218,5.481C3.229,5.377,3.235,5.281,3.239,5.196z M3.412,6.063c0.379,0.015,0.759,0.026,1.139,0.036
	C4.606,6.1,4.639,6.116,4.627,6.174c-0.023,0.12,0.029,0.164,0.148,0.153C4.813,6.324,4.852,6.336,4.89,6.338
	C5.072,6.347,5.071,6.346,5.073,6.53c0.002,0.207,0.007,0.413,0.007,0.62c0,0.064,0.026,0.085,0.091,0.084
	c0.098-0.001,0.195,0.012,0.293,0.013C5.52,7.247,5.536,7.27,5.534,7.32C5.531,7.39,5.526,7.461,5.533,7.53
	c0.009,0.094-0.028,0.129-0.121,0.113c-0.014-0.002-0.03,0-0.062,0C5.155,7.631,4.942,7.62,4.729,7.606
	C4.667,7.602,4.637,7.616,4.631,7.683C4.629,7.707,4.58,7.726,4.555,7.749C4.53,7.772,4.488,7.796,4.486,7.822
	c-0.02,0.226-0.018,0.231-0.251,0.227C3.953,8.043,3.672,8.026,3.39,8.018C3.32,8.015,3.318,7.977,3.318,7.926
	c0.003-0.3,0.006-0.599,0.006-0.899c0-0.291-0.003-0.582-0.009-0.873C3.313,6.079,3.339,6.06,3.412,6.063z M3.638,8.055
	c0.076,0.002,0.096,0.036,0.095,0.103C3.728,8.621,3.725,9.083,3.722,9.546C3.721,9.645,3.724,9.744,3.717,9.843
	c-0.002,0.029-0.024,0.07-0.048,0.082c-0.101,0.048-0.208,0.083-0.309,0.129c-0.042,0.019-0.095,0.045-0.11,0.081
	c-0.043,0.101-0.132,0.12-0.221,0.15c-0.082,0.029-0.182,0.044-0.195,0.181c-0.073-0.089-0.125-0.101-0.2-0.023
	c-0.005,0.005-0.018,0.001-0.026,0.003c0.004-0.096,0.006-0.192,0.003-0.257c-0.001-0.02-0.002-0.04-0.005-0.04
	c-0.001,0-0.002,0.002-0.003,0.006c0.006-0.026,0.015-0.051,0.023-0.076c0.053-0.169,0.141-0.45,0.098-0.803
	C2.799,9.134,2.854,8.944,2.84,8.705c0.004-0.077,0.005-0.154,0.006-0.231c0.001-0.07,0.002-0.166,0.006-0.187
	c0.04-0.091,0.047-0.172,0.065-0.256C3.158,8.039,3.398,8.048,3.638,8.055z M2.149,13.651c0.02-0.129,0.033-0.261,0.046-0.393
	c0.014-0.15,0.029-0.305,0.056-0.396c0.083-0.287,0.091-0.548,0.096-0.738c0.002-0.071,0.005-0.169,0.012-0.199
	c0.032-0.116,0.063-0.24,0.089-0.371c0,0,0,0,0.001,0c0.014,0.02,0.044,0.055,0.067,0.095c0.034,0.057,0.07,0.092,0.14,0.045
	c0.01-0.007,0.037-0.002,0.046,0.007c0.009,0.009,0.012,0.035,0.005,0.045c-0.01,0.015-0.034,0.033-0.047,0.03
	c-0.052-0.014-0.117-0.027-0.124,0.037c-0.007,0.064,0.008,0.143,0.044,0.195c0.07,0.101,0.076,0.102-0.043,0.147
	c-0.015,0.006-0.016,0.049-0.023,0.075c0.063,0.015,0.125,0.035,0.189,0.041c0.028,0.003,0.058-0.022,0.07-0.027
	c-0.004,0.046-0.004,0.098-0.016,0.147c-0.006,0.026-0.032,0.048-0.051,0.069c-0.019,0.021-0.054,0.037-0.06,0.06
	c-0.025,0.098,0.102,0.227,0.199,0.199c0.151-0.044,0.298-0.1,0.449-0.146c0.025-0.008,0.073,0,0.083,0.016
	c0.035,0.056,0.078,0.051,0.127,0.034c-0.077,0.062-0.092,0.122,0,0.189c0.021,0.015,0.035,0.058,0.032,0.086
	c-0.011,0.096,0.028,0.155,0.12,0.199c-0.02,0-0.041,0.004-0.06-0.001c-0.203-0.043-0.294,0.004-0.398,0.187
	c-0.027,0.047-0.083,0.093-0.136,0.109c-0.187,0.054-0.308,0.212-0.285,0.403c0.003,0.022,0.03,0.044,0.051,0.059
	c0.044,0.031,0.092,0.056,0.138,0.085c0.067,0.043,0.135,0.086,0.201,0.13c0.015,0.01,0.026,0.027,0.047,0.05
	c-0.025,0.006-0.038,0.013-0.051,0.013c-0.353-0.002-0.706-0.005-1.059-0.007C2.118,13.964,2.126,13.799,2.149,13.651z
	 M1.855,16.038c0.017-0.067,0.034-0.134,0.048-0.201c0.031-0.145,0.034-0.275,0.028-0.391c0.104-0.221,0.105-0.421,0.104-0.486
	c0.012-0.146,0.022-0.292,0.032-0.438c0.008-0.125,0.024-0.235,0.034-0.354c0.294,0.001,0.587,0,0.881,0.005
	c-0.083,0.068-0.143,0.125-0.075,0.238c0.025,0.042,0.006,0.111,0.005,0.168c-0.002,0.092,0.003,0.185-0.011,0.275
	c-0.006,0.039-0.055,0.071-0.082,0.107c-0.018,0.025-0.04,0.051-0.045,0.079c-0.014,0.073-0.009,0.152-0.033,0.221
	c-0.011,0.033-0.073,0.075-0.106,0.071c-0.126-0.015-0.202,0.049-0.189,0.174c0.003,0.028-0.007,0.057-0.01,0.086
	c-0.01,0.09,0.046,0.156,0.137,0.167c0.017,0.002,0.048,0.027,0.046,0.031c-0.012,0.026-0.025,0.056-0.047,0.071
	c-0.03,0.02-0.073,0.021-0.103,0.04c-0.085,0.055-0.079,0.093,0.014,0.137c0.031,0.015,0.06,0.036,0.09,0.054
	c-0.006,0.013-0.012,0.026-0.018,0.04c-0.141-0.013-0.192,0.059-0.226,0.18c-0.026,0.092-0.102,0.17-0.154,0.255
	c-0.013,0.021-0.035,0.049-0.029,0.067c0.031,0.093,0.062,0.188,0.108,0.274c0.031,0.059,0.088,0.095,0.163,0.041
	c0.012-0.009,0.056,0.008,0.072,0.025c0.018,0.02,0.025,0.052,0.03,0.081c0.023,0.118,0.005,0.14-0.117,0.138
	c-0.195-0.002-0.391-0.004-0.586-0.007c0-0.323,0-0.648,0.001-0.969C1.819,16.158,1.84,16.098,1.855,16.038z M2.472,17.242
	c0.065,0.001,0.125,0.1,0.1,0.155c-0.016,0.034-0.027,0.075-0.025,0.112c0.004,0.066,0.019,0.132,0.031,0.198
	c0.003,0.013,0.01,0.029,0.02,0.038c0.124,0.1,0.245,0.202,0.375,0.295c0.05,0.036,0.124,0.039,0.176,0.072
	c0.046,0.029,0.07,0.093,0.116,0.12c0.081,0.046,0.04,0.087,0.018,0.142c-0.02,0.05,0.006,0.121-0.076,0.138
	c0.011,0.019,0.025,0.038,0.034,0.058c0.01,0.023,0.028,0.055,0.019,0.072c-0.037,0.074-0.036,0.079,0.029,0.086
	c-0.022,0.015-0.059,0.035-0.088,0.063c-0.02,0.019-0.027,0.049-0.04,0.075c0.036,0.002,0.074,0.009,0.109,0.003
	c0.021-0.003,0.038-0.028,0.074-0.057c0.014,0.034,0.052,0.084,0.04,0.113c-0.015,0.035,0.009,0.133-0.094,0.098
	c-0.009-0.003-0.036,0.025-0.043,0.042c-0.01,0.029-0.01,0.061-0.014,0.094c-0.035-0.007-0.063-0.017-0.092-0.017
	c-0.024,0-0.059,0.007-0.068,0.022c-0.009,0.016,0.002,0.053,0.017,0.068c0.073,0.072-0.004,0.096-0.041,0.132
	c-0.023,0.021-0.054,0.035-0.073,0.058c-0.006,0.008,0.008,0.044,0.022,0.053c0.027,0.017,0.061,0.022,0.09,0.037
	c0.114,0.059,0.111,0.072,0.053,0.182c-0.023,0.042-0.014,0.105-0.009,0.157c0.009,0.082-0.035,0.092-0.084,0.053
	c-0.078-0.063-0.118-0.025-0.177,0.027c-0.038,0.035-0.101,0.061-0.153,0.061c-0.303,0.001-0.607-0.004-0.91-0.008
	c0-0.219,0.001-0.439,0.001-0.658c0-0.699,0.001-1.396,0.003-2.093C2.033,17.236,2.252,17.239,2.472,17.242z M3.262,18.783
	c-0.002,0.012-0.004,0.025-0.007,0.037c-0.003,0-0.007,0-0.01,0c0-0.013,0-0.025,0-0.038C3.251,18.782,3.257,18.783,3.262,18.783z
	 M1.81,20.026c0.317,0.005,0.634,0.012,0.951,0.01c0.054,0,0.111-0.052,0.159-0.09c0.042-0.033,0.058-0.045,0.09,0.013
	C3.033,20,3.086,20.026,3.147,20.076c-0.03,0.044-0.068,0.11-0.116,0.169c-0.056,0.069-0.034,0.163,0.055,0.18
	c0.096,0.019,0.055,0.053,0.03,0.107C3.085,20.6,3.077,20.677,3.061,20.75c-0.002,0.007,0.01,0.019,0.007,0.024
	c-0.081,0.15,0.069,0.194,0.123,0.26c-0.069,0.082-0.134,0.156-0.195,0.234c-0.029-0.002-0.06-0.012-0.088-0.012c0,0,0,0-0.001,0
	c-0.148,0-0.295,0.03-0.436,0.091c-0.298,0.075-0.514,0.213-0.663,0.381C1.81,21.161,1.81,20.593,1.81,20.026z M3.529,19.67
	c0.009,0.008,0.019,0.016,0.028,0.023c-0.004,0.003-0.008,0.005-0.011,0.008C3.54,19.691,3.534,19.68,3.529,19.67z M13.875,19.737
	c-0.26,0.014-0.521,0.022-0.792,0.033c0.047-0.109,0.085-0.211,0.135-0.305c0.015-0.028,0.066-0.056,0.099-0.054
	c0.105,0.007,0.209,0.025,0.312,0.045c0.098,0.019,0.194,0.048,0.29,0.071c0.07,0.017,0.119,0.005,0.106-0.082
	c-0.014-0.093,0.014-0.138,0.119-0.113c0.031,0.007,0.065,0,0.098,0.001c0.057,0.003,0.094-0.014,0.085-0.079
	c-0.008-0.059,0.02-0.075,0.077-0.073c0.139,0.005,0.279,0.008,0.418,0.012c-0.088,0.27-0.059,0.517-0.006,0.703l-0.78,0
	c0-0.007,0-0.013,0-0.02C14.033,19.724,14.029,19.728,13.875,19.737z M14.592,19.144c-0.024,0-0.047-0.004-0.071-0.005
	c-0.192-0.007-0.192-0.007-0.192-0.2c0-0.221,0-0.442,0-0.663c-0.006,0-0.012,0-0.018,0c0-0.32,0.002-0.64-0.002-0.96
	c-0.001-0.078,0.027-0.102,0.103-0.1c0.132,0.003,0.265,0.005,0.397,0.007c0.03,0.189,0.078,0.384,0.166,0.586
	c0.019,0.104,0.032,0.345,0.025,0.485c-0.012,0.268-0.068,0.542-0.167,0.853C14.753,19.146,14.673,19.145,14.592,19.144z
	 M2.347,4.538C2.355,4.469,2.364,4.399,2.372,4.33C2.371,4.399,2.361,4.468,2.347,4.538z M2.97,7.509c0-0.001,0-0.001,0-0.002
	C3.084,7.269,3.08,7.045,3.069,6.92C3.077,6.8,3.083,6.68,3.089,6.56c0.014-0.29,0.028-0.565,0.081-0.79
	c0.018-0.075,0.025-0.143,0.035-0.213c0.056,0.012,0.069,0.045,0.069,0.099C3.273,6.034,3.274,6.412,3.274,6.79
	c-0.001,0-0.002,0-0.003,0c0,0.372-0.002,0.745,0.001,1.117c0.001,0.076-0.024,0.103-0.103,0.099
	C3.088,8.002,3.007,7.999,2.926,7.995C2.963,7.802,2.974,7.625,2.97,7.509z M1.937,7.876C1.949,7.788,1.96,7.7,1.971,7.612
	C1.973,7.705,1.969,7.795,1.937,7.876z M2.072,6.81C2.07,6.845,2.069,6.88,2.066,6.915C2.062,6.972,2.089,7.046,2.062,7.084
	C2.043,7.11,2.04,7.139,2.027,7.167C2.042,7.048,2.057,6.929,2.072,6.81z M1.838,8.687c0,0.005,0,0.011-0.001,0.016
	c-0.003,0.038,0.016,0.09-0.003,0.112C1.828,8.823,1.826,8.832,1.82,8.84C1.826,8.789,1.832,8.738,1.838,8.687z"/>
</svg>
