<?xml version="1.0" standalone="no"?>
<!DOCTYPE svg PUBLIC "-//W3C//DTD SVG 20010904//EN" "http://www.w3.org/TR/2001/REC-SVG-20010904/DTD/svg10.dtd">
<svg version="1.0" xmlns="http://www.w3.org/2000/svg" width="481.000000pt" height="563.000000pt" viewBox="0 0 481.000000 563.000000" preserveAspectRatio="xMidYMid meet">
  <g transform="translate(0.000000,563.000000) scale(0.100000,-0.100000)" fill="#2c7a99" stroke="none">
    <path d="M890 5514 c-161 -43 -308 -201 -354 -381 -14 -55 -16 -314 -16 -2527 0 -2015 2 -2466 13 -2466 7 0 51 14 97 30 47 17 92 33 100 35 8 2 16 4 18 5 1 2 7 4 12 5 6 1 11 3 13 4 1 2 13 4 26 7 14 2 30 9 38 15 7 6 13 8 13 4 0 -4 7 -2 15 5 8 7 15 10 15 6 0 -3 17 1 38 10 49 21 856 293 905 305 21 5 45 13 55 19 9 5 40 16 67 24 28 8 162 52 299 99 l249 85 151 -53 c83 -29 253 -90 379 -134 264 -94 556 -198 974 -346 164 -58 308 -110 321 -115 13 -6 27 -10 33 -10 11 0 8 4951 -4 4994 -22 80 -84 183 -152 252 -75 76 -141 114 -233 133 -38 8 -477 11 -1535 10 -1268 0 -1490 -3 -1537 -15z m2687 -1570 c49 -31 82 -134 64 -201 -10 -37 -41 -64 -422 -369 -227 -181 -430 -341 -452 -356 -43 -30 -84 -35 -136 -17 -17 6 -156 107 -309 224 l-277 213 -40 -31 c-50 -39 -318 -259 -325 -267 -3 -3 -27 -24 -55 -45 -27 -22 -55 -44 -61 -50 -86 -77 -253 -202 -277 -207 -20 -4 -53 -1 -84 8 -69 19 -105 64 -111 140 -6 70 8 100 69 149 105 84 134 107 168 133 19 15 92 74 164 132 71 58 144 116 162 130 86 68 114 90 187 150 124 102 156 120 206 120 23 0 57 -7 75 -16 18 -9 145 -103 282 -209 283 -217 293 -224 303 -210 4 6 42 39 86 74 43 35 88 71 100 81 31 27 153 127 231 190 37 30 111 91 164 135 142 119 217 145 288 99z m-1431 -983 c60 -44 59 -29 62 -601 3 -596 4 -589 -70 -638 -76 -49 -171 -29 -228 50 l-30 41 0 526 c0 591 -3 569 75 623 35 25 48 28 100 25 44 -2 69 -9 91 -26z m1252 15 c37 -19 67 -55 81 -95 8 -25 10 -183 9 -555 -3 -579 -1 -555 -71 -603 -67 -45 -144 -35 -211 27 l-41 39 -3 543 -2 544 23 35 c46 68 149 99 215 65z m-610 -343 c71 -57 71 -57 71 -448 0 -322 -1 -353 -19 -392 -27 -60 -83 -95 -155 -95 -63 -1 -95 16 -132 72 -23 33 -23 36 -23 407 0 406 -1 401 57 455 34 32 54 38 116 34 35 -2 57 -11 85 -33z m-1313 -142 c54 -24 92 -71 100 -124 4 -23 5 -159 3 -302 -3 -293 -3 -293 -82 -343 -66 -41 -160 -30 -207 24 -34 40 -39 84 -39 361 0 303 3 322 61 366 53 39 105 45 164 18z"/>
  </g>
</svg>
