<svg viewBox="0 0 308 151">
  <rect width="308" height="151" rx="15"/>
  <path fill="#FFF" d="M62,32 C86.300529,32 106,51.699471 106,76 C106,100.300529 86.300529,120 62,120 C37.699471,120 18,100.300529 18,76 C18,51.699471 37.699471,32 62,32 Z M287,102 C288.656854,102 290,103.343146 290,105 L290,115 C290,116.656854 288.656854,118 287,118 L124,118 C122.343146,118 121,116.656854 121,115 L121,105 C121,103.343146 122.343146,102 124,102 L287,102 Z M287,68 C288.656854,68 290,69.3431458 290,71 L290,81 C290,82.6568542 288.656854,84 287,84 L124,84 C122.343146,84 121,82.6568542 121,81 L121,71 C121,69.3431458 122.343146,68 124,68 L287,68 Z M287,34 C288.656854,34 290,35.3431458 290,37 L290,47 C290,48.6568542 288.656854,50 287,50 L124,50 C122.343146,50 121,48.6568542 121,47 L121,37 C121,35.3431458 122.343146,34 124,34 L287,34 Z"/>
</svg>