<?xml version="1.0" encoding="UTF-8"?><svg id="a" xmlns="http://www.w3.org/2000/svg" viewBox="0 0 96.31 82.55"><path d="M82.57,36.52H33.95c-.57,0-1.04,.47-1.04,1.04v2.85c0,.57,.47,1.04,1.04,1.04l48.62-.07c.57,0,1.04-.47,1.04-1.04v-2.78c0-.57-.47-1.04-1.04-1.04Z"/><path d="M82.57,47.41H13.65c-.57,0-1.04,.47-1.04,1.04v2.85c0,.57,.47,1.04,1.04,1.04l68.93-.07c.57,0,1.04-.47,1.04-1.04v-2.78c0-.57-.47-1.04-1.04-1.04Z"/><path d="M82.57,58.3H13.65c-.57,0-1.04,.47-1.04,1.04v2.85c0,.57,.47,1.04,1.04,1.04l68.93-.07c.57,0,1.04-.47,1.04-1.04v-2.78c0-.57-.47-1.04-1.04-1.04Z"/><path d="M82.57,69.19H13.65c-.57,0-1.04,.47-1.04,1.04v2.85c0,.57,.47,1.04,1.04,1.04l68.93-.07c.57,0,1.04-.47,1.04-1.04v-2.78c0-.57-.47-1.04-1.04-1.04Z"/><path d="M87.87,5.89H11.35c-1.56,0-2.84,1.28-2.84,2.84v14.78c0,1.56,1.28,2.84,2.84,2.84l76.52-.19c1.56,0,2.84-1.28,2.84-2.84V8.73c0-1.56-1.28-2.84-2.84-2.84ZM25.95,14.33l-5.19,5.19c-.29,.29-.77,.29-1.06,0l-5.19-5.19c-.29-.29-.29-.77,0-1.06h11.43c.29,.29,.29,.77,0,1.06Zm60.97,10.22H32.18V7.7h54.73V24.55Z"/><path d="M47.22,22.09h-2.62l-1.04-2.71h-4.77l-.98,2.71h-2.55l4.65-11.93h2.55l4.78,11.93Zm-4.43-4.72l-1.64-4.43-1.61,4.43h3.25Z"/><path d="M29.23,44.56h-2.62l-1.04-2.71h-4.77l-.98,2.71h-2.55l4.65-11.93h2.55l4.78,11.93Zm-4.43-4.72l-1.64-4.43-1.61,4.43h3.25Z"/></svg>