<?xml version="1.0" encoding="UTF-8"?><svg id="a" xmlns="http://www.w3.org/2000/svg" viewBox="0 0 96.31 82.55"><path d="M83.91,61.36H19.87V12.15c0-1.1-.9-2-2-2h-5.48c-1.1,0-2,.9-2,2v56.69c0,1.1,.9,2,2,2H83.91c1.1,0,2-.9,2-2v-5.48c0-1.1-.9-2-2-2Z"/><path d="M67.1,47.26H26.76c-1.1,0-2,.9-2,2v6.09c0,1.1,.9,2,2,2h40.33c1.1,0,2-.9,2-2v-6.09c0-1.1-.9-2-2-2Zm-13.76,8.09h-16.48v-6.09h16.48v6.09Z"/><path d="M83.91,31.67H26.76c-1.1,0-2,.9-2,2v6.09c0,1.1,.9,2,2,2h57.15c1.1,0,2-.9,2-2v-6.09c0-1.1-.9-2-2-2Zm-13.76,8.09h-26.27v-6.09h26.27v6.09Z"/><path d="M77.03,16.08H26.76c-1.1,0-2,.9-2,2v6.09c0,1.1,.9,2,2,2h50.27c1.1,0,2-.9,2-2v-6.09c0-1.1-.9-2-2-2Zm-16.82,8.09h-24.89v-6.09h24.89v6.09Z"/></svg>