<?xml version="1.0" encoding="UTF-8"?><svg id="a" xmlns="http://www.w3.org/2000/svg" viewBox="0 0 96.31 82.55"><path d="M18.29,39.57c0-1.03,.23-1.79,.68-2.28,.45-.49,1.06-.74,1.83-.74s1.42,.25,1.87,.74c.45,.49,.68,1.25,.68,2.29s-.23,1.79-.68,2.28c-.45,.5-1.06,.74-1.83,.74s-1.42-.25-1.87-.74c-.45-.49-.68-1.25-.68-2.29Zm1.71-.02c0,.75,.09,1.25,.26,1.5,.13,.19,.31,.28,.54,.28s.42-.09,.55-.28c.17-.25,.25-.75,.25-1.5s-.08-1.24-.25-1.49c-.13-.19-.31-.29-.55-.29s-.41,.09-.54,.28c-.17,.26-.26,.76-.26,1.5Zm2.47,9.08h-1.62l6.1-12.09h1.58l-6.05,12.09Zm3.55-3.01c0-1.03,.23-1.79,.68-2.28,.45-.49,1.07-.74,1.85-.74s1.4,.25,1.86,.74c.45,.5,.68,1.26,.68,2.28s-.23,1.79-.68,2.29c-.45,.49-1.06,.74-1.83,.74s-1.42-.25-1.87-.74c-.45-.49-.68-1.26-.68-2.29Zm1.71,0c0,.75,.09,1.24,.26,1.49,.13,.19,.31,.29,.54,.29s.41-.09,.54-.28c.17-.25,.26-.75,.26-1.5s-.08-1.24-.25-1.5c-.13-.19-.31-.28-.55-.28s-.41,.09-.54,.28c-.17,.26-.26,.76-.26,1.5Z"/><path d="M92.33,52.83v-20.42c0-1.61-1.31-2.93-2.93-2.93H6.65c-1.61,0-2.93,1.31-2.93,2.93v20.42c0,1.61,1.31,2.93,2.93,2.93H89.4c1.61,0,2.93-1.31,2.93-2.93Zm-52.34-2.93H9.58v-14.56h30.41v14.56Zm5.86-14.56h40.63v14.56H45.85v-14.56Z"/></svg>