<svg xmlns="http://www.w3.org/2000/svg" viewBox="0 0 290 158" aria-hidden="true" focusable="false" role="img" fill="currentColor">
  <path d="M61.7,77.2c0,3.3,0.1,3.4,3.6,3.4c9.3,0,18.6,0,27.9,0c5.2,0,10.5,0,15.7,0c1.7,0,2.8-0.5,2.8-2.3c0-5.8,0-11.5,0-17.3
	c0-1.4-0.6-2.1-2.1-2.1c-1.2,0-2.5-0.1-3.7,0c-1.9,0.1-2.8-0.6-2.7-2.5c0.1-1.5,0-3.1,0-4.6c0.1-2.4,0.3-2.6,2.8-2.6
	c5.8,0,11.7-0.1,17.5,0c2.2,0,4.3,0.3,6.5,0.8c1.3,0.3,2.5,1.1,4.2,1.8c0-1.2,0-1.9,0-2.5c0.1-3.2,0.2-6.3,0.4-9.5s-1.5-6.3-0.6-9.5
	c0.1-0.2-0.1-0.5-0.1-0.8c-0.8-3.8-1.6-7.5-2.3-11.3c-0.1-0.4-0.1-0.9-0.1-1.3c0-1,0.1-1.8,0-2.4l-78.2,0.1c0,0.1-0.1,0.3-0.1,0.5
	c0.1,0.5,0.1,1.1,0.1,2c0,0.8,0.1,1.6,0.2,2.4c0.5,1.8,1.4,3.5,2.7,5.1c0.4,0.5,0.8,0.9,1.2,1.4c0.8,0.8,1.6,1.6,2.3,2.5
	c0.3,0.4,0.4,1.1,0.4,1.6c0,1.3-0.2,2.7-0.3,4.2c0,0,0,0.1,0.1,0.1c1.6-0.5,2.4,0.2,2.9,1.6c0,0,0,0,0,0.1c0.1,0.1,0.2,0.2,0.3,0.4
	c0.9,1.1,1.7,2.4,2.4,3.6c0.1,0.1,0.2,0.2,0.2,0.4c1.3,1,2.8,0.7,5.2-0.7c0.2-0.1,0.5-0.2,1.2-0.4c0.1,0.3,0.3,0.7,0.5,1
	c0.1,0,0.1,0,0.2,0c0.1,0.4,0.3,0.8,0.4,1.2c0.2,0.5,0.3,0.9,0.4,1.4c0,0.2,0,0.3,0,0.5c0.4,2.9,0.1,5.7,0.1,8.4c0,0.1,0,0.1,0,0.2
	c0,0.5,0,0.9,0,1.4c0,1.7-0.9,2.2-2.5,2.2c-3.2,0-6.4,0-9.6,0c0,0.2,0,0.5,0,0.8C61.6,63.3,61.7,70.3,61.7,77.2z"/>
  <path d="M180.3,79.4c0.9,0.5,4.3-1,4.7-2.1c0.7-1.8,1.9-2.2,3.9-2.1c1.8,0,3.8-0.6,5.3-1.6c1.9-1.2,3.4-3.1,5.4-4.9
	c1.8,3.4,5.4,2,8,3.4c0.2,0.1,0.6,0,0.7-0.2c2.2-2.4,5-4.6,6.5-7.5c1.3-2.6,1.3-6,1.7-9c0-0.2,0-0.3,0-0.5l-3.2,1.6l-3.3,1.1
	l-3.2,0.2l-1.9-1.4l1-1.7l0.5-0.5l0.6-1.7l1.2-0.7l1.5-2.6l-1.6-2.1l-0.3-3.3l-2.1-0.6l-2.7,1.9l1-2.2l1.6-2.2l-0.6-2.1l-0.5-2.4
	l-2.5-1l-2.2-1.9l-2.7,1.1l0.2,2.1l-1.6,1.9l-1.3-0.6l-2.4,2.7v3.2l0.3,3.2l1.4,2.2l-0.2,4.8l-3,2.9l-2.2,0.2l-1.1-3.3l-1.1-2.4
	l0.5-3.2l-0.5-3.2l1.1-2.1l0.6-2.1l1.1-3.5l-2.5,2.9l1.4-4.9l2.2-1.9l2.7-0.2l2.1-1h3.3h2.7l1.7-0.5l2.1,0.3l-1.3-1l-1.6-1l-1.8-1.3
	l-1.8,0.6l-1.7-1.3l-4.1,0.2l-2.2,1.4l-1.7-1.1l-2.1-1.3l-3-0.2l3-4.3l-3.5,1.6l-2.9,2.2L177,28l-2.5,0.3l-0.3-1.6l-5.2,1.1l4.4-3.8
	l3.1-2.3l3.8-3l-1.6-0.2l-5.2,0.2l-2.4-0.5l-2.1-0.4l-2.1-1.5l-2.4,0.2l-4.5-1.1l-1.2-1.4l-0.6-2.2l-1.1-1l0.1,1.2l-1.1,1.7H148
	c0,0.3,0,0.6,0.1,1c0.2,2.4,0.8,4.7,1.3,7.1c1,4.7,0.4,9.5,1.5,14.2c0.5,1.9,0.1,3.9,0.1,5.9c0,3.2,0.1,3.3,3.4,3.3
	c5.1,0,10.2,0,15.3,0.1c0.9,0,2.5,0.6,2.6,1.1c0.2,2.2,1.8,3.5,3,5c0.7,0.9,1,1.6,0.8,2.3c0.5,1.4-0.1,2.5-2,3.7
	c-0.3,0.2-0.8,0.3-0.9,0.6c-0.7,2.1-2,4.4-1.9,6.5c0,0.1,0,0.2,0.1,0.3c1.1,1.7,2.4,3.2,3.7,4.8c0.2,0.2,0.4,0.5,0.6,0.7
	c0.1,0.1,0.2,0.3,0.3,0.4c0,0.1,0,0.1,0,0.2c0.1,0.4,0.1,0.9,0,1.4c-0.1,0.4,0,0.8,0.2,1.3c0.3,0.4,0.8,0.9,1.6,1.7
	c0.1,0.1,0.2,0.2,0.3,0.3c0.9,1,1.4,2.2,1.9,3.4C180,79.2,180.2,79.4,180.3,79.4z"/>
  <path d="M36.7,51.3c-1.9,0-3.7,0-5.6,0c-0.7,0-1.4-0.1-1.9-0.2v0.2C31.7,51.3,34.2,51.3,36.7,51.3z"/>
  <path d="M71.6,92.4c0-2.7-0.4-5-3.1-5c-4.6,0-9.3,0-13.9,0c-3.3,0-3.4-1.1-3.4-4.5c0-6.9,0-10.9,0-17.7c0-3.2-0.2-3.4-3.3-3.4
	c-2.5,0-4.9,0-7.4,0c-7.2,0-14.4,0-21.6,0c-2.5,0-5,0-7.5,0l0.4,2.1l0.5,2.7l-0.6,3.7l0.5,2.5l1.1,2.5l1,3.2l0.8,2.1l3.3,2.7
	l1.6-0.2l2.2,0.3L19.8,84l0.6,1.1l-2.1,0.3l1.9,2.1l1.9,2.1l-0.6,1.7L24,95l2.7,2.2L27,100l2.2,1.1l3,1l2.4,2.1l2.1,1.3l2.2,1.7
	l1.3,1l1.4,3.2l8.1-0.2l15.9,5.6h6c0-0.1,0-0.2,0-0.3C71.7,108.4,71.7,100.4,71.6,92.4z"/>
  <path d="M199,90.2c-0.1-0.2,2.6-1.2,2.5-1.5c1.3-1.2,2.5-2.3,3.6-3.3c-0.9-2-0.4-0.8-1.2-2.5c-0.5-1.1-1.1-2.3-2.7-1.9
	c-2,0.4-3.5-0.1-4.8-1.7c-0.8-0.9-1.8-1.1-2.7-0.2c-1.6,1.5-3.2,3-4.8,4.4c-0.4,0.3-1,0.4-1.5,0.6c-3.3,1.4-7.8,0.2-9.9,4.3
	c0,0.1-0.1,0.1-0.2,0.1c-3.1,0.7-3.7,3.5-4.9,5.7c-1.8,3.3-3,7.1-5.1,10.2c-1.9,2.8-2.2,5.6-1.7,8.8c0.2,1.2,0,2.6-0.5,3.8
	c-0.3,0.6-0.5,1.1-0.7,1.5c2.1,0.1,4,0.2,5.7,0.3c0.3,0.5,1.6,2.1,3.2,4.1l0.4,0.4l4.6-0.6l0.6,0.8h3.2l1.7-0.5l2.5-0.2l2.4,1
	l1.4-0.2l1.4,2.1l2.9,0.2l1.6-1.3h1.6l3.2,2.7l1.7,1.9l0.5,2.5l-0.3,3.2l1.1,3.3l3,3.8l1.7,3.7l0.6,1.4l3.2-0.6l0.8-3.5v-5.2
	l-1.6-4.3l-0.5-1.1l-0.3-3.2L208,126l-0.5-3.8l0.2-3.2l1.3-3.5l2.4-1.9l-0.2-1.4l2.9-0.5l4.1-4.6l1.9-1.6l2.1,0.3l1.9-3.7l2.7-1.4
	c0,0,2.1,0.3,2.2-0.5c0.2-0.8,2.2-4.6,2.2-4.6l-2.2-1.3l1.3-1.1l0.3-0.8l-0.8-2c-7.1-0.1-17-0.1-21.5-0.1
	C205.1,90.2,202,90.2,199,90.2z"/>
  <polygon points="202.6,31.5 203.4,29.3 200.7,29.6 199,29.4 197.7,28.5 198.7,30.1 "/>
  <path d="M43.3,51.3c4.5,0,9.1,0,13.6,0c1.6,0,2.5-0.5,2.5-2.2c0-3.5,0.1-7.1-0.1-10.6c-0.1-1.2-0.9-2.4-1.4-3.6
	c-0.7,0.2-1,0.3-1.2,0.4c-3.5,2.1-5,1.7-7.1-1.7c-0.4-0.7-0.9-1.3-1.1-2c-0.5-1.4-1.4-2.1-3-1.5c0.1-1.6,0.3-2.9,0.3-4.3
	c0-0.6-0.1-1.2-0.4-1.6c-0.8-1.1-1.8-2.1-2.8-3c-2.6-2.3-3.7-5.1-3.7-8.4c0-1.2,0-2-0.2-2.5H15.3l-0.6,0.9l0.3,2.1l1.6,3.3l-0.8,3.5
	L14,17.9l-1.1-2.5l-2.5-0.5l-4-0.5H5.3l0.6,2.2l2.2,3.2V23l0.6,3.5l2.9,0.3l1.1,1.6l-3.5-0.5l-1.1,0.8L8.6,32L8,35.7L8.2,40L7,42.8
	l-1.3,4.1l1,2.9L7,51.2c0.6,0.1,1.2,0.2,1.9,0.2C20.4,51.3,31.8,51.3,43.3,51.3z"/>
  <path d="M260.5,59.5l-2.5,0.2l-2.4,0.6l-1.1,0.6l-0.2-1.1l0.8-1l0.4-0.1l-0.4-21.1h-5.2l-3.3,3.1l-2.1,1.3l-1,2.7l-0.5,1.4l-2.4,1.6
	h-2.4l-1.7-0.8l-2.2,0.3l-2.9,1l0.2,1.4l-0.2,2.5l-1.4,1.3l-0.8,0.2c2.8,0.1,5.5,0.2,8.3-0.1c3.5-0.3,6,0.8,7.3,4.7
	c-1.6,1.9-2.3,4.1,0,6.2c-1.2,2.3-1.8,3.7-1.9,5.3l0.6-0.5l0.6,4l0.5,1.9l1.1,1.7l-0.3,2.9l1.7-3.5l1.1-2.7l0.2-1.6l-1.6-1.9
	l-0.2-0.8l0.5-0.5l2.5,1.6l0.8-1.9l1.7-1.7l0.3-1.9l-0.3-2.2l0.2-1.1l0.3-1.6l1.3,1.7h0.6l1.9-0.3l1.9-0.2l2.5-0.8L260.5,59.5z"/>
  <path d="M239.1,62.7c-1.3-3.8-3.8-5-7.3-4.7c-2.7,0.2-5.5,0.1-8.3,0.1l-2,0.5l-1.2,0.6c0,0.2,0,0.3,0,0.5c-0.4,3-0.4,6.4-1.7,9
	c-1.5,2.8-4.3,5-6.5,7.5c-0.1,0.2-0.6,0.3-0.7,0.2c-0.6-0.3-1.2-0.5-1.9-0.6c-0.4,0.4-0.7,0.9-1,1.4c0.6,0.1,1.2,0,1.8-0.1
	c1.6-0.4,2.2,0.8,2.7,1.9c0.8,1.7,0.3,0.5,1.2,2.5c-1.1,1-2.4,2.2-3.6,3.3c0.1,0.2-2.6,1.2-2.5,1.5c3.1,0,6.1,0,9.2,0
	c4.5,0,14.4,0.1,21.5,0.1l-0.5-1.2l-1.3-1.4l1.6-1.7l-1.3-1.6l-0.3-3.2l-0.2-2.7l0.4-0.3c0.1-1.6,0.7-3.1,1.9-5.3
	C236.8,66.8,237.5,64.6,239.1,62.7z"/>
  <path d="M36.3,98.1c-0.1,0-0.2,0.1-0.2,0.1S36,98.1,36,98c0.1,0,0.2-0.1,0.2-0.1C36.3,97.9,36.3,98,36.3,98.1z"/>
  <path d="M167.1,81.7L167.1,81.7L167.1,81.7z"/>
  <path d="M121.4,79.8c0,3.3,0.2,4.6-0.7,5.2c0.4,0,0.8,0,1.3,0c0.4,0,0.7,0,1.1,0c2.7,0,4.1,0.1,4.8-0.2h21.6c0,0,0,0,0,0.1
	c0.9,0.1,1.7,0.4,2.1,1.6c0.2,0.5,1.4,0.9,2.2,0.9c3.2,0.1,6.3,0,9.5,0c1.8,0,3.6,0,5.3,0c0.6,2.4,1.2,2.8,2.6,2.4
	c1.5-0.5,3.7-4.3,3.1-5.7c-0.7-1.8-1.3-3.7-3.2-4.9c-0.6-0.4-1.1-1.6-1-2.3c0.3-1.5-0.3-2.2-1.4-3.2c-1.4-1.3-3.2-3.1-3.3-4.7
	c-0.2-2.1,1.1-4.3,1.9-6.5c0.1-0.2,0.6-0.4,0.9-0.6c2.7-1.7,2.8-3.1,0.8-5.7c-0.9-1.2-2-2.5-2.3-3.8c-0.4-1.6-1.2-2.2-2.7-2.2
	c-6,0-12.1,0-18.1,0c-1.3,0-2.2,0.3-2.3,1.8c0,0.4-0.1,0.8-0.3,1.1c0,0.4,0,0.3,0,1.4c-1.6-0.7-2.8-0.6-4.2-0.9
	c-0.4-0.1-0.8-0.2-1.2-0.2c-0.1,0-0.2,0-0.4,0c-7.3-0.2-14.6-0.4-21.9-0.5c-0.2,0-0.4,0-0.6,0s-0.4,0-0.6,0
	c-0.9,0.1-1.4,0.8-1.4,1.9c0,1.4,0,0.8,0,2.2c0,4.1-0.2,5.3,1.5,5.7c0.2,0,0.3,0,0.5,0c1.2-0.1,2.5,0,3.7,0c0.9,0,1.5,0.3,1.8,0.8
	c0.8,0.8,0.9,2.3,0.9,3.9C121.4,71.6,121.4,75.7,121.4,79.8z"/>
  <path d="M156.3,120.6c0.2-0.8,0.3-1.3,0.5-1.6c1.5-2.1,1.2-5.3,0.7-7.9c-0.4-2.2-0.1-4.5,1.5-6.6c1.5-2,2.4-4.5,3.6-6.8
	c0.7-1.3,0.2-2-1.1-2.3l0,0l0,0l0,0c0.1-1.8-1.1-2.1-2.6-2.1c-4.4,0-8.8-0.1-13.2,0c-0.4,0-0.8,0-1.2-0.1c-1.2-0.3-1.8-1.1-1.8-2.6
	c-0.3,0-0.7,0-1,0c-2.1,0-4.2,0-6.3,0c0,0.1,0,0.2,0,0.3h-21.6c0.1,0,0.1-0.1,0.2-0.1c-8.9,0-17.7,0-26.6,0c-2.8,0-3.3,0.3-3.3,2.8
	c0,7.7,0,15.5,0,23.2c0,0.3,0.1,1.6,0.2,3h6.6l-0.3-1.3h6.3l2.5,1.4l1.4,1.4l3.7,2.5l1.3,4.6l3.7,1.9l1.6,0.7
	c0.4-0.2,0.8-0.4,1.2-0.4l2.4-3l4,0.5l1.6,1.3l4.3,7l1.4,1.7l1.1,4l8.4,3.3l-0.3-2.9l-0.3-4l2.7-3.2l-0.5-1l2.7-2.2l1.4,0.8l2.4-2.7
	l1.4-1.9h2.1l4.6-1l3.3,1.4h2.5l1-1.1l1.1,0.8l0.2,1.4l3.3,1.1l3.2-0.5l2.7,0.2l-2.2-1.7l-0.2-1l1.4-0.8c-0.2-0.3-0.5-0.5-0.7-0.8
	h-1.6l-2.5,0.3l1.6-1.4l0.8-1c0,0-2.5-3.2-2.8-3.6C161,120.8,158.8,120.7,156.3,120.6z"/>
  <path d="M263.1,51.1l1.7-0.5l1.4-1l3.3,0.8c0,0,1.4,0.8,1.6,0.3s0.6-1.7,0.6-1.7l-1.1-1.3l-0.5-1.9l0.3-3.2l0.3-2.5l1.4-1.9l0.3-0.8
	l1,0.5l3-3.3h1.1l2.5-0.3l0.8-1.6h2.2l1.9-1.6l-0.7-0.9l-0.9-2.1l-1-0.7l0.4-5.3l-0.5-4.8l-2.9-0.9l-2.5,0.9l-1.3-0.2L270,29.9
	l-2.5,0.2l-1.1,1h-8.2l0.4,21.1l1.6-0.4L263.1,51.1z"/>
</svg>
