<svg xmlns="http://www.w3.org/2000/svg" viewBox="0 0 640 640">
  <path
    fill="currentColor"
    d="M464 472C450.7 472 440 482.7 440 496C440 509.3 450.7 520 464 520C477.3 520 488 509.3 488 496C488 482.7 477.3 472 464 472zM384 496C384 463.2 403.7 435 432 422.7L432 400C432 373.5 410.5 352 384 352L256 352C229.5 352 208 373.5 208 400L208 422.7C236.3 435 256 463.2 256 496C256 540.2 220.2 576 176 576C131.8 576 96 540.2 96 496C96 463.2 115.7 435 144 422.7L144 400C144 338.1 194.1 288 256 288L288 288L288 217.3C259.7 205 240 176.8 240 144C240 99.8 275.8 64 320 64C364.2 64 400 99.8 400 144C400 176.8 380.3 205 352 217.3L352 288L384 288C445.9 288 496 338.1 496 400L496 422.7C524.3 435 544 463.2 544 496C544 540.2 508.2 576 464 576C419.8 576 384 540.2 384 496zM176 472C162.7 472 152 482.7 152 496C152 509.3 162.7 520 176 520C189.3 520 200 509.3 200 496C200 482.7 189.3 472 176 472zM296 144C296 157.3 306.7 168 320 168C333.3 168 344 157.3 344 144C344 130.7 333.3 120 320 120C306.7 120 296 130.7 296 144z"
  />
</svg>
