<svg xmlns="http://www.w3.org/2000/svg" viewBox="0 0 308 151" fill="currentColor">
    <path d="M293,0 C301.284271,-3.29815278e-15 308,6.71572875 308,15 L308,136 C308,144.284271 301.284271,151 293,151 L15,151 C6.71572875,151 1.01453063e-15,144.284271 0,136 L0,15 C-1.01453063e-15,6.71572875 6.71572875,1.52179594e-15 15,0 L293,0 Z M62,32 C37.699471,32 18,51.699471 18,76 C18,100.300529 37.699471,120 62,120 C86.300529,120 106,100.300529 106,76 C106,51.699471 86.300529,32 62,32 Z M287,102 L124,102 C122.343146,102 121,103.343146 121,105 L121,105 L121,115 C121,116.656854 122.343146,118 124,118 L124,118 L287,118 C288.656854,118 290,116.656854 290,115 L290,115 L290,105 C290,103.343146 288.656854,102 287,102 L287,102 Z M287,68 L124,68 C122.343146,68 121,69.3431458 121,71 L121,71 L121,81 C121,82.6568542 122.343146,84 124,84 L124,84 L287,84 C288.656854,84 290,82.6568542 290,81 L290,81 L290,71 C290,69.3431458 288.656854,68 287,68 L287,68 Z M287,34 L124,34 C122.343146,34 121,35.3431458 121,37 L121,37 L121,47 C121,48.6568542 122.343146,50 124,50 L124,50 L287,50 C288.656854,50 290,48.6568542 290,47 L290,47 L290,37 C290,35.3431458 288.656854,34 287,34 L287,34 Z"/>
</svg>
