<?xml version="1.0" encoding="UTF-8"?><svg xmlns="http://www.w3.org/2000/svg" viewBox="0 0 96.31 82.55"><defs><style>.c{stroke-linecap:round;stroke-width:3px;}.c,.d,.e{stroke:#000;}.e{fill:none;}</style></defs><g id="a"/><g id="b"><path class="c" d="M6.88,39.98V5.57"/><path class="c" d="M89.42,22.98V5.57"/><path class="c" d="M89.42,52.79V27.38"/><path class="c" d="M89.42,76v-18.41"/><path class="c" d="M6.88,76v-28.43"/><rect class="e" x="12.3" y="5.98" width="71.62" height="9.69"/><path class="d" d="M83.92,16.67s-11.46,1.07-27.63,11.61-27.1,16.32-35.66,17.97c-4.59,.88-8.34,.72-8.34,.72v5.31s3.75,.17,8.34-.72c8.56-1.65,19.49-7.42,35.66-17.97s27.63-11.61,27.63-11.61v-5.31Z"/><path class="e" d="M12.3,16.67s41.36,10.71,71.62,10.71v8.71s-31.58,1.88-71.62-10.71v-8.71Z"/><path class="d" d="M83.92,53.29s-13.18,1.49-35.77,9.06c0,0-18.05,7.37-35.85,7.37v-15.89c17.8,0,35.85-7.37,35.85-7.37,22.59-7.57,35.77-9.06,35.77-9.06v15.89Z"/><rect class="d" x="12.3" y="71" width="71.62" height="5.44"/><path class="e" d="M83.92,57.58l-8.82-2.38c-6.78-1.93-13.27-4.73-19.33-8.34l-14.69-8.76c-5.94-3.54-12.3-6.31-18.93-8.25l-9.85-2.88v12.14l9.85,2.88c6.64,1.94,13,4.71,18.93,8.25l14.69,8.76c6.05,3.61,12.55,6.41,19.33,8.34l8.82,2.38v-12.14Z"/></g></svg>