<svg xmlns="http://www.w3.org/2000/svg" viewBox="0 0 252 137" fill="currentColor">
  <path d="M10.834,5.084 L11.167,7.251 L12.834,10.751 L12,14.418 L10.167,12.085 L9,9.418 L6.334,8.918 L2.167,8.418 L1,8.418 L1.667,10.751 L4,14.084 L4,17.417 L4.667,21.084 L7.667,21.417 L8.834,23.084 L5.167,22.584 L4,23.417 L4.5,26.917 L3.834,30.75 L4,35.25 L2.834,38.25 L1.5,42.583 L2.5,45.583 L3.167,49.416 L3.667,52.249 L3,56.082 L3.5,58.749 L4.667,61.416 L5.667,64.749 L6.5,66.916 L10,69.749 L11.667,69.582 L14,69.915 L11.5,70.582 L12.167,71.749 L10,72.082 L12,74.249 L14,76.416 L13.334,78.249 L16,82.082 L18.834,84.415 L19.167,87.248 L21.5,88.415 L24.667,89.415 L27.167,91.582 L29.334,92.915 L31.667,94.748 L33,95.748 L34.5,99.081 L43,98.914 L59.667,104.747 L73.5,104.747 L73.167,103.414 L79.834,103.414 L82.5,104.914 L84,106.414 L87.834,109.081 L89.167,113.914 L93,115.914 L95.334,116.914 L98.5,113.081 L102.667,113.581 L104.334,114.914 L108.834,122.247 L110.334,124.081 L111.5,128.247 L120.334,131.747 L120,128.747 L119.667,124.581 L122.5,121.247 L122,120.247 L124.834,117.914 L126.334,118.747 L128.834,115.914 L130.334,113.914 L132.5,113.914 L137.334,112.914 L140.834,114.414 L143.5,114.414 L144.5,113.247 L145.667,114.081 L145.834,115.581 L149.334,116.747 L152.667,116.247 L155.5,116.414 L153.167,114.581 L153,113.581 L154.5,112.747 L154.334,111.914 L152,111.914 L149.334,112.247 L151,110.747 L151.834,109.747 L152.667,110.581 L157.5,109.914 L158.167,110.747 L161.5,110.747 L163.334,110.247 L166,110.081 L168.5,111.081 L170,110.914 L171.5,113.081 L174.5,113.247 L176.167,111.914 L177.834,111.914 L181.167,114.747 L183,116.747 L183.5,119.414 L183.167,122.747 L184.334,126.247 L187.5,130.247 L189.334,134.081 L190,135.581 L193.334,134.914 L194.167,131.247 L194.167,125.747 L192.5,121.247 L192,120.081 L191.667,116.747 L188.834,113.414 L188.334,109.414 L188.5,106.081 L189.834,102.414 L192.334,100.414 L192.167,98.914 L195.167,98.414 L199.5,93.581 L201.5,91.914 L203.667,92.247 L205.667,88.414 L208.5,86.914 C208.5,86.914 210.668,87.247 210.834,86.414 C211,85.581 213.167,81.581 213.167,81.581 L210.834,80.248 L212.167,79.081 L212.5,78.248 L211.167,74.915 L209.834,73.415 L211.5,71.582 L210.167,69.915 L209.834,66.582 L209.667,63.749 L210.667,62.916 L211.334,67.083 L211.834,69.083 L213,70.916 L212.667,73.916 L214.5,70.249 L215.667,67.416 L215.834,65.749 L214.167,63.749 L214,62.916 L214.5,62.416 L217.167,64.083 L218,62.083 L219.834,60.25 L220.167,58.25 L219.834,55.917 L220,54.75 L220.334,53.083 L221.667,54.916 L222.334,54.916 L224.334,54.583 L226.334,54.416 L229,53.583 L228.5,52.583 L225.834,52.75 L223.334,53.417 L222.167,54.084 L222,52.917 L222.834,51.917 L225,51.417 L227.667,50.917 L229.5,50.417 L231,49.417 L234.5,50.25 C234.5,50.25 236,51.083 236.167,50.583 C236.334,50.083 236.834,48.75 236.834,48.75 L235.667,47.417 L235.167,45.417 L235.5,42.084 L235.834,39.417 L237.334,37.417 L237.667,36.584 L238.667,37.084 L241.834,33.584 L243,33.584 L245.667,33.251 L246.5,31.584 L248.834,31.584 L250.834,29.917 L250.084,29 L249.167,26.75 L248.167,26 L248.584,20.417 L248.084,15.334 L245.084,14.417 L242.5,15.334 L241.084,15.167 L235.334,28.584 L232.667,28.751 L231.5,29.751 L217.334,29.668 L213.834,32.918 L211.667,34.251 L210.667,37.084 L210.167,38.584 L207.667,40.251 L205.167,40.251 L203.334,39.418 L201,39.751 L198,40.751 L198.167,42.251 L198,44.918 L196.5,46.251 L193.5,46.918 L188.834,49.251 L185.334,50.418 L182,50.585 L180,49.085 L181,47.252 L181.5,46.752 L182.167,44.919 L183.417,44.169 L185,41.419 L183.334,39.252 L183,35.752 L180.834,35.085 L178,37.085 L179,34.752 L180.667,32.419 L180,30.252 L179.5,27.752 L176.834,26.752 L174.5,24.752 L171.667,25.919 L171.834,28.086 L170.167,30.086 L168.834,29.419 L166.334,32.252 L166.334,35.585 L166.667,38.918 L168.167,41.251 L168,46.251 L164.834,49.251 L162.5,49.418 L161.334,45.918 L160.167,43.418 L160.667,40.085 L160.167,36.752 L161.334,34.585 L162,32.418 L163.167,28.751 L160.5,31.751 L162,26.584 L164.334,24.584 L167.167,24.417 L169.334,23.417 L172.834,23.417 L175.667,23.417 L177.5,22.917 L179.667,23.25 L180.667,24.917 L184.834,26.417 L185.667,24.084 L182.834,24.417 L181,24.25 L178.334,22.25 L176.667,21.25 L174.75,19.833 L172.834,20.416 L171,19.083 L166.667,19.25 L164.334,20.75 L162.5,19.583 L160.334,18.25 L157.167,18.083 L160.334,13.583 L156.667,15.25 L153.667,17.583 L150.667,19.25 L148,19.583 L147.667,17.916 L142.167,19.083 L146.792,15.041 L150.042,12.666 L154.084,9.499 L152.417,9.249 L146.917,9.416 L144.417,8.916 L142.167,8.541 L139.917,6.916 L137.417,7.083 L132.667,5.916 L131.417,4.416 L130.75,2.083 L129.584,1 L129.667,2.25 L128.5,4.083 L11.5,4.166 L10.834,5.084 L10.834,5.084 Z"/>
</svg>
