<?xml version="1.0" encoding="utf-8"?>
<!-- Generator: Adobe Illustrator 26.2.1, SVG Export Plug-In . SVG Version: 6.00 Build 0)  -->
<svg version="1.1" id="Layer_1" xmlns="http://www.w3.org/2000/svg" xmlns:xlink="http://www.w3.org/1999/xlink" x="0px" y="0px"
	 viewBox="0 0 96.3 82.6" style="enable-background:new 0 0 96.3 82.6;" xml:space="preserve">
<path d="M88.6,66.5H15.4V7.6c0-1.1-0.9-2-2-2H7.9c-1.1,0-2,0.9-2,2V74c0,1.1,0.9,2,2,2h80.7c1.1,0,2-0.9,2-2v-5.5
	C90.6,67.4,89.7,66.5,88.6,66.5L88.6,66.5z"/>
<path d="M31.7,51.1V63c0,1.1,0.9,2,2,2h1.1c1.1,0,2-0.9,2-2l-0.1-11.9c0-1.1-0.9-2-2-2h-0.9C32.6,49.1,31.7,50,31.7,51.1L31.7,51.1z
	"/>
<path d="M38.7,41.7V63c0,1.1,0.9,2,2,2h1.1c1.1,0,2-0.9,2-2l-0.1-21.3c0-1.1-0.9-2-2-2h-0.9C39.6,39.7,38.7,40.6,38.7,41.7
	L38.7,41.7z"/>
<path d="M45.7,28.7V63c0,1.1,0.9,2,2,2h1.1c1.1,0,2-0.9,2-2l-0.1-34.3c0-1.1-0.9-2-2-2h-0.9C46.6,26.7,45.7,27.6,45.7,28.7
	L45.7,28.7z"/>
<path d="M59.7,28.7V63c0,1.1,0.9,2,2,2h1.1c1.1,0,2-0.9,2-2l-0.1-34.3c0-1.1-0.9-2-2-2h-0.9C60.6,26.7,59.7,27.6,59.7,28.7
	L59.7,28.7z"/>
<path d="M52.7,23.6V63c0,1.1,0.9,2,2,2h1.1c1.1,0,2-0.9,2-2l-0.1-39.4c0-1.1-0.9-2-2-2h-0.9C53.6,21.6,52.7,22.5,52.7,23.6
	L52.7,23.6z"/>
<path d="M66.8,38.6v24.3c0,1.1,0.9,2,2,2h1.1c1.1,0,2-0.9,2-2l-0.1-24.3c0-1.1-0.9-2-2-2h-0.9C67.7,36.6,66.8,37.5,66.8,38.6
	L66.8,38.6z"/>
<path d="M73.8,55.3V63c0,1.1,0.9,2,2,2h1.1c1.1,0,2-0.9,2-2l-0.1-7.7c0-1.1-0.9-2-2-2h-0.9C74.7,53.3,73.8,54.2,73.8,55.3L73.8,55.3
	z"/>
<path d="M24.7,55.3V63c0,1.1,0.9,2,2,2h1.1c1.1,0,2-0.9,2-2l-0.1-7.7c0-1.1-0.9-2-2-2h-0.9C25.6,53.3,24.7,54.2,24.7,55.3L24.7,55.3
	z"/>
<path d="M17.6,61.5V63c0,1.1,0.9,2,2,2h1.1c1.1,0,2-0.9,2-2v-1.6c0-1.1-1-1.9-2.1-1.9h-0.9C18.5,59.5,17.6,60.4,17.6,61.5L17.6,61.5
	z"/>
<path d="M80.8,61.5V63c0,1.1,0.9,2,2,2h1.1c1.1,0,2-0.9,2-2v-1.6c0-1.1-1-1.9-2.1-1.9h-0.9C81.7,59.5,80.8,60.4,80.8,61.5L80.8,61.5
	z"/>
</svg>
