<?xml version="1.0" encoding="UTF-8"?><svg id="a" xmlns="http://www.w3.org/2000/svg" viewBox="0 0 96.31 82.55"><defs><style>.b{fill:none;}.b,.c{stroke:#000;stroke-linejoin:round;}</style></defs><path d="M89.93,65.41H16.73V8.8c0-1.1-.9-2-2-2h-5.48c-1.1,0-2,.9-2,2V72.89c0,1.1,.9,2,2,2H89.93c1.1,0,2-.9,2-2v-5.48c0-1.1-.9-2-2-2Z"/><polygon points="22.7 54.03 22.7 59.31 89.66 59.31 89.66 37.5 70.66 47.11 52.54 42.02 43.1 48.03 35.85 44.59 22.7 54.03"/><polygon class="b" points="22.7 47.3 22.7 59.31 89.66 59.31 89.66 25.48 70.66 35.35 52.54 35.3 43.1 40.03 36.46 31.3 22.7 47.3"/><polygon class="c" points="70.66 23.24 52.54 15.09 43.1 21.1 35.85 25.48 22.7 27.11 22.7 47.3 36.46 31.3 43.1 40.03 52.54 35.3 70.66 35.35 89.66 25.48 89.66 10.58 70.66 23.24"/></svg>