<?xml version="1.0" encoding="UTF-8"?><svg id="a" xmlns="http://www.w3.org/2000/svg" viewBox="0 0 96.31 82.55"><path d="M88.49,65.65H15.29V9.04c0-1.1-.9-2-2-2H7.82c-1.1,0-2,.9-2,2V73.13c0,1.1,.9,2,2,2H88.49c1.1,0,2-.9,2-2v-5.48c0-1.1-.9-2-2-2Z"/><g><path d="M30.22,49.19c-1.79,0-3.24,1.45-3.24,3.24s1.45,3.24,3.24,3.24,3.24-1.45,3.24-3.24-1.45-3.24-3.24-3.24Z"/><path d="M33.06,35.59c-1.79,0-3.24,1.45-3.24,3.24s1.45,3.24,3.24,3.24,3.24-1.45,3.24-3.24-1.45-3.24-3.24-3.24Z"/><path d="M48.12,37.83c-1.79,0-3.24,1.45-3.24,3.24s1.45,3.24,3.24,3.24,3.24-1.45,3.24-3.24-1.45-3.24-3.24-3.24Z"/><circle cx="49.64" cy="22.73" r="3.24"/><path d="M64.53,19.49c-1.79,0-3.24,1.45-3.24,3.24s1.45,3.24,3.24,3.24,3.24-1.45,3.24-3.24-1.45-3.24-3.24-3.24Z"/><path d="M57.95,31.11c-1.79,0-3.24,1.45-3.24,3.24s1.45,3.24,3.24,3.24,3.24-1.45,3.24-3.24-1.45-3.24-3.24-3.24Z"/><path d="M74.53,11.54c-1.79,0-3.24,1.45-3.24,3.24s1.45,3.24,3.24,3.24,3.24-1.45,3.24-3.24-1.45-3.24-3.24-3.24Z"/></g></svg>