<svg xmlns="http://www.w3.org/2000/svg" viewBox="0 0 96.3 82.6" fill="currentColor">
    <path d="M83.9,61.4h-64V12.1c0-1.1-0.9-2-2-2h-5.5c-1.1,0-2,0.9-2,2v56.7c0,1.1,0.9,2,2,2h71.5c1.1,0,2-0.9,2-2v-5.5
	C85.9,62.3,85,61.4,83.9,61.4z"/>
    <path d="M67.1,47.3H26.8c-1.1,0-2,0.9-2,2v6.1c0,1.1,0.9,2,2,2h40.3c1.1,0,2-0.9,2-2v-6.1C69.1,48.2,68.2,47.3,67.1,47.3L67.1,47.3z
	 M52,54.6H38.2c-0.7,0-1.3-0.4-1.3-1V51c0-0.5,0.6-1,1.3-1H52c0.7,0,1.3,0.4,1.3,1v2.6C53.3,54.1,52.8,54.6,52,54.6z"/>
    <path d="M83.9,31.7H26.8c-1.1,0-2,0.9-2,2v6.1c0,1.1,0.9,2,2,2h57.2c1.1,0,2-0.9,2-2v-6.1C85.9,32.6,85,31.7,83.9,31.7z M68.8,39
	H45.2c-0.7,0-1.3-0.4-1.3-1v-2.6c0-0.5,0.6-1,1.3-1h23.7c0.7,0,1.3,0.4,1.3,1V38C70.2,38.5,69.6,39,68.8,39z"/>
    <path d="M77,16.1H26.8c-1.1,0-2,0.9-2,2v6.1c0,1.1,0.9,2,2,2H77c1.1,0,2-0.9,2-2v-6.1C79,17,78.1,16.1,77,16.1z M58.9,23.4H36.6
	c-0.7,0-1.3-0.4-1.3-1v-2.6c0-0.5,0.6-1,1.3-1h22.3c0.7,0,1.3,0.4,1.3,1v2.6C60.2,23,59.6,23.4,58.9,23.4z"/>
</svg>
