<svg xmlns="http://www.w3.org/2000/svg" viewBox="0 0 1024 1024" fill="currentColor">
    <path d="M489.3,377.8H80.1v-288c0-8.4-6.8-15.2-15.2-15.2H34.7c-8.4,0-15.2,6.8-15.2,15.2v318.3c0,16.7,13.6,30.3,30.3,30.3h439.5
	c8.4,0,15.2-6.8,15.2-15.2v-30.3C504.5,384.6,497.7,377.8,489.3,377.8z"/>
    <path d="M459,105H347.2c-20.3,0-30.4,24.5-16.1,38.8l30.7,30.7L292.3,244l-69.5-69.5c-11.8-11.8-31-11.8-42.9,0l-65.1,65.1
	c-5.9,5.9-5.9,15.5,0,21.4l21.4,21.4c5.9,5.9,15.5,5.9,21.4,0l43.6-43.6l69.5,69.5c11.8,11.8,31,11.8,42.9,0l90.9-90.9l30.7,30.7
	c14.3,14.3,38.8,4.2,38.8-16.1V120.1C474.2,111.7,467.4,105,459,105z"/>
    <path d="M991.2,280.5h-188l125.2,125.2c4.8,4.8,12.7,5.2,17.6,0.5c30.7-28.9,51.8-67.8,57.9-111.6
	C1005,287.2,998.8,280.5,991.2,280.5L991.2,280.5z"/>
    <path d="M978.7,229.2c-6.5-94.6-82.2-170.3-176.8-176.8c-7.2-0.5-13.3,5.6-13.3,12.8v177.3h177.3
	C973.1,242.5,979.2,236.4,978.7,229.2L978.7,229.2z"/>
    <path d="M750.5,280.5v-188c0-7.6-6.6-13.8-14.1-12.7C642,93.1,569.8,175.6,573.2,274.5C576.6,376,664,459.3,765.6,458
	c39.9-0.5,76.8-13.4,107.2-34.9c6.3-4.4,6.7-13.7,1.2-19.1L750.5,280.5z"/>
    <path d="M130.7,558l1.1,7.2l5.5,11.6l-2.8,12.1l-6.1-7.7l-3.9-8.8l-8.8-1.7L102,569h-3.9l2.2,7.7l7.7,11v11l2.2,12.1l9.9,1.1
	l3.9,5.5l-12.1-1.7l-3.9,2.8l1.7,11.6l-2.2,12.7l0.5,14.9l-3.9,9.9l-4.4,14.3l3.3,9.9l2.2,12.7l1.7,9.4l-2.2,12.7l1.7,8.8l3.9,8.8
	l3.3,11l2.8,7.2L128,772l5.5-0.6l7.7,1.1l-8.3,2.2l2.2,3.9l-7.2,1.1l6.6,7.2l6.6,7.2l-2.2,6.1l8.8,12.7l9.4,7.7l1.1,9.4l7.7,3.9
	l10.5,3.3l8.3,7.2l7.2,4.4l7.7,6.1l4.4,3.3l5,11l28.1-0.6l55.2,19.3h45.8l-1.1-4.4h22.1l8.8,5l5,5l12.7,8.8l4.4,16l12.7,6.6l7.7,3.3
	l10.5-12.7l13.8,1.7l5.5,4.4l14.9,24.3l5,6.1l3.9,13.8l29.2,11.6l-1.1-9.9l-1.1-13.8l9.4-11l-1.7-3.3l9.4-7.7l5,2.8l8.3-9.4l5-6.6
	h7.2l16-3.3l11.6,5h8.8l3.3-3.9l3.9,2.8l0.6,5l11.6,3.9l11-1.7l9.4,0.6l-7.7-6.1l-0.6-3.3l5-2.8l-0.5-2.8H598l-8.8,1.1l5.5-5
	l2.8-3.3l2.8,2.8l16-2.2l2.2,2.8h11l6.1-1.7l8.8-0.5l8.3,3.3l5-0.6l5,7.2l9.9,0.5l5.5-4.4h5.5l11,9.4l6.1,6.6l1.7,8.8l-1.1,11
	l3.9,11.6l10.5,13.2l6.1,12.7l2.2,5l11-2.2l2.8-12.1v-18.2l-5.5-14.9l-1.7-3.9l-1.1-11l-9.4-11l-1.7-13.2l0.5-11l4.4-12.1l8.3-6.6
	l-0.6-5l9.9-1.7l14.3-16l6.6-5.5l7.2,1.1l6.6-12.7l9.4-5c0,0,7.2,1.1,7.7-1.7c0.5-2.8,7.7-16,7.7-16l-7.7-4.4l4.4-3.9l1.1-2.8
	l-4.4-11l-4.4-5l5.5-6.1l-4.4-5.5l-1.1-11l-0.6-9.4l3.3-2.8l2.2,13.8l1.7,6.6l3.9,6.1l-1.1,9.9l6.1-12.1l3.9-9.4l0.6-5.5l-5.5-6.6
	l-0.6-2.8l1.7-1.7l8.8,5.5l2.8-6.6l6.1-6.1l1.1-6.6l-1.1-7.7l0.5-3.9l1.1-5.5l4.4,6.1h2.2l6.6-1.1l6.6-0.6l8.8-2.8l-1.7-3.3
	l-8.8,0.6l-8.3,2.2l-3.9,2.2l-0.6-3.9l2.8-3.3l7.2-1.7l8.8-1.7l6.1-1.7l5-3.3l11.6,2.8c0,0,5,2.8,5.5,1.1c0.6-1.7,2.2-6.1,2.2-6.1
	l-3.9-4.4l-1.7-6.6l1.1-11l1.1-8.8l5-6.6l1.1-2.8l3.3,1.7l10.5-11.6h3.9l8.8-1.1l2.8-5.5h7.7l6.6-5.5l-2.5-3l-3-7.4l-3.3-2.5
	l1.4-18.5l-1.7-16.8l-9.9-3l-8.6,3l-4.7-0.6l-19,44.4l-8.8,0.6l-3.9,3.3l-46.9-0.3l-11.6,10.8l-7.2,4.4l-3.3,9.4l-1.7,5l-8.3,5.5
	H774l-6.1-2.8l-7.7,1.1l-9.9,3.3l0.6,5l-0.6,8.8l-5,4.4l-9.9,2.2l-15.4,7.7l-11.6,3.9l-11,0.6l-6.6-5l3.3-6.1l1.7-1.7l2.2-6.1
	l4.1-2.5l5.2-9.1l-5.5-7.2l-1.1-11.6l-7.2-2.2l-9.4,6.6l3.3-7.7l5.5-7.7l-2.2-7.2l-1.7-8.3l-8.8-3.3l-7.7-6.6l-9.4,3.9l0.6,7.2
	l-5.5,6.6l-4.4-2.2l-8.3,9.4v11l1.1,11l5,7.7l-0.6,16.6l-10.5,9.9l-7.7,0.6l-3.9-11.6l-3.9-8.3l1.7-11l-1.7-11l3.9-7.2l2.2-7.2
	l3.9-12.1l-8.8,9.9l5-17.1l7.7-6.6l9.4-0.6l7.2-3.3H667h9.4l6.1-1.7l7.2,1.1l3.3,5.5l13.8,5l2.8-7.7l-9.4,1.1l-6.1-0.6l-8.8-6.6
	l-5.5-3.3l-6.3-4.7l-6.3,1.9l-6.1-4.4l-14.3,0.6l-7.7,5l-6.1-3.9l-7.2-4.4l-10.5-0.6l10.5-14.9l-12.1,5.5l-9.9,7.7l-9.9,5.5
	l-8.8,1.1l-1.1-5.5l-18.2,3.9l15.3-13.4l10.8-7.9l13.4-10.5l-5.5-0.8l-18.2,0.6l-8.3-1.7l-7.4-1.2L558,564l-8.3,0.6l-15.7-3.9
	l-4.1-5l-2.2-7.7l-3.9-3.6l0.3,4.1l-3.9,6.1l-387.3,0.3L130.7,558L130.7,558z"/>
</svg>
