<svg xmlns="http://www.w3.org/2000/svg" viewBox="0 0 512 512" aria-hidden="true" focusable="false" role="img" fill="currentColor">
    <path d="M404.83356,297.97872H354.67715V214.177h50.15641a107.08854,107.08854,0,1,0,0-214.177C345.64284,0,297.51145,47.97571,297.82294,107.01074v50.46778H214.33287V107.01074A107.09452,107.09452,0,0,0,107.32225,0C47.97572,0,0,47.97571,0,107.01074c0,59.3464,48.28721,107.6336,107.32225,107.16629h50.15628v83.80169H107.32225C47.97572,297.97872,0,345.79862,0,404.83352a107.16644,107.16644,0,1,0,214.33287,0V354.83291h83.49007v50.00061a107.08879,107.08879,0,1,0,107.01062-106.8548ZM354.67715,106.85493a50.2348,50.2348,0,1,1,50.0006,50.46791h-50.0006ZM157.47853,404.83352a50.2348,50.2348,0,1,1-50.0006-50.00061h50.0006Zm0-247.51068h-50.0006a50.2348,50.2348,0,1,1,50.0006-50.46791ZM297.97862,297.97872H214.33287V214.33285h83.64575Zm106.69913,157.3227a50.15888,50.15888,0,0,1-50.0006-50.4679V354.83291h50.0006a50.2348,50.2348,0,1,1,0,100.46851Z"/>
</svg>
