<svg xmlns="http://www.w3.org/2000/svg" viewBox="0 0 99.1 79.7" fill="currentColor">
    <path d="M91,18.7H62c-0.6,0-1,0.4-1,1v6c0,0.6,0.4,1,1,1h29c0.6,0,1-0.4,1-1v-6C92,19.1,91.6,18.7,91,18.7z M89.4,24.7H63.6
	c-0.3,0-0.6-0.2-0.6-0.6v-2.9c0-0.3,0.2-0.6,0.6-0.6h25.9c0.3,0,0.6,0.2,0.6,0.6v2.9C90,24.4,89.8,24.7,89.4,24.7z"/>
    <path d="M75,30.7H63c-0.6,0-1,0.4-1,1v6c0,0.6,0.4,1,1,1h12c0.6,0,1-0.4,1-1v-6C76,31.1,75.6,30.7,75,30.7z M73.7,36.7h-9.3
	c-0.2,0-0.3-0.2-0.3-0.3V33c0-0.2,0.2-0.3,0.3-0.3h9.3c0.2,0,0.3,0.2,0.3,0.3v3.3C74,36.5,73.8,36.7,73.7,36.7z"/>
    <path d="M81,43.7H63c-0.6,0-1,0.4-1,1v6c0,0.6,0.4,1,1,1h18c0.6,0,1-0.4,1-1v-6C82,44.1,81.6,43.7,81,43.7z M79.6,49.7H64.4
	c-0.2,0-0.4-0.2-0.4-0.4v-3.1c0-0.2,0.2-0.4,0.4-0.4h15.1c0.2,0,0.4,0.2,0.4,0.4v3.1C80,49.5,79.8,49.7,79.6,49.7z"/>
    <path d="M47,12.7h6c0.6,0,1,0.4,1,1v52c0,0.6-0.4,1-1,1h-6c-0.6,0-1-0.4-1-1v-52C46,13.1,46.4,12.7,47,12.7z"/>
    <path d="M39,19.7v6c0,0.6-0.4,1-1,1H17c-0.6,0-1-0.4-1-1v-6c0-0.6,0.4-1,1-1h21C38.6,18.7,39,19.1,39,19.7z"/>
    <path d="M39,31.7v6c0,0.6-0.4,1-1,1H8c-0.6,0-1-0.4-1-1v-6c0-0.6,0.4-1,1-1h30C38.6,30.7,39,31.1,39,31.7z"/>
    <path d="M39,44.7v6c0,0.6-0.4,1-1,1H20c-0.6,0-1-0.4-1-1v-6c0-0.6,0.4-1,1-1h18C38.6,43.7,39,44.1,39,44.7z"/>
    <path d="M39,57.7v6c0,0.6-0.4,1-1,1H25c-0.6,0-1-0.4-1-1v-6c0-0.6,0.4-1,1-1h13C38.6,56.7,39,57.1,39,57.7z"/>
    <path d="M79,56.7H63c-0.6,0-1,0.4-1,1v6c0,0.6,0.4,1,1,1h16c0.6,0,1-0.4,1-1v-6C80,57.1,79.6,56.7,79,56.7z M77.6,62.7H64.4
	c-0.2,0-0.4-0.2-0.4-0.4v-3.2c0-0.2,0.2-0.4,0.4-0.4h13.2c0.2,0,0.4,0.2,0.4,0.4v3.2C78,62.5,77.8,62.7,77.6,62.7z"/>
</svg>
