<svg xmlns="http://www.w3.org/2000/svg" viewBox="0 0 40 42" xmlns:xlink="http://www.w3.org/1999/xlink">
    <title>
        tools_04
    </title>
    <path d="M37.32,24.82H35.13a15.54,15.54,0,0,1-1.52,3.63l2,2a3.31,3.31,0,0,1,0,4.68l-1.17,1.17a3.3,3.3,0,0,1-4.68,0l-2-2a15.59,15.59,0,0,1-3.62,1.49V37.9a3.31,3.31,0,0,1-3.31,3.31H19.17a3.31,3.31,0,0,1-3.31-3.31V35.78a15.7,15.7,0,0,1-3.62-1.49l-2,2a3.3,3.3,0,0,1-4.68,0L4.36,35.15a3.31,3.31,0,0,1,0-4.68l2-2a15.8,15.8,0,0,1-1.52-3.63H2.68A3.31,3.31,0,0,1-.62,21.51V19.86a3.31,3.31,0,0,1,3.31-3.31H4.84A15.53,15.53,0,0,1,6.3,12.94L4.36,11a3.31,3.31,0,0,1,0-4.68L5.53,5.15a3.31,3.31,0,0,1,4.68,0l1.9,1.9a15.66,15.66,0,0,1,3.75-1.56V3.26A3.31,3.31,0,0,1,19.17,0h1.65a3.31,3.31,0,0,1,3.31,3.31V5.48a15.62,15.62,0,0,1,3.75,1.57l1.9-1.9a3.31,3.31,0,0,1,4.68,0l1.17,1.17a3.31,3.31,0,0,1,0,4.68l-1.94,1.94a15.54,15.54,0,0,1,1.46,3.61h2.16a3.31,3.31,0,0,1,3.31,3.31v1.65A3.31,3.31,0,0,1,37.32,24.82ZM20,11.64a9.1,9.1,0,1,0,9.1,9.1A9.1,9.1,0,0,0,20,11.64Zm0,13.13a4.14,4.14,0,1,1,4.13-4.13A4.14,4.14,0,0,1,20,24.76Z" class="fr-evenodd"/>
</svg>
