<?xml version="1.0" encoding="UTF-8"?><svg id="a" xmlns="http://www.w3.org/2000/svg" viewBox="0 0 96.31 82.55"><path d="M88.49,65.65H15.29V9.04c0-1.1-.9-2-2-2H7.82c-1.1,0-2,.9-2,2V73.13c0,1.1,.9,2,2,2H88.49c1.1,0,2-.9,2-2v-5.48c0-1.1-.9-2-2-2Z"/><path d="M87.91,60.65c-.02-.12-2.46-12.63-5.53-24.97-5.97-23.99-8.8-26-10.99-26-2.54,0-4.17,3.55-7.92,12.31-.67,1.56-1.4,3.27-2.18,5.02-1.66-4.14-3.14-5.9-4.84-5.9-2.39,0-4.05,3.42-7.07,9.64-5.56,11.44-13.97,28.72-29.12,28.72-.8,0-1.46,.65-1.46,1.45s.65,1.45,1.46,1.45H86.48c.43,0,.85-.19,1.12-.53,.28-.34,.39-.78,.31-1.2Zm-46.88-1.25c8.93-4.92,15.3-15.3,19.83-24.54,2.62,8.88,4.97,20.28,5.83,24.58l-25.66-.04Z"/></svg>