<svg xmlns="http://www.w3.org/2000/svg" viewBox="0 0 512 512" aria-hidden="true" focusable="false" role="img" fill="currentColor">
    <path d="M338.501,511a33.45672,33.45672,0,1,1-.01953-66.9134h59.91577a45.65116,45.65116,0,0,0,45.6009-45.527V338.4567A33.501,33.501,0,0,1,511,338.44207v60.13214A112.67,112.67,0,0,1,398.50266,511Z" transform="translate(0.00006)"/><path d="M112.24868,511A112.45313,112.45313,0,0,1,.00006,398.55958V338.4567a33.41224,33.41224,0,1,1,66.82447.01463v60.10288a45.46687,45.46687,0,0,0,45.43876,45.51239h60.32494A33.45674,33.45674,0,0,1,172.60333,511Z" transform="translate(0.00006)"/><path d="M477.50687,206a33.52853,33.52853,0,0,1-33.48727-33.44434V112.57178A45.6649,45.6649,0,0,0,398.4412,67H338.501a33.5,33.5,0,0,1-.02146-67h60.06018A112.63206,112.63206,0,0,1,511,112.38135v60.15918A33.524,33.524,0,0,1,477.53128,206Z" transform="translate(0.00006)"/><path d="M33.49561,206A33.51153,33.51153,0,0,1,0,172.54346V112.57178C-.06486,50.57031,50.26964.06592,112.20333,0h60.38151a33.48537,33.48537,0,0,1,33.41508,33.51514A33.48205,33.48205,0,0,1,172.6,67H112.54346A45.55207,45.55207,0,0,0,67,112.4209v60.13672A33.50572,33.50572,0,0,1,33.51465,206Z" transform="translate(0.00006)"/>
</svg>
