<?xml version="1.0" encoding="UTF-8"?><svg id="a" xmlns="http://www.w3.org/2000/svg" viewBox="0 0 96.31 82.55"><path d="M54.68,29.14h-4.1V8.43h2.68c.5,0,.9-.15,1.19-.46,.46-.48,.44-1.11,.42-1.62,0-.11,0-.22,0-.34s0-.24,0-.34c.02-.5,.05-1.13-.42-1.62-.29-.3-.69-.46-1.19-.46h-10.2c-.5,0-.9,.15-1.19,.46-.47,.48-.44,1.11-.42,1.62,0,.11,0,.23,0,.34s0,.23,0,.34c-.02,.5-.05,1.13,.42,1.62,.29,.3,.69,.46,1.19,.46h2.68V29.14h-4.1c-1.33,0-2.42,1.09-2.42,2.42v31.31c0,1.33,1.09,2.42,2.42,2.42h4.1v7.97h-2.68c-.5,0-.9,.15-1.19,.46-.46,.48-.44,1.11-.42,1.62,0,.11,0,.22,0,.34s0,.24,0,.34c-.02,.5-.05,1.13,.42,1.62,.29,.3,.69,.46,1.19,.46h10.2c.5,0,.9-.15,1.19-.46,.47-.48,.44-1.11,.42-1.62,0-.11,0-.23,0-.34s0-.23,0-.34c.02-.5,.05-1.13-.42-1.62-.29-.3-.69-.46-1.19-.46h-2.68v-7.97h4.1c1.33,0,2.42-1.09,2.42-2.42V31.56c0-1.33-1.09-2.42-2.42-2.42Zm-2.42,20.5v10.81h-8.2v-10.81h8.2Zm-8.2-4.84v-10.81h8.2v10.81h-8.2Z"/></svg>