<?xml version="1.0" encoding="UTF-8"?><svg id="a" xmlns="http://www.w3.org/2000/svg" viewBox="0 0 96.31 82.55"><path d="M89.56,65.41H16.36V8.8c0-1.1-.9-2-2-2h-5.48c-1.1,0-2,.9-2,2V72.89c0,1.1,.9,2,2,2H89.56c1.1,0,2-.9,2-2v-5.48c0-1.1-.9-2-2-2Z"/><path d="M54.66,55.34c-17.76,0-33.46-17.8-34.12-18.56l-.98-1.13v-4.55l3.25,3.72c.15,.18,15.47,17.53,31.86,17.53h0c7.31,0,12.37-1.68,17.27-3.3,4.31-1.42,8.77-2.9,14.44-3.05l1.5-.04v3l-1.42,.04c-5.24,.14-9.29,1.48-13.59,2.9-5.13,1.69-10.43,3.45-18.22,3.45h0Z"/><path d="M87.84,59.04c-4.73-1.24-7.41-1.66-13.05-1.93-2.82-.14-5.22,.16-8,.5-2.73,.33-5.81,.71-10.06,.79-13.13,.27-23.77-4.63-37.17-17.31v-1.57c13.19,12.48,24.31,18.13,37.15,17.88,4.2-.08,7.26-.46,9.96-.79,2.83-.34,5.27-.64,8.17-.5,5.73,.28,8.2,.62,13,1.88v1.05Z"/><path d="M57.02,49.28c-19.55,0-30.91-14.65-37.69-23.41v-1.54c6.67,8.61,18.64,23.95,37.69,23.95,5.87,0,14.11-3.23,18.39-6.23,2.43-1.7,3.84-2.77,4.87-3.55,2.24-1.7,2.7-2.05,7.71-4.44l-.03,1.12c-4.92,2.34-4.91,2.47-7.08,4.12-1.04,.79-2.45,1.86-4.9,3.57-4.4,3.08-12.9,6.41-18.96,6.41Z"/></svg>