<?xml version="1.0" encoding="UTF-8"?><svg id="a" xmlns="http://www.w3.org/2000/svg" viewBox="0 0 96.31 82.55"><defs><style>.b{stroke-width:3px;}.b,.c,.d{stroke-linecap:round;}.b,.c,.d,.e{stroke:#000;}.c,.d,.e{fill:none;}.d{stroke-dasharray:0 0 0 4.07;}.e{stroke-width:2px;}</style></defs><path d="M14.15,8.39v63.29c0,.87,.89,1.59,1.98,1.59h5.42c1.09,0,1.98-.72,1.98-1.59l-.13-63.29c0-.87-.89-1.59-1.98-1.59h-5.28c-1.09,0-1.98,.72-1.98,1.59Z"/><g><line class="c" x1="53.51" y1="10.09" x2="53.51" y2="10.09"/><line class="d" x1="53.51" y1="14.16" x2="53.51" y2="69.05"/><line class="c" x1="53.51" y1="71.08" x2="53.51" y2="71.08"/></g><g><path class="b" d="M29.78,16.97h34.43"/><path class="b" d="M29.78,21.48V12.45"/><path class="b" d="M65.64,21.48V12.45"/></g><g><path class="b" d="M50.62,33.5h28.85"/><path class="b" d="M50.62,38.02v-9.03"/><path class="b" d="M80.67,38.02v-9.03"/></g><g><path class="b" d="M28.21,50.03h19.26"/><path class="b" d="M28.21,54.55v-9.03"/><path class="b" d="M48.27,54.55v-9.03"/></g><g><path class="b" d="M40.69,66.57h33.99"/><path class="b" d="M40.69,71.08v-9.03"/><path class="b" d="M76.1,71.08v-9.03"/></g><circle class="e" cx="47.47" cy="16.97" r="2.2"/><circle class="e" cx="65.64" cy="33.5" r="2.2"/><circle class="e" cx="38.49" cy="50.03" r="2.2"/><circle class="e" cx="58.31" cy="66.57" r="2.2"/></svg>