<?xml version="1.0" encoding="UTF-8"?><svg xmlns="http://www.w3.org/2000/svg" viewBox="0 0 96.31 82.55"><g id="a"><path d="M88.56,66.3H15.36V9.68c0-1.1-.9-2-2-2H7.89c-1.1,0-2,.9-2,2V73.77c0,1.1,.9,2,2,2H88.56c1.1,0,2-.9,2-2v-5.48c0-1.1-.9-2-2-2Z"/><path d="M18.36,54.67v6.94c0,1.1,.9,2,2,2h5.48c1.1,0,2-.9,2-2l-.13-6.94c0-1.1-.9-2-2-2h-5.34c-1.1,0-2,.9-2,2Z"/><path d="M30.43,45.3v16.31c0,1.1,.9,2,2,2h5.48c1.1,0,2-.9,2-2l-.13-16.31c0-1.1-.9-2-2-2h-5.34c-1.1,0-2,.9-2,2Z"/><path d="M42.51,32.3v29.31c0,1.1,.9,2,2,2h5.48c1.1,0,2-.9,2-2l-.13-29.31c0-1.1-.9-2-2-2h-5.34c-1.1,0-2,.9-2,2Z"/><path d="M54.58,32.3v29.31c0,1.1,.9,2,2,2h5.48c1.1,0,2-.9,2-2l-.13-29.31c0-1.1-.9-2-2-2h-5.34c-1.1,0-2,.9-2,2Z"/><path d="M66.66,42.22v19.33c0,1.1,.9,2,2,2h5.48c1.1,0,2-.9,2-2l-.13-19.33c0-1.1-.9-2-2-2h-5.34c-1.1,0-2,.9-2,2Z"/><path d="M78.73,58.89v2.72c0,1.1,.9,2,2,2h5.48c1.1,0,2-.9,2-2l-.13-2.72c0-1.1-.9-2-2-2h-5.34c-1.1,0-2,.9-2,2Z"/><g><path d="M20.25,38.69c-.65,0-1.3-.32-1.68-.91-.6-.93-.34-2.16,.59-2.77,.01,0,1.17-.76,2.86-1.92,.91-.62,2.16-.39,2.78,.52,.62,.91,.39,2.16-.52,2.78-1.75,1.2-2.95,1.98-2.95,1.98-.34,.22-.71,.32-1.09,.32Z"/><path d="M28.5,32.92c-.61,0-1.21-.28-1.6-.8-.66-.88-.48-2.14,.4-2.8,1.91-1.43,3.51-2.72,4.76-3.83l.21-.19c.82-.74,2.09-.67,2.82,.16,.74,.82,.66,2.09-.16,2.82l-.22,.2c-1.34,1.19-3.03,2.55-5.02,4.04-.36,.27-.78,.4-1.2,.4Zm50.28-1.66c-.34,0-.68-.09-1-.27-1.64-.95-3.38-2.08-5.66-3.67-.91-.63-1.13-1.88-.49-2.79,.63-.9,1.88-1.13,2.79-.49,2.17,1.52,3.83,2.6,5.37,3.48,.96,.55,1.28,1.78,.73,2.73-.37,.64-1.04,1-1.73,1Zm-40.24-6.8c-.58,0-1.15-.25-1.55-.73-.7-.85-.58-2.11,.28-2.81,1.98-1.63,3.82-2.93,5.61-3.98,.95-.56,2.18-.24,2.74,.72s.24,2.18-.72,2.74c-1.61,.94-3.27,2.12-5.09,3.62-.37,.31-.82,.45-1.27,.45Zm29.37-.59c-.4,0-.8-.12-1.15-.37-1.61-1.13-3.5-2.44-5.34-3.52-.95-.56-1.27-1.78-.72-2.74,.56-.95,1.78-1.27,2.74-.72,1.98,1.16,3.95,2.52,5.63,3.7,.9,.64,1.12,1.88,.48,2.79-.39,.55-1.01,.85-1.64,.85Zm-18-5.77c-.89,0-1.7-.6-1.93-1.49-.28-1.07,.36-2.16,1.43-2.44,1.72-.45,3.46-.68,5.17-.68,.71,0,1.46,.08,2.24,.24,1.08,.23,1.77,1.29,1.55,2.37s-1.29,1.77-2.37,1.55c-.5-.11-.98-.16-1.42-.16-1.37,0-2.77,.18-4.16,.55-.17,.04-.34,.07-.51,.07Z"/><path d="M88.21,34.46c-1.26,0-2.6-.2-4-.6-1.06-.3-1.68-1.41-1.37-2.47,.3-1.06,1.41-1.68,2.47-1.37,1.04,.3,2.02,.45,2.9,.45,1.1,0,2,.9,2,2s-.9,2-2,2Z"/></g></g><g id="b"/></svg>