<svg id="Layer_1" data-name="Layer 1" xmlns="http://www.w3.org/2000/svg" viewBox="0 0 99.1 79.69"><defs><style>.cls-1{fill:#231f20;}</style></defs><rect class="cls-1" x="46.87" y="5.79" width="8.32" height="67.79" rx="1"/><rect class="cls-1" x="23.98" y="17.65" width="8.32" height="23.31" rx="1" transform="translate(57.44 1.16) rotate(90)"/><rect class="cls-1" x="19.53" y="25.99" width="8.32" height="32.21" rx="1" transform="translate(65.79 18.41) rotate(90)"/><rect class="cls-1" x="27.33" y="60.4" width="8.32" height="14.6" rx="1" transform="translate(99.19 36.2) rotate(90)"/><path class="cls-1" d="M81,52.74v4.32H64.55V52.74H81m1-2H63.55a1,1,0,0,0-1,1v6.32a1,1,0,0,0,1,1H82a1,1,0,0,0,1-1V51.74a1,1,0,0,0-1-1Z"/><path class="cls-1" d="M90,14.41v4.33H64.55V14.41H90m1-2H63.55a1,1,0,0,0-1,1v6.33a1,1,0,0,0,1,1H91a1,1,0,0,0,1-1V13.41a1,1,0,0,0-1-1Z"/></svg>