<?xml version="1.0" encoding="utf-8"?>
<!-- Generator: Adobe Illustrator 27.9.0, SVG Export Plug-In . SVG Version: 6.00 Build 0)  -->
<svg version="1.1" id="Layer_1" xmlns="http://www.w3.org/2000/svg" xmlns:xlink="http://www.w3.org/1999/xlink" x="0px" y="0px"
	 viewBox="135 160 228 147" xml:space="preserve">
<style type="text/css">
	.st0{fill:#0055B8;}
	.st1{fill:#FFFFFF;}
</style>
<g>
	<path class="st0" d="M141.22,300.14H186h151.44c10.88,0,19.84-8.27,20.91-18.87c0.07-0.71,0.11-1.42,0.11-2.15V165.04H188.93
		h-26.68c-7.26,0-13.65,3.68-17.43,9.27c-0.76,1.12-1.41,2.31-1.94,3.57c-1.06,2.52-1.65,5.28-1.65,8.18V300.14z"/>
	<path class="st1" d="M162.25,160.83c-13.91,0-25.23,11.32-25.23,25.23v118.28h31.62h6.95h161.85c13.91,0,25.23-11.32,25.23-25.23
		V160.83H162.25z M326.53,239.21c-0.2-0.23-0.56-0.25-0.78-0.05c-1.32,1.19-5.84,4.76-12.61,4.88c-8.53,0.14-17.17-6.93-17.17-19.2
		c0-12.27,8.92-19.21,17.27-19.21c6.2,0,10.2,2.92,11.41,3.95c0.23,0.19,0.57,0.17,0.77-0.06l7.57-8.41c0.18-0.2,0.2-0.51,0.02-0.72
		c-1.24-1.49-6.57-6.89-18.51-6.89c-1.11,0-2.25,0.06-3.41,0.17l45.61-28.63h1.76v62.45l-31.15,12.59L326.53,239.21z M243.33,242.49
		h-6.37c-0.31,0-0.56-0.25-0.56-0.56v-34.78c0-0.31,0.25-0.56,0.56-0.56h7.31c11.28,0,18.77,5.56,18.77,17.43
		C263.04,237.79,255.72,242.49,243.33,242.49z M240.95,194.29h-17.32c-0.31,0-0.56,0.25-0.56,0.56v59.4c0,0.08,0.02,0.15,0.04,0.22
		l-65.24,45.68h-6.1l40.05-44.48c2.03,0.34,4.03,0.51,5.93,0.51c11.85,0,18.13-6.24,19.55-7.87c0.19-0.21,0.19-0.53,0-0.74
		l-7.52-8.36c-0.2-0.23-0.56-0.25-0.78-0.05c-1.32,1.19-5.84,4.76-12.61,4.88c-8.53,0.14-17.17-6.93-17.17-19.2
		c0-12.27,8.92-19.21,17.27-19.21c6.2,0,10.2,2.92,11.41,3.95c0.23,0.19,0.57,0.17,0.77-0.06l7.57-8.41c0.18-0.2,0.2-0.51,0.02-0.72
		c-1.24-1.49-6.57-6.89-18.51-6.89c-5.92,0-12.69,1.53-18.48,5.1l12.88-33.56h76.66L240.95,194.29z M142.88,177.88
		c0.53-1.26,1.18-2.45,1.94-3.57c3.78-5.59,10.18-9.27,17.43-9.27h26.35l-14.39,37.49c-5.11,4.98-8.62,12.23-8.62,22.3
		c0,0.05,0,0.1,0,0.15l-24.37,63.49V186.06C141.22,183.16,141.81,180.39,142.88,177.88z M141.22,297.77l25.1-65.41
		c2.66,12.93,12.13,19.81,21.77,22.47l-40.8,45.31h-6.07V297.77z M163.69,300.14l64.76-45.34h16.43c18.03,0,32.01-10.51,32.01-30.08
		c0-21.2-13.14-29.7-31.38-30.37l27.92-29.3h77.01l-49.53,31.09c-9.9,4-18.58,12.87-18.58,28.7c0,14.08,6.93,22.65,15.44,27.19
		l-119.11,48.12H163.69z M358.35,281.27c-1.08,10.6-10.03,18.87-20.91,18.87h-149.9l114.43-46.23c4.21,1.55,8.58,2.26,12.53,2.26
		c11.85,0,18.13-6.24,19.55-7.87c0.19-0.21,0.19-0.53,0-0.74l-4.37-4.85l28.78-11.63v48.03
		C358.46,279.84,358.43,280.56,358.35,281.27z"/>
</g>

</svg>
