<svg xmlns="http://www.w3.org/2000/svg" viewBox="0 0 99.1 79.69">
    <rect fill="currentColor" x="45.87" y="12.8" width="8.32" height="53.78" rx="1"/>
    <rect fill="currentColor" x="22.98" y="10.64" width="8.32" height="23.31" rx="1" transform="translate(49.43 -4.84) rotate(90)"/>
    <rect fill="currentColor" x="18.53" y="18.99" width="8.32" height="32.21" rx="1" transform="translate(57.78 12.41) rotate(90)"/>
    <rect fill="currentColor" x="24.43" y="37.69" width="8.32" height="20.41" rx="1" transform="translate(76.48 19.3) rotate(90)"/>
    <rect fill="currentColor" x="27.33" y="53.39" width="8.32" height="14.6" rx="1" transform="translate(92.18 29.2) rotate(90)"/>
    <path fill="currentColor" d="M90.32,20.13v4.33H63.55V20.13H90.32m1-2H62.55a1,1,0,0,0-1,1v6.33a1,1,0,0,0,1,1H91.32a1,1,0,0,0,1-1V19.13a1,1,0,0,0-1-1Z"/>
    <path fill="currentColor" d="M73.68,32.93v4.32H63.55V32.93H73.68m1-2H62.55a1,1,0,0,0-1,1v6.32a1,1,0,0,0,1,1H74.68a1,1,0,0,0,1-1V31.93a1,1,0,0,0-1-1Z"/>
    <path fill="currentColor" d="M80,45.73v4.32H63.55V45.73H80m1-2H62.55a1,1,0,0,0-1,1v6.32a1,1,0,0,0,1,1H81a1,1,0,0,0,1-1V44.73a1,1,0,0,0-1-1Z"/>
    <path fill="currentColor" d="M77.94,58.53v4.32H63.55V58.53H77.94m1-2H62.55a1,1,0,0,0-1,1v6.32a1,1,0,0,0,1,1H78.94a1,1,0,0,0,1-1V57.53a1,1,0,0,0-1-1Z"/>
</svg>
