<svg version="1.1" id="Logo" xmlns="http://www.w3.org/2000/svg" xmlns:xlink="http://www.w3.org/1999/xlink" x="0px" y="0px"
	 viewBox="0 0 1602.7 1602.9" style="enable-background:new 0 0 1602.7 1602.9;" xml:space="preserve">
<style type="text/css">
	.st0{fill:#105EAB;}
	.st1{opacity:0.55;}
	.st2{fill:#FFFFFF;}
</style>
<path class="st0" d="M801.4,1602.9c-108.2,0-213.1-21.2-311.9-63c-95.4-40.4-181.1-98.1-254.7-171.7
	S103.4,1208.8,63,1113.4C21.2,1014.6,0,909.6,0,801.5s21.2-213.1,63-311.9c40.4-95.4,98.1-181.1,171.7-254.7S394,103.4,489.5,63
	C588.3,21.2,693.3,0,801.4,0c108.2,0,213.1,21.2,311.9,63c95.4,40.4,181.1,98.1,254.7,171.7c73.6,73.6,131.4,159.3,171.7,254.7
	c41.8,98.8,63,203.8,63,311.9s-21.2,213.1-63,311.9c-40.4,95.4-98.1,181.1-171.7,254.7c-73.6,73.6-159.3,131.4-254.7,171.7
	C1014.6,1581.7,909.6,1602.9,801.4,1602.9z M801.4,32c-103.9,0-204.6,20.3-299.5,60.5c-91.6,38.8-173.9,94.2-244.6,164.9
	S131.2,410.4,92.5,502C52.4,596.8,32,697.6,32,801.5s20.3,204.6,60.5,299.5c38.8,91.6,94.2,173.9,164.9,244.6s153,126.1,244.6,164.9
	c94.8,40.1,195.6,60.5,299.5,60.5s204.6-20.3,299.5-60.5c91.6-38.8,173.9-94.2,244.6-164.9c70.7-70.7,126.1-153,164.9-244.6
	c40.1-94.8,60.5-195.6,60.5-299.5s-20.3-204.6-60.5-299.5c-38.8-91.6-94.2-173.9-164.9-244.6c-70.7-70.7-153-126.1-244.6-164.9
	C1006.1,52.4,905.3,32,801.4,32z"/>
<circle class="st0" cx="801.4" cy="801.5" r="747.3"/>
<g class="st1">
	<path class="st2" d="M1001.2,1521.7c10.5-2.9,20.9-6,31.3-9.4l482.6-488.9c3.2-10.4,6.2-20.9,9-31.4L1001.2,1521.7z"/>
	<path class="st2" d="M123.4,486.7l-35.5,537.7c4,12.8,8.4,25.5,13,38l40.4-611.7C135,462.5,129,474.5,123.4,486.7z"/>
	<path class="st2" d="M320.8,229.2l-140.9,987.5c4.3,6.4,8.6,12.7,13.1,19L338.8,214.5C332.7,219.3,326.7,224.2,320.8,229.2z"/>
	<path class="st2" d="M540.8,100.8L267.5,1324.4c4.3,4.4,8.7,8.8,13.1,13.1L558.1,94.6C552.3,96.6,546.5,98.7,540.8,100.8z"/>
	<path class="st2" d="M801.3,54.2c-4.8,0-9.5,0.1-14.3,0.1L357.3,1402.5c4.4,3.2,8.8,6.4,13.2,9.6L803.2,54.2
		C802.6,54.2,802,54.2,801.3,54.2z"/>
	<path class="st2" d="M999.2,80.6L437,1454c4.6,2.6,9.2,5.1,13.9,7.6L1014.3,84.9C1009.3,83.4,1004.2,82,999.2,80.6z"/>
	<path class="st2" d="M1204.3,172L525.9,1496.3c4.9,1.9,9.8,3.8,14.7,5.6l676.6-1321.5C1212.9,177.6,1208.6,174.7,1204.3,172z"/>
	<path class="st2" d="M1424.6,389L664.3,1536.2c5.5,1,11.1,2,16.7,2.9l752.9-1135.8C1430.8,398.5,1427.7,393.7,1424.6,389z"/>
	<path class="st2" d="M1530.4,636.8l-734.8,911.9c1.9,0,3.8,0,5.7,0c4.8,0,9.6-0.1,14.4-0.2l718.8-892.4
		C1533.3,649.7,1531.9,643.3,1530.4,636.8z"/>
</g>
<path class="st2" d="M514.9,972c-18.2,17.4-63.8,36.2-97.3,35.8c-97.5-0.1-143-82.9-143.8-209.5
	c0.7-119.7,49.8-195.9,134.2-196.1c60.4,0.1,89.7,35.1,105.7,55.9l17.7,23.5V572.9l-5.6-2.6c-34.8-16.2-79-23.8-119.2-23.8
	C255,546.8,139.4,655.4,139.2,808.8c0.2,157.3,109.5,256.1,266.1,256.3h0.8c77.7,0,117.6-23.5,138.6-39.6l6.2-4.7L525,962.6
	L514.9,972z M939.6,603c-50.7-37.2-114.2-48.2-168.4-48.2H586.1v501.3h197.1c95.6-0.2,243.3-60.9,243.6-252
	C1027,704,990.5,640.2,939.6,603L939.6,603z M707.8,998V611.4c89.5,2.4,184.8,13.3,186.5,194.7C892.9,982.3,795.4,995.6,707.8,998z
	 M1449,962.6l-10,9.4c-18.2,17.4-63.7,36.1-97.1,35.8c-97.5,0-143-82.9-143.9-209.4c0.7-119.8,49.9-196,134.4-196.1
	c60.3,0.1,89.7,35.1,105.4,56l17.7,23.8V572.9l-5.6-2.6c-34.6-16.2-78.8-23.7-119.2-23.8c-151.5,0.3-266.9,108.9-267.1,262.3
	c0.2,157.3,109.3,256,265.9,256.3h1.2c77.5,0,117.2-23.5,138.2-39.6l6.2-4.8L1449,962.6z"/>
</svg>
