<?xml version="1.0" encoding="utf-8"?>
<svg version="1.1" xmlns:xlink="http://www.w3.org/1999/xlink" width="10px" height="10px" xmlns="http://www.w3.org/2000/svg">
  <g transform="matrix(1 0 0 1 -68 -64 )">
    <path d="M 9.89397321428571 4.74888392857143  C 9.96465773809524 4.81956845238095  10 4.90327380952381  10 5  C 10 5.09672619047619  9.96465773809524 5.18043154761905  9.89397321428571 5.25111607142857  L 8.46540178571429 6.6796875  C 8.39471726190476 6.75037202380952  8.31101190476191 6.78571428571429  8.21428571428571 6.78571428571429  C 8.11755952380952 6.78571428571429  8.03385416666667 6.75037202380952  7.96316964285714 6.6796875  C 7.89248511904762 6.60900297619048  7.85714285714286 6.52529761904762  7.85714285714286 6.42857142857143  L 7.85714285714286 5.71428571428571  L 5.71428571428571 5.71428571428571  L 5.71428571428571 7.85714285714286  L 6.42857142857143 7.85714285714286  C 6.52529761904762 7.85714285714286  6.60900297619048 7.89248511904762  6.6796875 7.96316964285714  C 6.75037202380952 8.03385416666667  6.78571428571429 8.11755952380952  6.78571428571429 8.21428571428571  C 6.78571428571429 8.31101190476191  6.75037202380952 8.39471726190476  6.6796875 8.46540178571429  L 5.25111607142857 9.89397321428571  C 5.18043154761905 9.96465773809524  5.09672619047619 10  5 10  C 4.90327380952381 10  4.81956845238095 9.96465773809524  4.74888392857143 9.89397321428571  L 3.3203125 8.46540178571429  C 3.24962797619048 8.39471726190476  3.21428571428571 8.31101190476191  3.21428571428571 8.21428571428571  C 3.21428571428571 8.11755952380952  3.24962797619048 8.03385416666667  3.3203125 7.96316964285714  C 3.39099702380952 7.89248511904762  3.47470238095238 7.85714285714286  3.57142857142857 7.85714285714286  L 4.28571428571429 7.85714285714286  L 4.28571428571429 5.71428571428571  L 2.14285714285714 5.71428571428571  L 2.14285714285714 6.42857142857143  C 2.14285714285714 6.52529761904762  2.10751488095238 6.60900297619048  2.03683035714286 6.6796875  C 1.96614583333333 6.75037202380952  1.88244047619048 6.78571428571429  1.78571428571429 6.78571428571429  C 1.6889880952381 6.78571428571429  1.60528273809524 6.75037202380952  1.53459821428571 6.6796875  L 0.106026785714286 5.25111607142857  C 0.0353422619047619 5.18043154761905  0 5.09672619047619  0 5  C 0 4.90327380952381  0.0353422619047619 4.81956845238095  0.106026785714286 4.74888392857143  L 1.53459821428571 3.3203125  C 1.60528273809524 3.24962797619048  1.6889880952381 3.21428571428571  1.78571428571429 3.21428571428571  C 1.88244047619048 3.21428571428571  1.96614583333333 3.24962797619048  2.03683035714286 3.3203125  C 2.10751488095238 3.39099702380952  2.14285714285714 3.47470238095238  2.14285714285714 3.57142857142857  L 2.14285714285714 4.28571428571429  L 4.28571428571429 4.28571428571429  L 4.28571428571429 2.14285714285714  L 3.57142857142857 2.14285714285714  C 3.47470238095238 2.14285714285714  3.39099702380952 2.10751488095238  3.3203125 2.03683035714286  C 3.24962797619048 1.96614583333333  3.21428571428571 1.88244047619048  3.21428571428571 1.78571428571429  C 3.21428571428571 1.68898809523809  3.24962797619048 1.60528273809524  3.3203125 1.53459821428571  L 4.74888392857143 0.106026785714286  C 4.81956845238095 0.0353422619047628  4.90327380952381 0  5 0  C 5.09672619047619 0  5.18043154761905 0.0353422619047628  5.25111607142857 0.106026785714286  L 6.6796875 1.53459821428571  C 6.75037202380952 1.60528273809524  6.78571428571429 1.68898809523809  6.78571428571429 1.78571428571429  C 6.78571428571429 1.88244047619048  6.75037202380952 1.96614583333333  6.6796875 2.03683035714286  C 6.60900297619048 2.10751488095238  6.52529761904762 2.14285714285714  6.42857142857143 2.14285714285714  L 5.71428571428571 2.14285714285714  L 5.71428571428571 4.28571428571429  L 7.85714285714286 4.28571428571429  L 7.85714285714286 3.57142857142857  C 7.85714285714286 3.47470238095238  7.89248511904762 3.39099702380952  7.96316964285714 3.3203125  C 8.03385416666667 3.24962797619048  8.11755952380952 3.21428571428571  8.21428571428571 3.21428571428571  C 8.31101190476191 3.21428571428571  8.39471726190476 3.24962797619048  8.46540178571429 3.3203125  L 9.89397321428571 4.74888392857143  Z " fill-rule="nonzero" fill="#aaaaaa" stroke="none" transform="matrix(1 0 0 1 68 64 )" />
  </g>
</svg>