<?xml version="1.0" encoding="UTF-8"?>
<svg width="33px" height="33px" viewBox="0 0 33 33" version="1.1" xmlns="http://www.w3.org/2000/svg" xmlns:xlink="http://www.w3.org/1999/xlink">
    <!-- Generator: Sketch 55.1 (78136) - https://sketchapp.com -->
    <title>Group</title>
    <desc>Created with Sketch.</desc>
    <g id="Page-1" stroke="none" stroke-width="1" fill="none" fill-rule="evenodd">
        <g id="Artboard" transform="translate(-33.000000, -16.000000)">
            <g id="Group" transform="translate(33.000000, 16.000000)">
                <circle id="Oval" fill="#202020" cx="16.5" cy="16.5" r="16.5"></circle>
                <g id="email" transform="translate(5.000000, 5.000000)">
                    <path d="M19.1,4 L3.9,4 C2.855,4 2.0095,4.9 2.0095,6 L2,18 C2,19.1 2.855,20 3.9,20 L19.1,20 C20.145,20 21,19.1 21,18 L21,6 C21,4.9 20.145,4 19.1,4 Z M19.1,8 L11.5,13 L3.9,8 L3.9,6 L11.5,11 L19.1,6 L19.1,8 Z" id="Shape" fill="#FFFFFF" fill-rule="nonzero"></path>
                    <polygon id="Path" points="0 0 23 0 23 23 0 23"></polygon>
                </g>
            </g>
        </g>
    </g>
</svg>